<mxfile host="app.diagrams.net" modified="2024-07-11T10:39:03.121Z" agent="Mozilla/5.0 (Macintosh; Intel Mac OS X 10_15_7) AppleWebKit/537.36 (KHTML, like Gecko) Chrome/126.0.0.0 Safari/537.36" etag="GypF17h5vRW_GDZTS6yB" version="24.6.4" type="github">
  <diagram id="C5RBs43oDa-KdzZeNtuy" name="Page-1">
    <mxGraphModel dx="3754" dy="1586" grid="1" gridSize="10" guides="1" tooltips="1" connect="1" arrows="1" fold="1" page="1" pageScale="1" pageWidth="827" pageHeight="1169" math="0" shadow="0">
      <root>
        <mxCell id="WIyWlLk6GJQsqaUBKTNV-0" />
        <mxCell id="WIyWlLk6GJQsqaUBKTNV-1" parent="WIyWlLk6GJQsqaUBKTNV-0" />
        <mxCell id="GbRqIvFZk893x_S-Il0t-11" value="" style="edgeStyle=orthogonalEdgeStyle;rounded=0;orthogonalLoop=1;jettySize=auto;html=1;sketch=1;curveFitting=1;jiggle=2;" parent="WIyWlLk6GJQsqaUBKTNV-1" source="WIyWlLk6GJQsqaUBKTNV-3" target="WIyWlLk6GJQsqaUBKTNV-6" edge="1">
          <mxGeometry relative="1" as="geometry" />
        </mxCell>
        <mxCell id="WIyWlLk6GJQsqaUBKTNV-3" value="回放代码路径" style="rounded=1;whiteSpace=wrap;html=1;fontSize=12;glass=0;strokeWidth=1;shadow=0;sketch=1;curveFitting=1;jiggle=2;" parent="WIyWlLk6GJQsqaUBKTNV-1" vertex="1">
          <mxGeometry x="120" y="57.71" width="120" height="40" as="geometry" />
        </mxCell>
        <mxCell id="WIyWlLk6GJQsqaUBKTNV-5" value="&lt;b&gt;No&lt;/b&gt;" style="edgeStyle=orthogonalEdgeStyle;rounded=0;html=1;jettySize=auto;orthogonalLoop=1;fontSize=11;endArrow=block;endFill=0;endSize=8;strokeWidth=1;shadow=0;labelBackgroundColor=none;fontColor=#FF0000;sketch=1;curveFitting=1;jiggle=2;" parent="WIyWlLk6GJQsqaUBKTNV-1" source="WIyWlLk6GJQsqaUBKTNV-6" target="WIyWlLk6GJQsqaUBKTNV-7" edge="1">
          <mxGeometry y="10" relative="1" as="geometry">
            <mxPoint as="offset" />
          </mxGeometry>
        </mxCell>
        <mxCell id="GbRqIvFZk893x_S-Il0t-12" value="" style="edgeStyle=orthogonalEdgeStyle;rounded=0;orthogonalLoop=1;jettySize=auto;html=1;sketch=1;curveFitting=1;jiggle=2;" parent="WIyWlLk6GJQsqaUBKTNV-1" source="WIyWlLk6GJQsqaUBKTNV-6" target="WIyWlLk6GJQsqaUBKTNV-10" edge="1">
          <mxGeometry relative="1" as="geometry" />
        </mxCell>
        <mxCell id="GbRqIvFZk893x_S-Il0t-13" value="yes" style="edgeLabel;html=1;align=center;verticalAlign=middle;resizable=0;points=[];fontColor=#dc1313;fontStyle=1;sketch=1;curveFitting=1;jiggle=2;" parent="GbRqIvFZk893x_S-Il0t-12" vertex="1" connectable="0">
          <mxGeometry x="-0.1667" relative="1" as="geometry">
            <mxPoint as="offset" />
          </mxGeometry>
        </mxCell>
        <mxCell id="WIyWlLk6GJQsqaUBKTNV-6" value="&lt;font style=&quot;font-size: 12px;&quot; color=&quot;#e01010&quot;&gt;&lt;b&gt;AP 回放时，不是&lt;br&gt;新场景/错误场景&lt;br&gt;(相同recordId,&lt;br&gt;sceneKey不一样)&lt;/b&gt;&lt;/font&gt;" style="rhombus;whiteSpace=wrap;html=1;shadow=0;fontFamily=Helvetica;fontSize=12;align=center;strokeWidth=1;spacing=6;spacingTop=-4;sketch=1;curveFitting=1;jiggle=2;" parent="WIyWlLk6GJQsqaUBKTNV-1" vertex="1">
          <mxGeometry x="60" y="120" width="240" height="130" as="geometry" />
        </mxCell>
        <mxCell id="WIyWlLk6GJQsqaUBKTNV-7" value="&lt;b style=&quot;&quot;&gt;&lt;font color=&quot;#e51010&quot;&gt;更新新场景，补充过期时间&lt;br&gt;（通过recordId,更新new SceneKey, AP 增加 expireTime）&lt;/font&gt;&lt;/b&gt;" style="rounded=1;whiteSpace=wrap;html=1;fontSize=12;glass=0;strokeWidth=1;shadow=0;fontColor=#FF0000;sketch=1;curveFitting=1;jiggle=2;" parent="WIyWlLk6GJQsqaUBKTNV-1" vertex="1">
          <mxGeometry x="350" y="150" width="215" height="70" as="geometry" />
        </mxCell>
        <mxCell id="GbRqIvFZk893x_S-Il0t-15" value="" style="edgeStyle=orthogonalEdgeStyle;rounded=0;orthogonalLoop=1;jettySize=auto;html=1;entryX=0.5;entryY=0;entryDx=0;entryDy=0;sketch=1;curveFitting=1;jiggle=2;" parent="WIyWlLk6GJQsqaUBKTNV-1" source="WIyWlLk6GJQsqaUBKTNV-10" target="WIyWlLk6GJQsqaUBKTNV-11" edge="1">
          <mxGeometry relative="1" as="geometry">
            <mxPoint x="213" y="450" as="targetPoint" />
          </mxGeometry>
        </mxCell>
        <mxCell id="GbRqIvFZk893x_S-Il0t-17" value="yes" style="edgeLabel;html=1;align=center;verticalAlign=middle;resizable=0;points=[];sketch=1;curveFitting=1;jiggle=2;" parent="GbRqIvFZk893x_S-Il0t-15" vertex="1" connectable="0">
          <mxGeometry x="-0.0889" relative="1" as="geometry">
            <mxPoint as="offset" />
          </mxGeometry>
        </mxCell>
        <mxCell id="GbRqIvFZk893x_S-Il0t-16" style="edgeStyle=orthogonalEdgeStyle;rounded=0;orthogonalLoop=1;jettySize=auto;html=1;exitX=1;exitY=0.5;exitDx=0;exitDy=0;entryX=1;entryY=0.5;entryDx=0;entryDy=0;sketch=1;curveFitting=1;jiggle=2;" parent="WIyWlLk6GJQsqaUBKTNV-1" source="WIyWlLk6GJQsqaUBKTNV-10" target="WIyWlLk6GJQsqaUBKTNV-12" edge="1">
          <mxGeometry relative="1" as="geometry" />
        </mxCell>
        <mxCell id="WIyWlLk6GJQsqaUBKTNV-10" value="&lt;font color=&quot;#dc1313&quot;&gt;&lt;b&gt;从未逻辑改变和&lt;br&gt;动态类变更的池子里&lt;/b&gt;&lt;br&gt;&lt;/font&gt;判断是否有相同路径&lt;div&gt;（通过appId、sceneKey、没有expireTime字段从pool里拉取，找到是否有不一样的case）&lt;/div&gt;" style="rhombus;whiteSpace=wrap;html=1;shadow=0;fontFamily=Helvetica;fontSize=12;align=center;strokeWidth=1;spacing=6;spacingTop=-4;sketch=1;curveFitting=1;jiggle=2;" parent="WIyWlLk6GJQsqaUBKTNV-1" vertex="1">
          <mxGeometry x="52.5" y="280" width="255" height="140" as="geometry" />
        </mxCell>
        <mxCell id="GbRqIvFZk893x_S-Il0t-9" value="" style="edgeStyle=orthogonalEdgeStyle;rounded=0;orthogonalLoop=1;jettySize=auto;html=1;sketch=1;curveFitting=1;jiggle=2;" parent="WIyWlLk6GJQsqaUBKTNV-1" source="WIyWlLk6GJQsqaUBKTNV-11" target="WIyWlLk6GJQsqaUBKTNV-12" edge="1">
          <mxGeometry relative="1" as="geometry" />
        </mxCell>
        <mxCell id="WIyWlLk6GJQsqaUBKTNV-11" value="清除同路径原本绑定的case" style="rounded=1;whiteSpace=wrap;html=1;fontSize=12;glass=0;strokeWidth=1;shadow=0;sketch=1;curveFitting=1;jiggle=2;" parent="WIyWlLk6GJQsqaUBKTNV-1" vertex="1">
          <mxGeometry x="102.81" y="450" width="154.38" height="40" as="geometry" />
        </mxCell>
        <mxCell id="GbRqIvFZk893x_S-Il0t-10" value="" style="edgeStyle=orthogonalEdgeStyle;rounded=0;orthogonalLoop=1;jettySize=auto;html=1;sketch=1;curveFitting=1;jiggle=2;" parent="WIyWlLk6GJQsqaUBKTNV-1" source="WIyWlLk6GJQsqaUBKTNV-12" target="GbRqIvFZk893x_S-Il0t-6" edge="1">
          <mxGeometry relative="1" as="geometry" />
        </mxCell>
        <mxCell id="WIyWlLk6GJQsqaUBKTNV-12" value="将路径绑定到新case" style="rounded=1;whiteSpace=wrap;html=1;fontSize=12;glass=0;strokeWidth=1;shadow=0;sketch=1;curveFitting=1;jiggle=2;" parent="WIyWlLk6GJQsqaUBKTNV-1" vertex="1">
          <mxGeometry x="103.43" y="510" width="153.76" height="40" as="geometry" />
        </mxCell>
        <mxCell id="GbRqIvFZk893x_S-Il0t-4" value="回 放 代 码 路 径&#xa;⽼ c a s e 回 放 是 不 是&#xa;新 场 景 / 错 误 场 景&#xa;y e s&#xa;未 有 逻 辑 变 动 的 池 ⼦ ⾥&#xa;判 断 是 否 有 相 同 路 径&#xa;清 除 同 路 径 原 本 绑 定 的&#xa;c a s e&#xa;将 路 径 绑 定 到 新 c a s e&#xa;将 本 c a s e 所 有 m o c k e r 从&#xa;R o l l i n g 移 动 到 A P&#xa;⽼ c a s e 新 场 景 ： 路 径 采 集 有 变 动 ， 即 每 次 回 放 的 c o v e r a g e s c e n e k e y 不 ⼀ 致&#xa;未 有 逻 辑 变 动 的 池 ⼦ ： c a s e ⽆ 过 期 时 间&#xa;更 新 新 场 景 ，&#xa;更 新 过 期 时 间" style="text;whiteSpace=wrap;sketch=1;curveFitting=1;jiggle=2;" parent="WIyWlLk6GJQsqaUBKTNV-1" vertex="1">
          <mxGeometry x="-140" y="1700" width="1030" height="470" as="geometry" />
        </mxCell>
        <mxCell id="GbRqIvFZk893x_S-Il0t-6" value="将本case所有mocker从Rolling移到AP" style="rounded=1;whiteSpace=wrap;html=1;fontSize=12;glass=0;strokeWidth=1;shadow=0;sketch=1;curveFitting=1;jiggle=2;" parent="WIyWlLk6GJQsqaUBKTNV-1" vertex="1">
          <mxGeometry x="60.31" y="580" width="240" height="50" as="geometry" />
        </mxCell>
        <mxCell id="GbRqIvFZk893x_S-Il0t-18" value="" style="shape=image;verticalLabelPosition=bottom;labelBackgroundColor=default;verticalAlign=top;aspect=fixed;imageAspect=0;image=data:image/png,iVBORw0KGgoAAAANSUhEUgAABLAAAAB7CAYAAABkQXmrAAAAAXNSR0IArs4c6QAAIABJREFUeF7svQe4XOV1LvxO73O6eq+o9wLqSIDo1YABA8Z2Eic3Tpx7E6c7tzxPbvInuc69LtgUF5oNGERRRQIJkIR6Rb3rSEenTu/tf961Zx9G58ycmSNmBLL3vo8efKPRnj1rf9/61nrXu96li8fjGaPRCJ1Oh3JdmUwGgUAAwWAQVVVVcDgc5bo1UqmU/OFlMBjkT7mudDot9+bz0x7ltAvvyXvzO3hvPrdery/Xo8t94vE4Ojo6YDKZUF1dXTbbVNIufO5kMlkxu+SuF9qb77ScF+/v8XgQi8VQX18Pi8VStttfTbtwPZbLB3Ct89krsY9oXN43HA7D7/eLb3G5XGV79q7r5VqySyXXi7pP29vbxdY1NTXiZ8pxVXq9qHbhs3L/l9Pv0jfy/rx433KuF96T9/f5fIhEIqitrYXVai2HyeUelT5LK2WXSq8X2ob29nq9sNlscLvdZVszlVwvXWOMcsYvlV4v6v3b2trEv3Otm83msqz1a9kulY69eH/G6qFQ6PcyVu/qS1T/rcXq3bdepXOYSp5Hqn/5XYjVy5nDVNq/cM3Qt9DHOJ1O+VOuPEOL1Qsfj4y9eJbSnzFWL9eaqXTs1dscRqcBWJ8tgkpu5ko7fw3Ayr+ZNQCrNLuUM/GutJPTAKz877S3zr+32SHvrwFYl1utkoCEBmDlX6GV9i8agFX8zCh38VADsPLbvJIxqepffp8BrHxW12L1wn63ksCeBmAV97vlLsJX2r9oANYXF6trAFZvM5zs5zUG1tWvXmgA1tV3/r9LVR0NwFLWj1bV6bmqowFYGoBVSlhQSWBPA7BKSzA1BpZiJ42BVXjH/r4zsDQAqxRvnn8flbuLRAOwrn4OowFYX0yR7GoUmzUAq3TfdtknNQBLA7B6s3QquZk1BlZph6IGYGkAVrE9qzGwuluokkANv01rIcx/llayRZnfqLUQdrf71UgwtRbC7gB5pWQtVP+iMbAut7nGwCoNINcArM/sdK3mMBqApQFYxeL+3L+vdPGwt/tIayHMeTuV3MzaoVh4m/R20fZmw2kAlgZgfZ71ci0Be5XcR7ShBmBpAFape6mSwF6lgygNwCp+ZmgthJ/ZqJLAXiVjUg3AUt4hbcwrV5unkq1y/K5rUa+20jlMJfcRbf67oldbLj0jde1XEiDXWgjzn6VXI1bXGFilRqtdPqcxsLobrtLO/1o9FNXEuFLi9hqAVTwZKbf4dKUTTE0D64s7FLUWwsttX0mgRg0wNRH3y21eaf+iAVjFzwwNwNIArGLpQSUBiXIBe/QliURCwA1VX4j/1QCsq5/DVHK9aABW/t1arn1UyBdoANYXF6trAFaxE6rA32sA1tV3/hqAVTzoLrcA4u/SoXgtMY00AOuLOxQ1AEsDsEoJCyoJ7GkAVv43cC1rPalnqdZC2N2/VJIh8fuugUXbskAQjUZlwiunjvK/GoB19XMYDcC6+jmMBmAVPksrKVOgMbDKk8NoLYQ5dqzkZtYYWIXTnkpuZo2BVdqhqAFYip00Efee96kGYGkAlgZglWKBwhVvnne8KsF8zU28NRF35R1cy8BeJWNS2ub3HcBiK9/Fixfh9XrhdrtRV1cn/9UALA3A6o2Xv1ZzmEr7F42BVR6gpjdrkZ/letQYWL21WvbzGgPr6jt/fuO12FevbjathbD7mrmah6IGYGkAVjF3r2lgdbdQJZlGaoKptRBebneNgZV/p17LQI1aPNAYWN0Bco2Bld/vlsMujJkbGxvh8XgEuGpoaEBVVZUGYOVxMZUuwmsMrPx+vZJFeA3AKnyWagys/DjGl8kuGgMr5x1VcjNX2vlrANbVd/5q0M3gJxaLob6+HhaLpRgOUPLfawBW4cMlHA7D7/fD4XDA5XJdJsBasoHzfFBjYBW2ngZgaQBWqXurksCeBmBpAFap65Cfu5aBvUrGpCpA/vs8hVADsErfSZXOYTQA6+rnMJX2LxoDK/87rWRux2/UGFil+7Vun9QYWPmRS42WfPU3cyWrFxqA9cVULzQNrKu/j9RDUWshvNz2lQRq1ARTY2BdbnMNwNIArN6EpxqAVdhaWguhxsAqdS9pAFbPxb1rsYtEA7C+mBxGA7DKk8NoDKwcO1ZyM1fa+fNnaC2E3TeFBmCVVtXRWggVO2kMrJ6DNA3A0gCsUhKeSgJ7GoClAVilrEH1MxqApQFYhSygMbBK30mVzmE0BlZpsTq1Dct1VTLn5TNqDKzyADW9fd8aA6u3Fsv5vMbA6m68Sjt/DcC6+s5fBTy0FsLLbV/pBFNjYH1xh6IGYGkAVimhgQZg5bdSpe2iibgXj72uJXH7SieYv+8MrEQigUuXLskkQkoR1NbWwul0ahpYedxXpXMYDcC6+jlMpf2LBmB9cbG6JuJeSqRawNGxrz4YDIogInVqynVV0slVcjNX2vlrANbVd/4agJXf5hqA9cXY5WrQkjUASwOwSjnLKw3UVFJIlL8vEonIZDKbzSbizpwYWI6r0nbRACwNwOrNOv19B7D4+5mnUMPUbDbLfjeZTBqApQFYvdlGojmktRDm972hUAjEAwgM849Op+uVbQt9WOuWKGxGjYH1OZaYxsAqHkSxZatcQbH6bVoLYXe7ay2EpQF7WguhYiftUOz5UNQALA3AKiU0qDRQowFYxWOMa4lppPpebQphd/9Sjml7hfbs7zuApRaWaWPG42ocpOnVFvcv5c5hKklO+F0qNmsthFqsXiwG0wCsYhbq4e81AOvqO39+owZgaQBWqdv2WgZqtBbC/G+5klVAfqM2hbC73SsJ1PDbeH9NxP1yu1ea4clv0xhYPZ+lTF75p5wXzyQNwNIArFLWVLm7JehTeJEdonVL5H8DlbaLBmDlt3sli/Dl3kddf4HWQvjFxepaC2EpJ0mez2gAlgZg9WbpVDLxrqTz/12q6mgMLK2qU2zPagCWBmAVWyPq31cS2NMArNISTI2BpdhJE3EvvGt/3xlY+SxTaaCG33ktFpsrbRcNwNIArFLjCzX34prhlcue7M09Cn220jFGJXNe/iaNgfU5VoEGYGkAVm+WTyU3swZglXYoagCWBmAV27MagKUBWMXWiAZg9WyhSgN7mgZW8djrWgL2Ks2Q0ACs4uul3K1yGoBVPCatFMPzd2HgktZCqMXqxeKw3ysAq5zJKzIZpCIRBH1ehMMRuBsa4HC7i9m75L9XA7Rc1LXkf1zkgzzM+YcAHKnEZbVLFhWt1L350zhRhRo1FKOkeH4uxT9DpDqRQCaRECvoTCboLBZypouaT628FHr2TDoNHe2m1ysCfT3dk1TtTAYkbKufzdUzIZJeTm2wSq4XGo7rJfdQpO3LdeUmI+W2ixoYl3UfZdLIxONIJ5JI8T0bjdCbTGXZR0Lx59pNJgGTEeFoDP5gsOzCkBWxS3ZBdO4j7hedTta5nnshneZCkn2jY1sO/5SwL7mP+O8yyaT8Sev1yPDfZdt79GyHyP6djvuf45e576+w9Udt8eFz19TUoORAis8Yi8mzwKCHzmyBLmcUdDH/8nn3U64PkGSENs8+j46+3moVu+AKhLoruV74ftOxGHweDyLRCOr69oPFZittbZRgtG52uYLfX+hrutqFa6Zc4q2VWi88GzPRqNg3lkjAGw7D5nCUXcQ9t2p8RXZJpcTPyv43GOQs59qtlF3Ud1zJ9aKepa2trfJ1nAZHMW31kriFf+g76TtKjF34b9KJBFL0gwY99CYzDPSBpfjXQoub/oPPkkrKJ1I6vfheNWbMG7/kvjPuM7O5eKyUjS/U9VKJmFQtNlNomTGj3W4vwXOU9pFKxl7ljtVzWwj563Jj0nLnAcVi9dKsm/9T5bZL12+ppF0quV5U/9LR0SHst/r6esmTynVVMlavpF0qfWbkyn1wyicHun0u35vzwioZe1XaLpVcL3ImZdvx6buqq6slVpc8g+dgOiXvQGfMxry9OAu/bHbRRaPRzBUFUQV2fjoUQnjLFgRPnkTSbEbtggWwjx5dLj/RCTDxhmoSWK6b8+VwU6hXOe2iOlD1oCz3vdVDkWAKF+tlAFYmg8SFi0icPI748eOSyJpHjoJ15gzobcUDloJ2ySbfaZ8PKa8PeocDeqcDeiZZ+ZIh2jcelyRBl0wBNiv0dvtl77TcdlEByR7XS1b/4ErWEe/v9flkik1dbe1nh6LggsXBwZ6+s6Rnv5KHzgbGuUGbOLReOLKuX0vnmAmHEDtwAImmS9AzARk+AsaBA6BnkvV57k1wJhRC8kIj4mfPwTxyJBLV1Qgmk3DyUCzjZJOuNv+8dsm1k+wjJjJcbwRzIhFkAkGkA36k/H7orBYY6/vAUF8n+6LYlYlFkWxpQaLxAhIXL8I0fDgMAwfCUFUFPYOzcBjJixcRP3UKqfZ2mIYMgWnYMBj7978MQCr2Perf81BkAEibqIdisX8r6yIYRPijj5BsaoKhTwOsU6bKs6gg3dX0u6Jx0tqC8I5dSJw7AyQTsF1/A8wjR0Nf5e41uJe7XmiLcvqvdDCE2MkTCJw5g0QqiZoZM2Ht30+S8JIAziIvp5L+pZLvtPu96bs+x5RAnmM8I0+eQHDTh9A77EjV1iE2cAAcAwbCVV1dtqLK57ZLOo1EUxOiB/YjE4nA2LcfrJMnQ0d/kdXvqVSMUcn1ogbd9C98fgLkAmBlz+bY8WOIHTqCTMAP87DhsE6dAp3TWXQfxPnvjp9AJpWGoV8/OTuMbtcV+T91O6XDYcSOHUPy0iVmCjCNHgXD4MGSEPCs6wZgZd9Z7NhRpP0BGJk8TxgPA88tJhE9XJ97vRTxAbw/p/CpABan8JXrquR6KZddeB+CMjzbVKYV/5v77OX06aptWWxmrM41zimn5dKTK5ddCq2BStqlkutFzb84WVZi9bq6sgJY16pdKr1eVACLPobgVbkBrM4chtlWmYtkVwsLKDeOoZ6lJLPQd6mxetrjRfzcWaQ9HmSMBphHjICxrh465gol5meVXi+99QG6SCQiAFa5LiZKHT9/HoEdO2BoqEfD40/APntO6bfPgiJcjPmMSgN2TbxLv3nPn8y9t5qMlOvevE/u/ctp89xDkQ6ahyLR7s5DkcH52bMIf/IJ/GtXIx2LwzFnNmoefhT6hnrZ+AUv2juVQprILSvUySR0/G8opCTeXi+Sra1IeT0wNvSFeeQImEeMhC5PIJRJxJE8dx7xM6eR8vlgHjoUlgkTkWFFNfsMtAvZEelAQL63VxfxIoNRkn89WRVdAvpcMEKYQqEQEmfPINXR3quvyf0wE/RwOIwEwRSnU8BDcaQWK4wDBsA0eMgVMTu6rpdyAild7y2/JxIRgIHvVE0aChmFDs84aDD0bnfn2uH74hoLrF+H2OkzApA65s+X5Eqfw7a5EkOnfX7Ejh5FZP9eRA4dhnP+PGTGjEXMbodVp4MlmYSegCg+A59L+h6LFYbaWlkvwmLIt17IyiTQFI9JEoQM/2TvrrIJ+X9LZ9lQXLP8XFr5byal7BmpfAgbIK7sI67xUFjWedrvR9Lvl8SZyZl91myYBg8uymSkr43s3IHI/n2Inj4N55IbYZs+HaYBAwVEztBuTMo3foDogQOwXHcdHPPmwT5rFnTW3icqDPIZdHMtEiAvhYHF3xc/3wjfr19G7OQpWMeOhfuuO2GdNFlhmmWvrsFCSe+vxA91PTOSZ8/Av3IVwtu3Idnegap774Fj3nw50OUw78XV7czgGmIRpDegOP2WTt/NDxOcDL7/PgL790vAUXf3XbCNHQddmaqYV/Ms1TFJbL6EpMejgLelXEYTDA6nxBF6l0v2Q6qlBcm2VmGm8Xwo6BcJyJvNMLirBTQVtnGBS/ZlhwehrZvheeVl6KuqoR87Frr58+EcPQbOMgNYavxC8IPFnEwgAOh1MDCYzGEd5Xtc+o3o/n3wvv0WUh0e2CZNRPX9D0JfVyvr5/PEGEqFNoF0JJr3HXXeW0jWOvD/XfGVXfPC0rXZBFCiD1ABLAbduQBWaOMH8L/3HlLNLbBNmQzXbbfBOHgI9D28V+7B4Jo18K9dI76GvtF541KY6usVxuWVXAQ82toQWLMKkf0HZA1W3X47rDfcAJ3JnLdYw1gjum8ffKtXIcnnnzAOVffcB0NDQ/H3nRPv8nHLHTfynRK8YgzDmLGcANbV9C9XaheeaUyuo9EoLBaL/H7+9/Pso1KWFQGsvLF6Kf+4h89cyzlMJdcLTUb/woEoZGARIC8nA6uS66WSdrka64UDUVQAiwzPfMVsKXTyTA+HkA5FlDi7yKU8u/Ih5Ti5kvOIcYIJhurqbjnr1YxJ8xb4WfCOhJG62IRUKFjMHJf9fTqTQSAaham2Du4hQ2C0WpE4fRrBjz9G/OwZyY9dS5dJnkbSSW+6D75wu+T80k4A6/MwJHItl2xuRsv//mf4P9gE87BB6Pvdv4Bj4eKiCJ+ygKPIhCPC0tG7nFkmz+Xsjd4idL156+pmrkQFs5L3Vn+jWtUxAnBZrdIqo+zwjABNTNg8L76I2LnzcMyaifpvfxumgYMvD+7VNqYsoMRqI4GeVCQM/m8Brvw+JC82IX7mDKInj0sCzgTMMmIknAsXwrl0GQw1Nd3eeToYQGjTRvjXrEXs5Em4b1qG6kcfh87lFEq9GqClmpsRObBfgIPeXAzgyQJjldU0cCB0BiUo7gp4cq0zkUqePwfva68itH27BNDSVllq+1b2wXhvZcx1WmmVSyTFGZjqG+Bavhzuu+/pdVLMW1d6vVxml3QaqaYmBNasQfTY0SLAoQ7GmhpU3XMPLNeNBVhB1ukU57jxAwQ2rBc2kHXSFLhuuRm2WbO7AVjia1ipZuLSUyKRBU8JMvreflveU6LxPKruuAP6WXMRJ/h0oRGGc2eQ8QWEGtuby9SnD2wzZ8I8dBj0VVWdCaDqoOU5YzHEz51DsuUS0oGg0uqXVkB0vnMBq1JJAXgRTyhAl7RRJqjUKglqKhRS9g33EQ/oWEwSxc8wDmWfGlwuWIYOR83DD8MybXrhFhMebIkEEidPwvubVxDatg2JljZUP/IwnAsXC/hlILMxHJJ34fvta/CvXgfz0CGouu1WuG6/A3qnAgj0dHEvSLtOFpRVGVhsTazKrRr3ANYQ1Azt2gXfijfBs8Excxaq778f1qlTOw9N8VCdvqpIkqa2KEsCrWCJmShtHi34UzJ8X1nUke80deEigh9uQnDTJkSPn4BzySK4Fi+BbcZM6O0lAnsEnLj2jQZkskCcWJNsQZ8XKfrKEkAs/hy9xSpgMP+b639oO8/LLyOwdSv0disa/uAPYZ0+HQa3slY/71XJqnFupU5Yb34fghs2ILxnr6zLogAfW/gdTmEVOsmQGzNa1iuZfKGtW5D0epCJxQuagHY01NTCOm4cnAsXCasx70X/7fMhsmcvAh+sh2/FOzDW1cAwaTKMd9wO59ixcDpdn9veUtSwWaXAouLfPDf5juMnTogftM2YLhVRtfjS7Xn5rB0dCG/+CG2/+DkSl1rgXjgfDd/9SwHp1H10pfGLBMteL+LnzytnepdLfB4yAlzJ7ruSfCF7T+UMMMq6t4wYIQmECpBzXXYysLKfD6xeBe+bK6T4ZRkzGu7b7xCg31BXVzghisfh+flzaHvuOWE78dyoeuRRGPv0vbKiSpZBy3fW8fyzCG7eDJ3egIY/+WM477hLaefsKoHAd+b3I7TxfbT9/HkkLjXDvWQxGr7zXRj69pF/39OVGweoYG25YnV+L22dC2CVs4XwWojVGTM3NzfD7/dLAZLAKYG8roBEOW1OuxNEUQGscjOwKvXsVzUmzXYElNPu0i1B/xaPS4tyuQCsq2oXNeZkHMozhbEH/3uF8UCln533JzhejIFF8IrgfvzMKcTPnVfi52KX6NAQ6FIPot4dSPJpvV7OHjsLvywa5+R1ldpHqt/t8ZzmWZtMItl0Ef7VqxE7c/azwnkxuzAm1gNJuxP2aVNRM38+jFVViOzZA8/LryB67AiMNVWoe/IpWKdMUzoPSlw/lV4vvY1JdbFYLFMu+qrE75cuoemf/hG+tRtgHTUc/f/mr+G4cVlRkzO5E5r40aNIXLoE++zZsF53HfQM1rtU6vkj1cP8Sisv+R5IDbr5X1VvoOiD9+IDCtCh3LsStGQRWW5pAdrbYG1vR4Z0fAnyqfkSR+zUSQTefx/xCxdhHjYE7mU3wdS3nzA/1ItVRGNtLQxutyTokb27ET11Cmkm52SPxMgeiSDl9QtzKdHSKm2I5gEDpbLonL8AzgULoCeA1eUiu8e/ahU8r7+G8P5PUfuVe9Hwx98BqtyiaaHaJbZvrxKgt3f0wrqA3myEqaGvVETtc+YKcMS1km+9JFvbED9xHG3P/hSBjR8Jrd/Uvz8MNdW9QqP5PhkEpdMpmPV6JNnO1doKU9++qHvoIdQ8+fUrArBUJ6c+e7nXi2oXfg/1kRKnTqL9uWcQ/GQ7MgTherhM/fqh33f/XLExK+A8pLZ9gtbnnkNk3z6kgiGYhw2FbcoUWEaNliA9FyvRWcwCgtmnTYOx/4DC35ROCUMmsns3Ol55CZEjR6XC3fCtb0I/9wYEIhGkNm9GZsd2AUeE6dSLyzJqJKrvuBP2adOlrY6HWdf1kvH5ENqyBaE9u4RBhHSyk+ilgC6KfpUA8GRfieZUSvnfontCUCuuAFvyfDroTEbRXWJSxX3GA9RY5Yaxrk7YU8558yVxLwgwpVLCegzv2IH2l19EeM8+Af6r7r8HtqnTP2shJJgSDsG/bh3869+HsbYazuuvh3PhAmGm9Fh10ethrKmFqV9fGPv1Fd0q2oajeXWZNKrtDgUgJ4DXmZJ3Nz7fnXfdWoR3bJc2L9eiRXDffDPMo8d2Vsxy/S5/s6EHKjhBaa4flTFH20cPHULkyOGCb14FsKRKx6TN70f05EmE9+1F7NgJWEaOgH3qVNgmTVL0sEq4DDYbTP0HwDBgAPT19UoSTaZqWysCZLwdPlR0H8nXGAywDB8Ox5y5sAwfoTCNshdB4fbnn4f/ow9hcNrR9zt/DvvM2dBXV/XKRxX6OYV8Ywk/v+hHup6lmfY2dLzwK/jWvYeUrzjLUxhJVdWwT5yImvvvE7CC+mm+115DxxtvItF8Celw4QIH9xj3tPuGG1Dz0EMwDhiY/5np+xrPw/P66/Bv2IDIgU9hqKmCcdhwGGZMh61/f1iybN6iP7qHDxjdbtgmTZY2tky2WJM4dhSBtesQOXAAOptFwF3n3OthGTcu/50yGQG7Au+vR/tvfiO/v3rZMvT58+/KGuT1eWIMFqUiRz5F6OOPETt3rtszKHisCr9lNSw/h1HY5mwePAQ19z8A85gx4l/Y9sC1wwQzl+EZ2bUTgfXr4X9/g+wZ95IbUX3vfcKazOfHpL26rV3OtLbnfwHTwP6oeeABVD/6mBSXSg3Yu/68NNk6hz5F23PPILxvP8z9B6Dum9+E4+ZbxF9306pMpaQAEli3Bu0vvyJnQPXyW9Dw7f8CfSFQNedLKx2T8v6VbCH8ssfqjN0aGxsF2CCrmK1l/O/n2UelbAl+L9mGql5tufKYSq+XStqlkucR3wnvTwa5qoGVq7FXyjvr6TO5z16xWJ2gRjAoLWCUFyD7lAC+weXskWHc03NXer3wuwmQBwIBAYbZQpjvYnE4dvhTBBhr79zRa/LClbw/KcIYDDAPGYK6Rx6BbfqMzttU2i6lrBfmDfFjx9D606cR2rO3dz+RmEnfPqi+6WbU3Xef5Bbhjz/GpR/8H8TPnoVl2FAhF9lYKO9FfNPVLpVa66ViJLp4PJ4pNpVFErVUCqn2Numh7Kl6mmxvl0Q2uG0nzIP6o/7xr8ExfWbeah2TImnhsdqQ7GiX4CS4bZskZ/WPPALnosUw9u0Lvfkz+n/XUavlNCAXVa6DLmaX3qwo2jBXuK1Sk03am5qQPHwY+n37kCDwFAwoj5lOI0n67Jmz0q5kIFNp0ECp5ueyDthOxYqomcwsk1FaFUL79gpIpepbUZibQtpsDeP/JmhkGjgIlmHDYBkzFgQGRMOnC8Mj5ffBt3IlOl57VQCsugfvQ58/+TNk3K5OAIt2ie7ahZaf/gSJtraCa42BICubTIbozAkgMPGwjxuP+se+BueNN0olu+sUQlWQM9HSgtjx42h95qcIbt0G64jhsF43DqaBAy5rbSr2jpkcR6MRJBJJ2AwGxA/sR+TwIRhr61D/8FdR+9RTPbc5FPiCSq+XXLuwvSdx/Cha/vMHCGzdLgCBdehQGOpqP3PoBJgbLyDZ0QGjy42B//R9OBcsknXAvRt47z20PP004o0XZa+zsm5saBBwRsTJcxg2XHuWIYNQ9/AjsE6ZktcCfJ9MFiKfforABxvgXb1agGzH5Cmo/epXkRk3Ht7GRqS3fQLs3wcCkpmsqG7+E5KC2FEkOzwCkBNgckyfioYnnhRQgH6G9++6XuDzI7T5IwS3bkX44P5se1hWL0zoMwJJKeLpnTpiCjtBR8FyVuUNRqU6bzQAZqvsJYPTAYPLLQAWWYNMqHjIkA1mHtBf7JcXwBJacUSSXv+6NfCSzXjmnOwT+8zpCvMwtyKXySB6+Aginx6CzmKCZegQYUoqtOHC1X8yr6wjR8E+dYqSeLvdymje1lZkWK0mi6atTdhlPZ0HkU8Pwv/xx0hcbBKGmYOgwIQJMDb06WROKIeiyu7oWUfKWF0tNjL26SOUb/oB3ztvw/POuwW3qjDlVAYW3xVFnYNBJJouInGxGXqHDeaBAwU8LNbCpX6JsaYa9smTJQAwEXCgzXnf8+fQ/uILCHz0sSK0XewyGeGYOhU1994H2+Qpch6qVefYqVPCHvF/uAkGlwP9v/PnsM2eo9DdS6yY9fT16vRXfkY9j8pV8e66j9ItLWh9+kfwrHgbKV8AtrGjYBo0KP/jpVKIHD2KdCQG57RpqHv8a3AuWCg27viUsJiYAAAgAElEQVTlL9H20ouINzcL6GseNEjxr9mzhvua50b8zDlZI9VLlqDuG9+QILXrRR8j7CsWTH71SwQ/3oKUPyAFHR0ZmX3qYbQ7YCADsdh7LPL33NM199wLy8RJQBakjB89guC77yKwebOcZbRH9fLlcEnc06ebPiV/W3jrVvjeWwffhg3C2Ku68UbUfe1r0FfX5Ii4s8Cnzz88Q1yTTpiDYrecdURdp+CWzehY8YaA9QQQ6adY1FLbqzv3UafGY+8tQz9Mf8DfY58wAf3/6q8EoFSFZ1l9r3W5YOSziV+AVKIJOLe/8EvEzjXCOXMG6h57XEBncCgE7a9XhmCwcEV7Ro8ehefXL6PjrXdhvW4Mqu64HVV33A1TTU1BTUb6aP77fExsrhe29Ya2fYL2V16WQpVjxixU3XUXrLNnywrouo/YTRDeuQP+NWvg2/SBxEo1y5ej5isPCuu32FXJmFQJC9OSXKoaWIUSzGLPme/vr4VYnWDG+fPnBcAiE4ri3mRhXY1YnQAWQRR+X7lIBJVcL1czJmVeV27xfJXhSQ0svme2ipbjulp2EUYOJVgOHUTiwgXpcrGNnwhLl1i9N7+pkuuFz0HbqAAWGY78ky/GoL9mrBjavBnBHduRjhbvvlHYQPySNCgzQtwgHY3J+W2orpICsbCZe7r0BrEfc0b7zFmdn6ykXfKtl25SCNlBIWQce157VYr36kVbkYSSpO40SRsDBoBx8WXMbZIpqtxwzb0BdctvgbGqGoEN76Hxn/67SA/YJ01Av+/+hUj4FBrqJHkEc/0ss1g9L64WRqIWg3qKSUsCsKSyHIkgtPljND/zTI8aFmTqCEji8UjbAytsRlaM81wMMF1kGwwYiGRHGzpeeQVhqYC60O+P/wSuZTcLkyVXv6LroVgux3+1X07FAKwLFxDdsgWpDesR338ASa9XSTC50ckSof4OW62kBcYoSXZuEMvEzMbEbPxEmGpr4Xn7LUSOHJEEQPStBg+GubZOWFrG+jphaAgIZqOOkPkzdkSeBIsbz7/yXbS/+qq8ZxXAgtuFTJaBRbtQeJrsklQPOlhMQAluECyKnz4jTBfLiKFwLVqCmrvvgn36DCWQJfCa1dLihlCrugxEowSwnv0pQjv3wD5+gmhr8PcJ4FDipTroRCIOh9GIyPZPENqxUxhGBLDqnnrqiqsjaoKpsgHLVaXjT+sGYB07gub//AHCnx6CeeAQ9Pnao7DPvb7TCvHTp+D57RsI7NqBTCiCQf/9n6Q1h+sptGMHfARTVq1GyuPrTI4U56eXtSfgUjwpa5GUVduY0ej/3e/CfsO8vJZm8i/tb6tXwbPiTUSPn4L7xoWoe/xJWMdch5jTAV9bG6z+AKxsb2VbXg8tW3zO5KVmhHbthHftWmFEuRbMQ7//8h1Yxo8XEF00drqsFz1b9RrPS6tZ9Pgx6LiP2GtPVpmAUwqFW5m4aFSSH5kGqBdgmGCdnkAVk2KLBSkCKGwzMehhZGLIJJpT5g59KgAP956huqYway/7ed/qlWh/+WVEjhzPMlEySss193SXnJKad6RoC8CW84w9LXFWZZzXz0HVspvhWrJEGIoCYLW0yCAI466diGzdqlCbe9CqS0ejSusx2Wd6to1aJXGWPZZ9zstaKflQ2fbAfM9nmzIRNXffC8esWQJQMAlu/9nTaPrPH/Xwcz5jjciXZplzMqFRWn6ViSzSLlmimCX9nmvhAtERsM2bpxzybCVtaoL3jRUI7dxZEg2eCTMBvarly0UfjECh+gwU32cxyP/hhzC47FkAa64EZ+UAsCp9lnK98BJdw5YWtPz4h/C89Y6sh/5//h1U3/+VvO+MrWxN//LPCG7ZBuf06ah/8gk4FiyUvdb+85+j9YUXkPJ74bpxCarvfQBmagnx3WX16oIff4iW534OvdWC6huXov6b31SGBnS5+P4J2hAQ8q58F9HDR7PrQTkTO9szeo/RdPsuy4jh6PtHfwjr9TdAX1ev+AwOpjh1Et7f/ha+jRuFMeSYMwfuG5eg6qabYBr0WUuDJAMEa99+G941qxHet0/2JOMnfpbMPTUwJmCrnhl5xe3pf+x2sIU6V/ONIuOBjz5Cx5u/FearfcIkKUYZ6Y84aY/25b1li7Jt5cp0sMie865ZhURTC+yTJ2LA3/2d6KSqABZB8Sq2VGc1NwXaph8+dw6tz/wM4b37hTVZ++CDsE2ZKvuB+1oKanYHGMOwFZJ6H95V7yCwZTtsU6fAuWghHHOvh4mMhQKi//R7YhertfseS6dF+sC//j143n0HerMJ1XfcDdv118M0apS8c8YvuTEp42bfynfhXbtG1pp9yrQsSLlItOyKXZVMpNSY92oBWF/GWJ0AFhlYZOYQwGpoaOhkYKnssUrF6hqAdfnqr+R5pMa8uRPDywVg8d5XI1YX/cPt26Vgx1Z86/ChcN96O5yzZ8NMxv4VXJX2L6UCWPxtLErFT59G/Py5ktjrKouJ52L00EGEPt4shWzzoAGwT5wM6+hR0i7e48U4vLoajukzLiuo8blzJ26Wk8xS8nphvh6NgmSLVI6cTuzQp+h4620pYhvcTtTceZecK8b+/TrJF+wI8oVDcnbXUq9Yr4N/9Uqc/8u//qx4/81viQZWoYv5mwBjLLBnY+MvhV1yHrhXAJZ/3Wpc+F//LCinaMHku1TR40RCYQLYrEoFL89l7tcXznk3iHFi588htGu3JP6ueTeg+vY7YJ04SRLAXLHfSjq5Sm7mSqP0NC8P4/bmZqQbG2HhtIEL5xE734jYhQuwkGFQXw+2vuTaM+npQLy1HelQUBBr85ChwqSiRg7ZNmytiDc1wXnDDbDPmgnLqFEwUliXLUREullNViuWRRxoqQAWopyu1ioJoAjLZi+2LqXjMQFIw/v3IbR7F2JnzgDRmATCrIY6ZsyAddx4SW75O4sCWM/8FIGPNgsQZ+rfTwmGe8FukBbCGFsIkzDrjYifP4vkpRYJgq9FAItIv2XoCPT7oz+EY/HiTtsz+O544UX4tnws1Y5B//R9WCdMQvzsafg2vCcMJVbGrSNHwjpurKwjSQKI9ZAFdOwEQvv2IcYpggMHwj1/njCpuMe7XtQPSjaeh/+D9xHYtBHRU6elna36tltR++BXoatyIZpKw+/xwG40wsGWnByGV/cbpgVQD7y/Af5NHyBy+AjsE8ajatkyuJcvh6nfZ6y7bow94r58nuZmxM6eQbLpkqxL/gay7IS9qILA1EC+dAnRE8cRbyQDpJ+AE/aJk0TTj1pJqawmGxNMMgziJ08IZZogIO/lmDYTjrlzuiWv8puEMeKVKhUTosDHZG4E4Jg6Ce4lSxQWk7CN2Mry2VRJtrBEjp1A9MwZGOtqYZ80ERYKvfeg90SAiZUdy4hRMpSBe10FsKi9Zdy/H9FdOxG/cCGvZlqGrETaioKcDBJqa2CglhB1gPLsr9z2pJ4qLvZx18nZYJ86DQa27mXSCG7+GIEtmwt6HwY4DI4Y9CUvXoKpf1+4brheYQcSgEylJfCJnDqF2KnT0q5HMIk+U092aJ6L+kyWYcNhHjMWBgaPBAVoeU4oO34CyeZLipB/sYugem2dMkGSzJAcTTgGc205LYT9/vTPYJ9FBlZ3HyU2U/8U+87s31f6LM0LYL1NACuCQf/496h9/Mn8IUQohMa//R78GzYWBrACPlTfdRdqnngSlr79YDCZlGEj4TD869ai6T/+j4C1hQAsfpaaG8HNH0mRRgCh2lq45s4RZmTaYECEIqhGEyxsWS0R2Cxker5bsoyMQ4Ygw8m/bDfjog8GEN27F/6N78O7aq3sD9t1Y1Bz9z1ShGEArq4Jgjhtzzwj4AnPQGndHzoYluFDsyz1jNLKLNUqXRZg6qKVlhW3t44YCfcty4V5ql6dANZbbwCJlOjCOWfOkrOR61tYKSkFHOtslbsCcI/A7KWnf4TokROwjx+PAX/3t5cBWNFjx2DeuxvpluYsi1EpwImW1M6diDdeknZo24TxcmYTFBd7OlywjRgF+8yZsvc63ngD/g8/EgaqaWA/mDg0hi2/FhM9ZP6YdNAgVN16m/hfFdxLnGcB4xjSXj9i584gtH8fwvsPCAjomj1bJrvqqcXFvex0yXcwTiKoyCEWbc8+A8/q1TJ8wDZqtDA3raNGAgXiYj4Yf5N52AgY+vZDhhIP2bbqcidSV5OBpQFYny05xuoagHX5FqzkecRvqhQDi/e+OgBWFBHGfq+/LkVy66gRqL77XjjnzYNl5MgST/3LP1bJnJffVDKAlSXJ0F+SnMDOlqJXOoVEXNHOCn20Cf6V9LFtcM6bi/qHH4Gp/0BhUhe65EhnfmLm9O96AWrU60sB1KgDPFhopRwJ43+egR9/hLZfvYDEpSbYx1+H+seekIFh0lkQicDU0AB9v35o93TIxOpqDtsKBgXAuvD9/6HkqgP6w0EJlzxSP6oN+HeOG+bBOmGi5Pks6H0p7JLzQksDsAhKRaMIfrQJLT95GulYpGDVnRXteNMlaRPQU+umfx8Yc3Q95Luz4syc1Gbu3x/xixcRPXlKDu2qZUtR88CDsF03Hoba7jpKlXRyldzMVwvA4qFo1OngZkDPKWX7DyCwbStcs2bBOmGC6Dzl6rzEDh1CaN9+ocabBw1WmA39+4GtoEyqO15+GcmAH9X33A3n4iWwXDdOmbR3BQF9qQBWN6ZRlk6ZCgYEIAhxmuL7H4juDdlk7OetZiViwQJYhg67bJpEcQDrafjf/xAGt0vQbK7B3vw2utkUNY9YMaZwXodPxpvTzr0CsPgb43FxUATp2HKXJvJtsQqrhja/GgyskgAsjxf9//K/wtDQV9op/BvWI3LoqDCA3Dcuhuumm2BfuBCG2jqFZEMRx/Xr4XlrBcL798MxeRJqvvIQHLPnwDSg/2eHhkzBSopQr+g7vfYaIsePg0C3a94CuJctkyEBtDWFISm8ypYH9tYXfGds3eUkvGPHRFfNv2WLUG3rHngA7ltvVQTc2e6aJ6nPpbGn2jsQO3MK4V27hGVmmzYVtvHjYezXr3MkO6tI1EUhO8r//nppq625ZTmq7r1XkmJpheFhRB08MtHiMZky1/7mmwjt3AVTQz3cixej9v4HYJ04sdu5S+0mJpltL78iWgHcswRg6u69G/V/8qdK+7MAvjoY2L6YBYoiu3bBv2kTQrt3Cl26evltMr2MbUf5Lj1bCy1mEYIXWnJ2sIHaQsghC9YLF5E6fVKYGpcVM7J7lSyL4M6dSLa0yZ5yTJ0ioCaTuq6UZYUFzsRbaW/SGdhymj/sEB/FiuOwYaL9wEvo48HslBaCAtT+iigi6mRlpHR60aTyvPySJJ72iePR90+/I+xgJpE8+GPHjsC/caOwnUz1dai69XY4pk8XUIOtrDJ0gMwx7scspVrAOIsF6Szo9LnaHtgS7fUixSmg2dbDeGOjJOHBXbvEhvWPPQY72zlpwy4gIJknMtUsp52uWABY6bO0IIAVDGPg3/4Var76aN5HJAh18fv/CP+HHxcGsII+VN19N2opRNq/P/RGk6wh/tvA2tW4+K//VhDAEqCLk9d274JvzWr41q2TloWqhYtQ9+jXpH0vbjDB7/fBarGKf7ki35sdViFMTZNJGGEpAkFZyqGsFwrch8OI7NyJ1l/8AqGDB4WtSp0ksh8JYhmoEanTSQzW8q//G+1vviWtj9LGf1kbjO4yNbrc/5+wDUWLLyHArXvRQvT7i/8qA0/USwWwPG+/CZ3Rgpq77oFr8SJhJasAlspm7so0KrbWcv+eWicX/uf/QGj3XtjGXtcNwApu3YLUq68iefKkTF8i45eteLykvVOGrUjv9meXTgdTQx84Z85G9R23C8Oz5VmytfYi3tz6WRVZfAwFclPK1Cvel6Ce1SKAlXPGNPT787+AZfyEzpaM0JbNwhykuH28uUmZuuzzKyBT334Azw+zwuA09+sH57TpqLrtNikYJtpa0fxv/wbPmrXyfUwK2JpPAFwChgIXP+deulR0WQwDB2aZtborjr0Kfc/vO4BFLaqmpiaZTsd9zuEBZGJpLYTdV0ylc5hKnkf8NRqA1f2dVjLnVVL90loIe3N+dMbqbKlkJ86e3eCQj8CGDUinUqi9+y70/Yv/JmzcUiUhun7/lw2okTg3GhWNcHa7tP/mVVBXkxICtQ8/LBPNI4cOId58CfbJU2C9/nq0eTwwmkyoslqlM8C3ZiWa//0/pcBF/UnGD2RRSziS5kTkGNLRuNKZZTHDMnI4Gh5/Aq4lS2HqqxBCvmx2KQ3AYlJC9K+jXQQpmbCIpk2ei3o4Lc8+i+B2amANQMPXvgbHjJk5n8yq63s8AloFPvpQ/suFRiSZTAL2bVKoNt/iy9tXryKVWYH0zkp0b0CW7IQZNeiWahoDpd7cQ9mx3dkgDFKz7Um9piV3ZZb0UGVXqzoEO9x6vUwpC3zwPjxvr4BrwUK45y8QsWCZEJh9Vt+qlfC8845UB8leYuXXNHyETDsiUMQ2pSsGsLLPro6Vp4i7b9UqdLz+OsIHP0XdA/eKmKm0EJpJ2dfBaFZGUavPJ/3N0RgSFy9IjzQnh0WOHctqlTgEDHEtXgwrmRAUpOdkuxzR/6IAlgS5++GYPg3OGTMEDKM+SKkX32coGEI8EYPLaEbow02if0P9kJIBLDXpP38e/vffF6aPLpWGbdEiWKgXVFcnY1CvKIkq8EMKtRCSnUQGFttdnIsWdf5rMrDaX3wJ/i2bpRWv9r67JVkiyEkAOh0Mi4MzNtQLwFDzyKMws60imZBWVv97a4UxxHa2mttuRf3XvyFAqbS9ZS8mlaym+Fa9A9/adYi3tsgkMeesWSJGaBkzRtYu11M4EoE/HIbT5SoMYGWrOhEyHN57T8Sw+R3UdKp94H4ZOEAdpZ7WS6dm2vnzMk3Pv36dMMIckyej6pblsM+ZLQelbCeCb40X4F+zEm0vvijfVX3LTWj4oz8RNhPBEgGwmGiHgkgdPwH/2tWS3DApci9YgLpHHxMtJNrxM8Ok5d6cvkbtGyZ4sdNnRCOI7oA6VdzfHJ3Leyv99PrObrjYmdOIHj0mwtdcS9R6I0uAvz3fJfp4gwfDOn68AEWqHxYAiyLu8QTcJiMMagKo3kTt27/QKKwyz9tvCxvR2L8v+nzjGyJSLa2aOftTDXJSPEDV4Rki+p+f2iHi96Q1cxxz9j6SnLONkf6GraLtbQJUkX4tOmyDByHReEEE0cO7d8M+ZSIG/PXfCMOB7FEm9dFPP4Vv3Vr41r8ngCmFpe1Tpso9qMvIdUrBaDJXZGqLtF8bQLjwMkCCYEVvzwzew+NFYNMHykTJpkZ536lwBPHzF4UJqzPqhRkr7YNqmygZd1KpzAhAWPvVR2EaNKRkDb9KJgz0i3kBrBUrkPIE0Oepx+G6ZXne9Uebtz73rLSZF2whvFIAi4C214vY6ZPwvPoqAls/EbCTjBkCDxTzJwgYT6VE3JptJpzMdiW+VwaiELCorhEmH98b92gyp6VdWCnCBuPk3QPwvr0Cvg8+EG0v9403ovrW22AZPUZAFvqI5v/vX+BZtUbAFcvYMfI52U/Zs5b3l4uVZbbJcS1yLXV4xE/zHCWrq2rxIjR86w+ElaReRQEsVnhz2kJLZtSoQxmy+6IYgBU5egSmXbul7ZRxCdv2OL0vnUzANnGCMniGwHoOiCstk5ziOmyEDJMhuH/p//4AsTPnobPbYR0/LjsZWbEL1wCZVbQJW5stI4bB1KevaHJRgsBEBnFW+yuwbi1af/kr0I8KcCgt8SnRNFSfQ3RiM2kpyLrnzUfNw18VvxnZvx9tv/wFgtt2yOcJehPIzNeuLJouSQ4CSQjjuPa++2BfsBDGESOU1nSydvMVD/nd2QKAvPpesDEvA7DcbtizZ4IicdZ7Vmfuhi6LfykQ/15x4t3lfvTd3OfUReJet1qtIqzOdc5kmJfY/HNMeuuMZXOME8+KuF+xBla57dJTwKvG8fSdtEt2Ah7zo177xZx7Zd2Uss6yDM+SAXJF/Ejc3mVrtYffURKAldtZ1AtGcycDS9XBY86nzsfrxX3yPb66jziYouIMLMYvWcXQUu3a89KpHICVZNshgZlfvyJ5U8rrkY4HFmir770XuJL8PftjvmxAjWhYt7fBu2IFfOvXSfzPfMG9/FbYJkwEcxzvunWIHj2MqqVL4brvK/DqAJPTCbfRiMSRo5JrtD7/C8FlKNvErgieK5lkQljx8bNnEDt5GsY+DdJhwrO26uZbYJ88FfoaRXf1y2aX0gCsnlZol78jre3iP/4DvGvWyxTCgX/3t3AuvanzU0Jz83TISEcmlIEPP5Rg3TZuvDIRTHpRBxYUFuumUcNDPxJFOhoWBJFtAzKOnAkOq2JFxhTLg2UZZmxdSlA8jjoGVhtMrLyy97PUi0FEMiXVXAbhDBxFk4bgg82GFDLUJO3Upyjm/AX44YS7SESYRtRpEYAmp80k99FyacluHsLc3CvfQfMPfwzbpAmC1jIx4+IVxkM0hvZf/QJtL70k96y++WbUPvSQ9AInSMvcuvVzAVh816yIk1XEKWkUlPdv/EAEuSkSW33rLaj96iOA0ylCrGTsmfv0VRh7PACSCSXZOHYMkYMHENqzG6Gdu+WwY3+zfcoUOGfMhJU6GKRJ5rFLcQDrpwjt2iMtZfZJk4SFJmLbJV5s2wqHQzKJ0GE0IbLtE2GeMAAtGcCi7pLPK06I7yJ8+IgcIu677hKdKQbfJop996K1sdjjFwSwDh6S9dHnD74J5/zPACxObOTkq8D2bUicb4R98iTRnSJLhHRUAZY4NePceZmCV3XPPbARsDDoRfeMI8ep8UIb13Cc+R13AlzLOck+hX3JivC89QYCm7dKOyIZga5586RljGs2ceGi7K8ogEhVFdz9+sFFUesuoIGwLLweSQqpheLf9CFiZ88KM67qlltkpDpbObpe3VoIs4BEqrUVkWPH0f7iL+Hf9BGsw4ai5t57lRbE/gOUhCQ7Mj24aSPaXviVgLSOaZPR8NS3FIHuhgaFak6QpbERoVXvCuuH+lpkfdTcfgdqH3pYPpfLrCDzKnHuPDyrV4p+F+0kiZRMAIT4SwquS+tQNoFV7KGAQMm2FiQutchEQtKkyVRgbzvBm3wXNQvJLnPOn69M5st+TqactreLrbuOued9BJjj1EYCbWtWC+tL57DDMXUa6p94Erbp04Up01VnqiyHogoCNzaK2DNbWsm8I6vNtfxWSUY6nn1OQEjHtEkY8A//CPPwUeIz6KciBw7Ct5psnNWShJIhSLAqfuE8Ola8KWLS1pEj4Jg6XVqUOexBppxmtRL4+z8PA4vBie+dd+BbvwHR40dlaizPklQoLPtKEnTxkzzTlPdKYJ8tpDy/qm5Ziv7f+xsZoiFrsYSrLAlmge8pCGC9+aawVB1zZsI2dmzefy1g7fYdSHq8ZQWw5MyLxxHdu0fak33vfyB+1zx0qPh9sW+Ww8RELRqPwWgwSkJ7JaAkW2ato8fANnGiaJRwrXW1iwqQk53Dc5Kaf97V1IdqgnPWTNTce7+0WUtBadcudPz6ZfEr1rFj4F6wUMBoAcZiMaXlnr+AbEGTqVMEmbEIBc15foYPHYJ1zBhUL7sJVXfdLS146lUMwEr4fEjwLI+RIUzcR19c3J7TJN2KoK6sS71epk31xMBKtLfBRYYT9T8uNAqAHD6wDyl/EDV33Sn6nGSlddWq5H4ksM14KbxnN9p+9QtkDCbYrhsHx4L54qdl8JTeIOAV7RnavVtiRk41tF13HSwjR8E6drQUoFSgnedX889+htjp01IAYLGLAwSoI8orRVH6S5fEhxCgryKL9vEnkGprERCfIv2skFuvGyuVbJFxyHPxudmGz3OKfrzuoQfhvHEpjKPHFASwVGYdCyIE4nkRgGWcmG+QTtevFQDL70fQ54ObAA7jrkRC1g8LHBJvFtIGLFJc7eZf1Pglt/jdU3KfZaXTz3ECtrAYGddngWBhHGeLHt2AvdxnU7+DRWruk3BYKcIzNnc4QJiKduj03wASjFv5uURCEea3KXqW+cT9i7pafi+ZfswH+LxmM/imrriFULWLFJASSs5jV94T84se7VL0Ybt8IKuby3fAHCsViyNN5qjDAaPDIa3bpepGShtUPC6FPdHk5FrlO+U643vIDrri/71HhqcAvUm5RyoakZhC5Cqy+qOFfqIAWB0diEejqG9ogDmXrZztCpJnSyQVsNlqE527UiRFLhuIouZtsai0cBHkltzkCuP3Kwaw8slqdNlvlwHB7CKRM5ITs1OKHyHrvEC+KXYu4gPyMrC6kl+uEOCLsVC6dy881M7euVMKmzwfqpbeLHI3V2pv5Wd9CTSwchYydXKjRw6j/aWXENy9C0ZOTP3Kg1IEZOGG553EDqtWS9zgvuc+hIYMgXXAALgo4bLtE/jWrIH37XfhXrpYkQZg3sJBSNmJvYEtHyPwwSYpiDumTYdj1kwpYhv79svKwZCt9eWyS1EAS5xOIqG0ifQgkqzamtofF//X/4Rv/UZYRw5F///23+BcfKPy12Rxeb3yIqTavelDcHymfeIEmbzD9hkBr2TDKKi8WulWFyM3c5JUeIqaUeTb55V7csIeWz1Y3WLgyGlOortSVatUzLtU/RXB1yjSQU6y84lGDgXPk6GQfD/peea6WujtyiQDHnRymOdJ+sSZRqJIeTtEkJn3EdCGiQdbcVxuWXAZHoAut7TRGOkcuj6TREMEwHgvrwA+/E38bWwrIDDHTUqdBXkeAmw5lUgBsNrbYUgk4TLooY/HRXD00v/7oTgi5+yZqHvsa9Jmx2CX39HxysvoeHOFTOEjo4TUd1Lc2UtMQKX9lV+DOllst3Kw13rUaBjp3AuwDChQzcoln4utEQQ4YidPSIAngeWBA6J1xsqqfcZ0uG64ASArQ07FSGQAACAASURBVATjquCaNVtajRhoJFtbEDtxXBhNbD1LNDeJU6XgOseNO/hZiq6rLJo8z1QQwGpVKrsMcoNbtirvhJMryKbpvA+jAUX4XgIQCT5M8h7U9UjQIJlQqlImahx1dMhkNoIEtfffh9pHHyssyJ3dNDJdpKVZGG+s1kYOHQb0RrjvuA3OpcuUlilO67zCAzDfgV4IwCKYR9ZA7b33yIQ19Uo0NkpyTbFx6pMxGBdBcL1eEZEcPFTaPZgYRk+dAUWL7TNmyLQ7ik4SdOEEPDL8nDfMh2X06G6JNrVRyJQKfLIFiZZmuBcsFlamddw4CZhkot0H74t9U7V1yMyYiZqxY+Hi5LasbSRJ5V70dCB2/Ci8a9bIeiOwRjCA2iNVNy2Da8EiWCeMk73Jd9qZjHQRce9MMBl4hcNoe/Zn6FjxlgSjBNYIhJFhKlMDefAxQT54EN6VChihMxulFaj61ltlAhl9FxO02J49aH/hV4h+egh6VkkWLxZNLvacCystZy0nLzUJ082bnVjG1mompcm2Dgm2yB5wTJosAstq2U9a8bL3iLc0K1NLWlvluyxDBsso+UITWthOy/dDxpTluusuY2D1BGDRPgQ6Pe+8Be/K1cJGo41d198A1/VzBSTIF+xKawIZWOlMjvg0hdWNosUnfi7PVFN1bXJv0tfQTuFdu+H/aJMMeJARyYMGofaxx6Cz2dHx/POyFkoCsB54UKpQFBTl7+HoYSbMAuzdME/eOYF+Dp8oCwPL70d4+3YBcGPnz0sboUzhJPuEbZgWJuLXSUujClAlWltkOg0Te/fSRej/V38Dy9hrA8AyDxkAY31D/lwjnZa1w7VcTgaWtGh7vfCueANtL7wkU0npD8jIZBwSPXVSfC9byUHafTY5JkzBM4AxhFDve7jE/2QLN9xHzuspsq74cLafFgKwVFmF2NEjCO3Zg+j+/XK2kQVrGjwEUU7gk+En+4VdKfp9N92cBbAMUj2NX7yAjMkMAwHqvn1hksEoemlLZZs3YwG2GbgWLkTNbXfANmNmVgBd+UHFACxOhoycOqkwAgVU7dLGl8cusmeywBB1AEXvtAiARaZVjcsNM6f6njkD3/r1ohHGM7LvH31bfKSxrr47UEs/4vOJJh6F+QMffwzreCW2dHIQxaBB0qJsMBoQYwy6Zi38GzbIpMX6J5+Effp0Jain3XieZP2nCmDFz54T4LXhia8rGlnZFsCEzy+anB0v/EomIrvmz0ftA18RYWF2I/C8EtDw9tsVpricFd0ZpuxwCGzdKlNbk01NwsBSAKzRlwFYslY4HCMb9xKEZecDq+iiT+awSwGN+8tQUy0+VAUPO1+R2lXh8yFwqQnBpibYkkmY6HcIClht8pzCIKypgZ4TKemDs4UaKRB5OuRMkbiIzFgO82EhkXuky0AUAYHIBPR4JK4VAMNiUSbx0qepSTLBnnBYiX2ph8NJ04GAxOp6m0WmaTH21dmdyHCSLkHLrMSCnHdZICLV3o5UW6uijeZ2y/dQW4fPS7/Ji7+N/pL2kWIxi0v8TgK17W1IMAYPR0RPkkVVgpcyjVsF9hiDF5pyxt8RjYhfSft9ijQEi9rpjLAxUxYL/NTYszvgJrgbiyrPylZw2rDrhDyZPhxW7id28Sl2iUYVqRYW8RxO6OwOyTNo28vs0qPX6vKXWRtmyIhnLsP3nM1pKG8Bo0nyEJP8qYG+hnlS/sK6MBNjcSkUKH98Ik/Cs41/ZeCgm5oa0SDSud3I8DcQfM8C8LlPJms+GOz87ZQUUVt5ZR0xTmC8wOlzqvB0LghA1tvJE4g2X5ICnLW+ATqHSxJ4rg12iMj6jMUEwJVJ2mR7V1XJIJ5C71p0cLm2An6Z0IxwBBky7JmP2myyduTfu5zSOizrN1/uV+Ad9RrA4t4kUJt9b1LKzIK1hrr6y7seOBwja1OuK12ERAOC4XGJuWlXib9oU3Wqn5qHkBXUfElyHmnDJsjLQrv7s+6prgCWg9Px2tskRmfbGs9EMpR7oz3MfIn+ILiNE3nfA1u846fOwjxsCBqeeByuG5eJJpiqGyW+vJcMyi8NUJMl10QPHxaGPs8srnkWUWruuhu2WbMEG4ifb0Ro62a0/epFGKrdsM2Zg/SSpcIodsXjCKxcCd97axHethMNTz2BqttuFw1XvlOuU7bHe9/8LTpeewNVt9+Kqmze2embs2fhl8Yu2b3SM4DFgICL2+ORBEEmSRW5uDhbnn4agc2fgEFqn288BcesuXKwcFPFTp+SYIqiqfHmFmFruBctgnvxEmUkds6BQLq1HFjcQDmHYiIQkF7Q6I5tArLQKQrAQKBNxiib5N9Zx14nSRgn+4hAW05SSDCFwVFk3x7Rn2GSJwcrp1KxsmixiuPhFES+aNv4CTAPH3GZZo9qCqHnnzmD4BYCLawU8rAiayqtiPvSGVMgfdQYWKdNUwKlunqlenGZh1bsnThzFoEPycw4JptdJhAwSDAaYXC4YB4wQBhrFCuVym42qO4UcT97Ftami9DF4hKwMkijs2cbE23Nf0+EPdHSiuD2TxDZf1D6Xdkywz9qvytp+B2vvSYJFb+L9EwyD3oab8tAhsGlefgwWTOscgY+2iQAlIgle31IdniEYUCA0dhQKxR+2skyaCAavv4UrJMmy2TB4OYPEfxkG2IEH4RN0SAaaXbqeY0eA2MDR43nr2Z2vptCUwg9XsQbzwu4QnFxoYhnJ8qpoaVQ+sMRGctOAI6MMNqG2jkqpV/pWkqIOLeZ4BZLYEYjTHV1Mk2KFM9ifdjCXAkEENm7G63PPIPQ3v0S6NQ+/iicdMZjxsLkvkIdliKHIv9al0wikZ1CGPhoiwjcmocqFNNOO5KdeKkZKa9f9mjtgw/ANHCg2M0+aQqMA/rLb/C8/hp8G95XAguXQ9Y+wROCV0ycqm+/UxG4zQNIkHUQ3rUT0VOn5HBzzV8gFXGuKTJNFArss8qEv4kTYbn7XtROmQJXVkCXz8qAjnsxvH2btCdzqmKirV0qlaL/4nLIQUdWkHPOXDjmzBbBfxU0L8TAUitNFIgmuyi4Y6cETKTr1j36KIwDBiqmIkuspUW+v+3FFxA5fBjW0aPR9w/+EI5lNyFJEHfHdrAtJfDBRglICYrUsdV6zhxZ411b7Bjw8QDzvP6qsPuqb7lFQO3g1m3i+6qWLkH9k19XKq8phVNPdoQKeLKdLvjJVvFN3PvuJUsFFCw0HVZvMEHHYKu2VhnSkA1YemRgMYi7eFHYdqQyh/buE9aBsa5G2GUmFgMK7VW1BVw9lLKJMRMix8zZ0trM9tF8xQP+E7JFY8ePic8UsPL8OaTDUThmTJdD3jxhguzhjmefEV9fCoBV++DDwj7j+wztYevoeoR27RXQlqLZ1NphEGAYOgSZrP/9PAwsaRn0dCiFCyaiAuI0ouO3r4stDdUuNDz6GCzjJkgiyWQtvHcPOn77BiInT0hx4loCsNxLFopWQ76LAJB/00ZhDZYTwGJgziES3td/g7aXXoFlzChULbkRjqlThdnr//gjBeCcOR3GoUORYIJl0MOQTAh7VJLYPgVAt+wPYWLOtcbiCFkj7kU3iii48/q54scKAljZfy+txV4fUm3t0DG5q64Sn+ZftwbNP/6JtGrbJo5HvfiLudL2xrjG85tfw/PO2zDUN8BJwGbpUpirqmSdsBjV/vPn4Vm1SpI0+quae+4X9tVlepjZKYSFNLB8K1fC+/4G8a+MlUoZGkCB3Jq774brxqWiD8XvKwZg8dytra0V5hsHGQgzcsN7SDQ3o9+f/Rmc8xdKa/BlTEMBdZT4kn7Ss3KVFE2qbrkJVbfdCevsmTBQED/bhhfh3nntdQQ2bYK5fz/0+c6fKvpyNbXdlmQngHXuHNyLFqDPn3xHaa3OJqFxjwehXTvQ9uMfSyswtfOc19+A6KcH0PbKr2WCM6UxyH43Dx6kiLfnKbYx3qLkAzXZyPaqueceAbBMuQAWdUiYdJ4+jcDGjYgcO4r4hUaFNcHYlYkk48TqGpj79RetM+uUKQrglwu+MuYIBkUU3799G4IH98sACkoXyFTZLFjL5JVnJfUqyfZjMViKrMEQgh9+AM9bb8nzkMXI85RMabKcuw7QYcyYaeXv+0DYdIwJzAMHwTFzpgwL4FkjZ2w6LQXu8J49wqSVwmc0Kkka7c0CI4E5y7jxsFJAf9AgOaNUBpYkt9TBW7dank10zWbNhmPaDITJ4t+3VwaPcC/T/9R85SsCEHPfEpilXmRw2yeIXWxUJnizpZPsWrKcsuxl86AhUuBhPMx3m3coCXUVT5+W/CS8c7to04jmWjqjsPdq65Ds0xfWfv1hNZCVeEie1Tp2nFKwzJ2ammW5RI8eEaaF2KWpSbFLMmsXm13iYRacFLsMVgDIK9GrFbFon7TVUwogcvAgkl4CO9kJ5sxpSBSw2QWcpkaOFLbr67rtHQIhlJwIfvghQnzvjecVfUphC3KtGgQkYVsw5RgsHFzR0KCwu3JBnkxGBldEDu5H8JNP5B0KoBePCxGAMSnXBYFirkFpGe6i8cncqu23r6Fj3VpYqdc6bz6s141H/NxZRI8cQvTEyc+6XSjBQB2g4cNgnzFb9rR5WP5Jf3wHLDSF9u4RLUO2g2di1O1LQM82Y5td4jruH05NtY27TgCtUq/eAljc1/QJwU0fyFRZdiHRr9nGjZOiB6UQ1Cvp8yNy4rho2Ub27UOGQF48Krma+BESOdhaTZtOniwyBnJmZAs13td+IwOFuHYtI0ZKYU+GldQpa6ErgGVuviQyMiQ1cJ+ahw6Ha8ECOObOLXlaO3OL2KmTojXb8dY7SLW1KQxXajZ94ykBsOiPVNBYCBV2m9LVUKK8w5cFqCFRh/Fs4H1KAb2F6MmT4htEx5bge1WV5MYsYFD+hWc094VxxDCYv/YEnHPnwhkOw/PLXwjYl2huQ8PXH5c8TMTZq6sUUtGxo/D89nV4VryN2ocfUloHp069TNhefZ9f+HTGnI3TI4Almi7Hj4kTY+WCG1Kl2BfafKRgcvILeykNtVUyUZCMH1ZTid4zqGDyJ5UbUkXdLkkU6AjpFDsvinL26QPruAnKKOfaOjko4mwzOn4M4W1bJSmLfXpYFi9bVQgSCfOJ1Rq7HeYRw+CaM1deBnUkJPgkKBcJS0tO8MNN0mrCJJeLQKn4O+SwJNqfiadk2o1l8CBJuplQ26+/QSp2bOdTxWAphO77YANC27cjevS4AFfqhuFUsFQgKM9kHjkC9mnTRHvHNXOmctCryGa2tZKHRnDHdnHSZLIQFGBFTVrqhHark0libCFwzp4juk1saaGQaIItPhcuILZ1CzJbtwhDjSLLDNr5XpTJNkNhdFfJMxJMYstnqt0jh4+AM5xW2H+A/JcJp2fFCmk7MA8aKGCesNlYKconUcP/u6tKEnbXwkViA7Y7sKUocuyIHLZk7ySamgWoMw3oJ2wQAbA49axvg4wE5fMxkGM1MvzpEQG7DA6bgHXuBfOzo71re6Rzy5jwfv2A6mpkmDhT0JkArFC5U0iFg5L8Rz89LLog6nvI/Vmi+0aB3SOHpaVFaQMYI8krE3MG56zSRyIR0TWhVoqRACoPLYdD2rqEwZIFVYWSnI9KnKVEs12CGloEDNkyart+Hsxjx8n7rqgGFkG+s2fQ/uILCO7erVDdKRociUqFJR2JQ+9m61mDwk6srUP9o4/ICFYejqZ+/WUf80CiA2WrW2j7TknEZNS6zYaa5Teh+s57BAgVDbY8BwkPXoIgDJ4E0BwxUgDuVHubwkBasxqeN9+CbfJEmOZcD/3SpahhAOV2SyDDqjUF4MnUYmAeOXIMOotJgFHzgIFKy2NTkwCibEHhRCjnnFnS483ghIdBOls5lqCVVPkumkbxkyelwk82BAFg55zZ6PPtb0sAJwmCtBEGBHDqeP03iJ04AeuoUai5737YZs0G23BkrPobbyB++pS0pTGJ5jhkAaPztH8RbGc1mfsodu4sHDPnyJrseONNaal0zp4u7ddMjkUTScirig4Wr9jx4wgdOIDI0WMw9WkQTTHL8BGdIuhdfTkZhgwiTUOGKAlyNpDsCcDivo7s24uO11/Lire3SkJlqKmSSreiy1Lg1FCGjCmaFkJhT8j0QoKN1bfdJkEX103XCijtQpYmgZzQJ9sQ3LNb/Aurwzb6oPnz4Vx2k7BpoocOof1nPy0dwHr4EThmzxImA7XDSFGn9hjtyACKyTgFru03zINlwkQBrVNNF5E4ekT0zXp70V9xDZkGDlYYIHxvJ46j+Yc/FMF+c78+6P+X3xPWjDCBdTppjW19+qcIfXoAjmlTrg0AawUFyIPo862vo/q22/OaScTKn35agLuyAlhcLwIScBrpJklgmdwy8fGufFdYO+H9B9Hw+KMwz5qDECvxAT/0Fy4ievhTYT7z/KQvEW01p6sb2Cwg2akTwqIhAOleTB2rWxUGVgkAVmdLBoEEHbXRPAjv3AHv2tVof+0NmQhIUKL+8SeEzQPGTMkUWn7wH2j+6TPyfDUPPIDqhx6CuaZWgA0WxFp+/CP4Nm6UokTfb/2BtA921f8rxsDqePkltL+5AvHTJ8V3MEYQ8fMuG1tapNs7RM8wFQih4anHUX3PfWDiz5igVwDWqVPwvfsuvO+vlwmw9VIQna0wETsTXIqw25QJrTu2w/vOO8Kq5vnlXrYEbgbjCxdKkaETwPrkE7S+8ILEbLbRo9Dve9+TQlHuQA91cV4OYC2UARCmYcM7vz/h8SC4c7sCYHV4RN6AZyJBzOC27ai+83ZU37xcGOw8zwolUVybLO5SpJe6sAJgUUBXBbAYw8SiiB05ogyy+Yhx9ikBTIUBo9MjnRXrZ6zHEerOedfDOW++JDIy0TJ7vhAMiB7cj8AnW5VpzidPK+eGSG9YJNZhzAijXmGdzpwpIJYMLmnoIwwN79tvovlHPxEmsGnQAFQtWYzqO++WAST8nsuKQWxlP3kCbc8/Jy2VBKeloHXLLXDffLMAWGRycA0y3wjs3InoocNylgrTm63eZJVQCL+6GpYxo4XhbZs5G1Yy/FjEYosu2Y8+P9p/9Twu/cf/FRDCxTN+yhSEDx6UWJ8TZxnLuhcuQMO3/1jASMaATOK5bqRDgKwSih2zrVgH0ZtM+wMw1NXA3J9TJkfARSYu1yKHSOQwppgQkrEbYhGNwMD+A/KO6NPlDCOoRDv376cUstNpOaOpe8l8hWc5By5lEQDxASzQcLCNf+cOxS4+v8KqMZuUtrxIFMaaaomNbTNnwj5zlgAmZrLGirBGL3PCWY3AyP69CG7eIrkIWb4ENGgLxlM81wlgMk+yDh8mk+Tp56yUSeCAEaNRKd7H43KGUdeRQAqlMcisZ9xM9qLIrZDJKd0X1bBNnypAhmPefFiGDIVBGKQ6pCVPuSitxLQpzwWuOSYhXOfMKzOROAxV1MAbKgUJdmjINHIOrcqueb6X5p/8CC3PPw89DHDOnZmVCbgg+40sFq4X/lYWkQjSmAcPhG3KZNQsvxX2udcrsUzuuyZ5ofGcgJ5Kq/NBpD0+2Td818K6YxxU5YZFJAiyz0YmJgH9EphYJQNYjOMJXtHvbKFsxiYpzLBQwcnT7oWL4Fy4GCaC6OxkamkRAJx5dHDHDpnWyumz0pFg1EsMxlxG3s2kCXBOnyGEEMb90nGQSqH9p0+j5aWXBAwnY9i9ZDFqH3xIhiNJzpoVcefAJScZWp8elJgmfOQwdDqDECo4dIMDuGRATk+XdE1FBPxiQZESRKFtOzvbGFUAy7lgoRQrIjt3SLFFIY+MkmJ4viFC+b7yywJgcXgUJyUz9+HgMg7Hs7AAP2sGDE63km+EQ0JyIaYSPXJc0Yeur4H1oQelAGyLReH9zSsgOYG5dM1ddwgmwoFYLN6zWEZQXPQ3161H/VNfV9jdBMi6FJ2/LHZR31nPABYrf2vXCA06cuiILJ5S2gi7OsRuC6QEFJSJr33aZNTcma3eUcjSYJBDmy+T07vip892VgEJhpgHDJIxx5x8pQaCSpV1GapvvxX22bNl0zGJDX2yFa3PP4fw7n0K0lxVJRPFOBVN2nNaWoSSL+LU2dbJ+sceRsM3vgXjYOpluMQ5JRrPw79mFZr+7QdyuCoJfo1sZiY/rMKyVzd24pQ8K6my7C0VZtqcuZ3VG1ZGCV51vPprtP92hVKhYEDhcMjkMCb0DAopVCe0ZupFDR8myW/9k09IwMQ5PW3nziG44reIvfRrpJsVqrSSGqr/Q/1fWYlBVuxyXpDeaZeKlABjo0fDu3KlsKCUais/2MlPUm4qKorK/42HEu3HShwnZhG8IYhBUXIGs9JCuHe33C/ReBGOG2bBtWSZgG8MmngwWBrqET98CJd+/EMkLirPz/vy4OABTyp7KU6flU73osWwsKpKkIyJMZl6rS1KD362slYs0VSnb3a8+rowxxyzZ8jEQ4INPKxFQ4L0YVbb3VWgKGe+9c4DTAV6CH4WrASoPeVk8mSZKaJ/wypThVoIOc493doqVTJWDVVBbE5cYqCcbPcI6s/1apRpjW64b7pJ2m/43uS3ZBmWFMlmq4rnzRVINF2S4JOAV8MTj6H2kUeFIVCqRo+sW+7XY8eEmcaWELJt6p54DMb5i5AYOkQ0sBwMljs8UpFmAkCtF/oAY0MdHDNnyCRA54JF0soR3PoxPK++JtU2gpMMZKvvvkuSabZFZixWCbx55QOwCMJG9+1Hy09+JOCsbdxY9Pnmt6Q9UJKTrA6WJC8fb+aIStjnzoV11GgBf2MtzfC+9iq8r70hrMi6B5Q2U9Fe69o20GUhSZWdz5ZICgjGqWXRoycUQWFr4dYm+XdxRX9DLgKsDGoLBE8EkskgqLn9dgnaVOCoIIDFIGXbNgkqCATE6Jezl3X0SGFL9nhl17m4E1bQqfl1qUlYeFXLl0sCyuSpK4DF6jwTUO/bSssi1xVb0Ans19x/b5ZRUQOKfXJ6ZK8BrDmzFd0c0TCJKevwhRcFyGIFXG9zoO6Rh1H9rT+Qdxdavw4t//4fiq/v5WUZPgR9v/1tATKFtm0wgBX35n//D/k+89DBGPgP35epZKomTejDD9Hyk5/I5DrH9Kno/72/hmWsApiXcn0hGlhvvyPn16B//HvUPv5k3sekf2782+/Bv2FjWQEs9cuYLJLlaaO2YN9+UjFvf+lF+Na9J8na4P/132G9/U54vV5kjh5FZssWkHnJxNM2Zgyqlt3UOQmzM8DLnoECOO0mM+41CQqprVTN5GfWzJ5bCPNZgqxGtrk/9zx8ZGSfIXg9Q7Qqq++/X84TkS+IRtDyg/+Dlmefh2X0SFQ/8BVUf+VBmGtqlMoshcSfflr8FTUIG556Cq6bb+72jUUBrJdeRDtB80sEzWfDvSjLnOlyLpFVGtm/T2FvHD6C+q89gup77hfmcm8BLBYAvG+tEEZerLFRdAKZmEqblfq9LHbWNwiY7X3nXQR37ZRCCM94Cro7rr8B1V/9KswEgrIMrPDGjQpI+ulBiXUGfP/7CsMizxnbHcD6MwE9VP/ZFcDimcI1TsYYbTHg7/8GrmW3SCGqJzY2wXcOCfGtXYOoMLDuhfPGG2HKFkfIlE5fuoSOl15Ax5tvSUwlxVKLWc4xAY2o3cQ4JxqTmEfvtEkRuc8f/xdplVXXq/+tt9D60kuIHDki7EIWj6kXKEXK6hqJkWlDPj/XmKlf9ky4+27R5eR9AmvWoPmZnyF67Lh8F8eyNzz1dTg4HIUarCr7nd0DqSRi+/fh0r/+C4Kf7JRnbnjycbhvvlU04likje7bh9Zf/gIBDoY5eVph57BNjXZzuZH2eWUNZKKKnIOhthrVD9yH6uV3SIIu8RjBHAJYv3xOYnK+T5EScblEJkR+TyYjSX3VooVo+KM/EmCTjOlL/+//SjcC41RhWw0YIIxlrjNOk4wdPyFAkRRDXQ5J1mtuv1MAl1z2kQwEWf8evKtXIrL3YGeOwsI3J1OypTfR7ummH2SdNB6uefNRy2KXqs9JRtqBAyItQbvEjp/M2qVKWP465iEBv1L0pF2QEVZF9X33oOq2u+CYTLuUzvaR/Oj4CbSJ1id1Q8/L+6cupHTIuJyyxgjOp1rblXZTmxUNTz2J6rvukdYt6XZhsdrnhff119Dyi18hceGCoi1lYqG6rwLuhMJiCxY+M2T8mE2wjhuLvt/9CyEKUICaZ5m0+77/Abyr3kV45x6lQEwmHt9rQ4NoncabmoWBSVDN2Kce7vnzUbX8NrhuXNLJIhEA60c/lHwWMYW5xuEoIpHD+JrvvK5OYThy73IPZWOmusceRfWdd8I2eZLkdeoVPbBfWpy9q1YicuCQQoKgPhgnjdbVSfE10dyqsO9SKZj691XkIvhsC+YXHKST65xLBbDU7oPAxg1off7niJ+/AL3DCcfsmRLLVS2/VWE6SnE6omiVrlsL76o1Aur+/9x9B3Rc1bn11mi62qjLBYNx7w33buNesA226YZQQ0ghoSSQ5KWQvDRSSEIzvRowNhj33sEF3KvcbcnqozKjKWr/2vvOyKNmi7wU8t+1WO+tIKSZe8895/v2twufDVnv6rNsVt0DKi7U10ZB9XHCuPFI0B7cWd+1+MOFKProI/iOHNZ9ixsyGBnf+54x1IsEsIqLEcO6ZNcOZP/qVwicvSAgJvm2W3VGqm65nNdWSMbPuovEk9xn/4rA+QsRt6lGNjhkYBHUJqCc/8Lf4V6xSoP3pOnTkTB5qkgkTcp+I36bvMHCieFNhWc0p8hq4mdIeFBIBH93Y71dqJ6gV2PR22+heP0GBMgQDHnH1f+16sCjjfRAKeWsZliGDIajY2fYOOzcvBG+g3xGlYjp31f3nGnnDHEhSYHgK2t3z9btSHv4W0gYOw7Wq9s06En+uwAsmtvS8JS0cRYEBFWaiDe/dENr9KJWeMoQyM1HofZXLwAAIABJREFUFf+74hKD2kxGQ2oyHB076EUxGtkmxvJR0IbJyTup3Zy4cRMofO8dFH7wvhpZUVi70mNlsBpsvqyU3DEthj4SLJ544BBUyXjgASTMukkAFgs6yoAIhPGwJ9OD0yNbpy6A0xFC4L2oystVU0xDaW62ronjRQMnCs0ENRarZGPQWLn44yXatBzdusJ1/fWiWlKHTjS/Ii9HFD1udHxxSSFNu/8+xI4cI8YXEx1JiWRjyylp4MxZFdaUMpC6ShaEDBrLy8XA8LI4JCMoUKHJe9KNN8LZ9zqgZUsUcuM9fRr2rAsAdfVKqeI+bPiP+TJpiH5IDZmTNOwOHXVI116kaYthZkNlaalohf4TmQaC3ZZJPWn6vAT4mITgO3JMUylHpw6wXXUVLC1aycOK9EOiu/IDIS01pF+nhxFBMRY9rikTkHzbPCDOMHGXTLIiCN+uHch7ab4YLkbkDy2KTMbkitp+mjUyAYwHT4gtxA2XPkaU+bFwJevFNX067GS6XdvOMBin/9bWzZqO8eBtDhirtXwxRxMaFgjm9BQV4vRJIZtKHliBCvngWG0WI/mp/kXT+U6kWo8RkCEPjMuBuCEQq5ITh1Cq3L8UwOK7SQYTqc8ej+EjEaLyUwYXPHcBzt49kXzHnZIlCKTl1FGmx/SHCaLi3DklvJEp5T2wH8GzpIr7jPfeaoOzexcBm7FDhoh+zymu5L5NGTiGjEopISHTxP3Jx5Iccx8g+BvVvTtKCwthzs9HdMhnjRO0YMhrjWuVTVZM334G+zI9XWuFoAd9Zjgx9+zdp3Q6S1KiEQgwbIQOXgGejQFY4edCQ/cD+yWjoTSDk3uyynQAE+A6flxAGidbjFlPnHuzMd1PiEeF16OmNHjyBGo8RvoZGagykI5oyBrtZ5X+akyhaPgtAOv4CVhapsvY2DBxp7F72P/K2Fs5/SU7raKwCNGxTlhbtQxJSiIYrxF/kGw6Tl8IWHJ/VRoXJ+j1TdzNZhU+moitWS0JFteKjMVD9yrpphlIvvX20G9vfK/noVgdSiFk41d1/jxoKMnkRMlwmwCwOAVmM128eBFK1qzVvspmSHJvShr4TKxWA8D68ksUvjxfHlnO3t3R8skfw9q2Xa2Ju//gIcPkcs1KFeuUEJKBFQaw5N9YUip5C/d8Ti4tSSkyh3aMHKX9yLt5IwpfeUXsXr1DtNArpe+HR/5ZbHq0tzYSLMKGKuXWW+V5p7VEAItA/v/+L8o+3wl7x3Zo/ctfwt6rT23jTrZm7nPPofzQIcT063OJgfVfAGC1+vGTSLpjXpMAVtaPf4TS9Zv+JQAWAVKyopXo6HAoUKHg9deUfMqE0Ta/+TVsU6ehpLQU5rJSWE6dgmfLFj1zyvFsrchQbg1727ZwdO8Ba4dOsLaibMosv0iCpTw3KVmKp1k61y+BR5vNkBBeBiCvvSGS8ZRKgpT/xmsyG+f0NO1uTkcnSFLL2sHwOilG/vN/Q/5b78DWpTNcs25UChMBrODxTFkIcP9k/RB//VixnBmoUP9qLoBVmZ8L14TxcN0wE+ZkSp7rnnmsqcp3fK6ACp4HAnn/UQDr+HFD6rd1s/YDWh3ovQ75pLKu4bZHrw/uvWWUF+XkGHUB00wpA7rmGqSxqerTV3UUGwbv6lW4+Jc/I5iTJ1Z3i8ceh+Wqxj36GkoIvy2GQdjQWxLC3btQ8LwhIaRUhwEklfTlK8hH0g0zxYxjg81zSPKaRoAyAVhrQgDWmdNImjlLDCyzBkVWVNEofvt2lCxfqlRD1qRxI4YgbtgIBalQqiRWal4ePHu+QPGS5YAlWjVp8ty58n3k3kJGacmiRSj48EP5QppaZMBGTxUOLVu2FpAgiw0GjfBM37tXTF+mVyWyEZwyTQAe96fipctQun6thhZksqXee5+GW/w7tFXQMIjAGz0+P/sMBa+/Ct+BI/LXafXkE4ibMEn1UEV+vmqzgnff1e9ikxk3cjic3XtIAUGGHeU0HGyUbtsmpgvBWdp7JFw/RgmsHAKRgVYHwKIqgHK35CQjWbfdtaoNCUKwXiWoGXQXo3TzJrhDtY7ZFQ/XDTfIyoIeYmaz1fBJKizQu1S2Y5dUHASz48eMRdKc2ZLsyXPH60XZ+rXIY2rliRNiCfEsje3TR3+bfQ9/lz8rG+6tW+A/cgw1BYUaSgnAGjLUALB69TJq1uxseLdtUbgP622exbwv9Lzk59d98fvUY5Rt2w7vvv1ij7H5TBgzGsm33tGkzLGxzZdKFP+eL5H30ovw7PpCChRKvPgcWPfS47aqgrLAHFkh+Pbt1/vGnyGbLnbUKDFa+WzKP98hmVfJ+o3ay8icZ5CU/ZrQ8Ffm0QUCkUuWr1K/QcYTg50EarRtq7Xj2bAOea++ggB9EWFSgFBc376wXXutalDJFMnS/3KPeiPWgQRqkrhHzb1Fz53MwvoAFpMoCIJRzRLTq5f2EAJj7CEodSzdSOuTA6h0l4jJSN9B19SpxrMO9TVlK5cj7623JGlknctaLk5p5tfob0pSnptrBFDt26/BF/uipOnTQqxUru3LM4+uCGANHixQ0J+ZKRsFsd0OHhYjjwEWrskTEdOvv4gX7J30mS5eVCBI8epVsgYhiMtEd7KsjH4zWkQO/8kT8Hy5R6oG1mZkYCbNmSM1EvcysgIpTWMvXXE+S4O0tIcfVoCTfJ9DDKySvDzYCgtQTebrKy9LysZ6LeP7j4h1F1ZYNVoQsD4ks5m2Mls3oWzzJnj37IflqpawtW0vTzsqu8yxThEnYoYM1x5b9NYbcK9YoTOZIBaVB/HXXw97h86ytWjU5J17FgkJTKktdhvel9xD/sF06aYwrqpKBlAYIUxSedSeB9yv7BrEci1qIEYl0sEDCOTkhCSp9JuzKlSBeAZ936z0vWSqoNmss7Jo5VpEU7lG/0K/XwxPJoLzsCR2Ec+hxoPflAdgZXa20s1LVq1C+b4DaPn4o4gbe32EtUoEuvPfZOLODZnGuGQTsCgRsncZAIvyleqKgGQc5fSXOnYMFWdOAx6vzOssrVrATuovY+KTki/PxGBaDBktBEUoBeNk4MwZmW4XLvhQExu+LK7xE1TQ8YGzIZaRMM2g5SWwEuV7DwjQaPnDx5B81zf0N8kqoTSOcilzfKwaa067rF27KpGEFz1IahhbueA9FH64UJp9TlH595hiRgYOkUv3okUCsMp3fSGAh7TklG/cI8AnfNFskwaxBW++IQkLpXrJN9+MuOGjEJ2SLJkgZQKaph84KDmWJgjjxyOGDAgaNIa8D2i25tmyGUWLF+nwI8skbvgIJE6dBkv//oaJe3U14pl8KEqD8ZIQyKq8mI2yrVsklVAxO3oMYocOl1780hUlxpMhzdmHovfe0wFFiic9ekTDrK5S00rabOna9fIUih81Fs5ePVXY06RSppLcmCOAGh5iLAYNM9pDSJ4zC2nf+i4QHyczZBWdpaWitpeuXq37YpjNuxE4n6VmmQbWbCBIBSUiHSTLJ9oEZ/euMg/kZszpISWPyXNvgWPQIFjat5eUIkA/rjWrpSMmG6c5AFZTG1DEK40qUqppfWUhINMQwNLn69kTCZPI8qH3kKtZWuzaaN5/NQOLwDKnJfKaqDIKc7NZxsE5f/yj7lf84EFI/8FjRuy6TD4rUeXxGhOmnItiD5JyXn70qOjlfB/JOkNNlZh0/FlzYoKmTvRZ46SO4A9ZS40ZbrLIo/E6af2lGzZIdswJMdk1SbNvQlVyMgq3bUfFF7tRdfgwAqdOhTzr0jQ5pc9c7IDBsDFRilKf2pexWgw8yt0on5DfxfFMFRuUvcZNmADH0GGGoSrvCw8WeUtVIUpgcA2qlTTqNw41gamXnjkPPKWFLVwouruja0ek3veQQDuuWR5cNCmmsSn8fiVSiXYf0uTW8H0hUFvnUKu7CilRK1myBPmvvwH/6VMCuV1TpoKJmDRyl1QhHF1PKdrJE0rIIuuE0zX+vAwcOSlt5JKEMC1NdHzKnMOmvHUALH7mcq+keaSqe1iMnzgNS0aakZ5HL6cyDzIeuh9pj/3QmMY18TLJxJ2NB9eVx4vKzGPypqO8mzKTpgAsI2AkCC+p5Hv2Kk6YchKyL8UMDF00zifToHTJEkkxHO2vRcq8uw1JEeUOlZXyzuG54Nm5A5akJAEPkiCkpESe3ir+CF7yneAZRilRGPAMHj4E74YNoIGwPhvT9PbtFUuOjZCjY3ujsA0BgpG3g0wDSn3sPXoYNHeTCf5DB5H185/DQ9Cte1dc9YtfCMAKX5yq5f3tOZQfPoTY6/rWphA2xayrf/v/IwysT5agusyLtPu+gfimJIQ+P/Kf/zu8e/65EsKwx45kqhFx6ZxyFrwyHyVr1umcb/ObX8E2xQCwbNHRcHi9CB4+DO/+vYYfTH6B3n8WxWzcKFkgY4IAFY24y3czSXWx1hzZWiwGCZALwNJRzAg/w6OuST/JcODNwQMo+niRGDksbNO+cQ9ihgwzpsgMDSFIkpuLgvkvqC6yde6ExFmzkDDrRlhdLnnrsDAt27oNphgHEqdOV8NAj5D6V3MBrKrCfCTOnIGkubcYRW49QJYgDvcDMokoF0u+ec4/DmAdPYrC995D2fZtSmslUKh9i1h9ICiWB9m28ePGaLjBBD+ewQqRqQGC587IFzD9h4/DOXioYfRcVQnP8mXIefZZVFdVa+CY+tC3dG40dl0ycT8roDj5tjuU1HvJxL0M5YcOwL3gPXlmxg4cKNCSQJAGrZTXsykqKtQgSzUAQax6QLMkhGwGV61UrcvnKBN3etaQiXLoIIo/+ABeJvoWFcGckoRkykVnzNJzIIAlL6eCfJQxvOf5F1Q7RSclwzVunM4IrlnucZy2l67fiOi0VJiZNjVuAlIpiWvZ4tK+mZurPZiBJGUbN2tP432mFUDs4MEGo373bhS89To823bo2aTMu1PsEvrshOX4/EzBQ4fhWbcG7qVLZVlBxUSrJ3+kgCfWotx7+b05RCBDnf5SBIYo0eNzUf1LRldhAcrWrUPxmjUabJElEzdiKDK+8z15uvDspNSvloGl9NYYWK+l/cQIw8uL/kg0pHY4VF8W798PNwMOVq2CKVghZnnyvffBzhAamnDT0JusFY8H7vffV7Kk/8QJAW9xw4ci7cGHYG3XTt+j4uxZgcVkQ3L/d3brIolk3MiRUjQIIKE/VlYWcnjGMZTm0GHUlHlh794ZcYOHihlBAIv1Mu8L36Pi5ctDISJdBCA4Bww02GE8v3hf3EW6LwQTGHpEsCFu6CBkfO8RAXHNSaTkg+ewlmbQec8/h/IDh+Hs2U1y5ZghQ+QBzDODzJHqoiKUb9umZ+A7dECyaoa1JNxwg4bcJBEUvfOugEH2LDz/yBzVMO/qawzgiSnjhUViAuW9PF9nKp89QXYy4skY5DtR/OknyP3rc7rfZFQyDIE9TzjZVe2N7tVnAmRK161HRUEREkYNR9Ktt8tDk2BLHQArWAWTw6o6lOFV8cOGi13FUIAo9prnzqGITPk1axA4dlz7JWvX1Hvu0UCUz0bs0MUfIe/l1wxLCtX4ExE/fKQA6zATmvUAwdvilcsFinHA55o0Hkmzb1adSqbW5a4rAVjO7t21P9Br2AjqOK7BTOyAfvpe9JgTOB8CSejR6tuzR0Obsi3bxB6MHTlCsrG4gQONvSkcAHTihBLE3Us/gfdLenG6kDRrpt5xSivZbxlqppcFfjg6d0TKnXepX5SRegjAKr5wAaZDh1DJgI2VK0XsIEEj49FHYe/eU4EDjQ71Q4McDrLZC0jmf/RY6N0bpgR6+uWR8UtiRcott+j7mlu1hnfjBq0/zxdfyD/NQmbemDEKkSIGoUFhPdWDbJPOnRMYSPCOyd3qBZoRWHLlXjGyDbk0bKbdx6XvHqUAsLixYzQ8ZU9GJix7cFqrUH7LfZ79Allv6nXTMuT3yrOfwBZVc4WLFqLCbNWarzl/HtUlZTDZrXq2FTyH2rVDC+4NvXoLwHIv+gglGzcIhGz1s/8R2UJEi3pn1H8VA0uNqlJJDLPAMBumwYPi9JwJPzyk8/LUwHHR0MCYD0Ca9TZtRGV2EuFtTUSc5ttNmaIYf0Eab+qgGTt77pwhUVm9UubF9HJJumE6Em+aLQZVGCyRLxWnCEcOw71oobGZByuQcuftcM28UZ+FlFxO7CmXsl3VSgUhvalMqakGbVBMhxpEEXBZsVzmqES0RaEcPRaJN0wXQFVxMRtF776nAtF3yPCJIhss+Y7btcmp8Qultigim5vLsaNCwWP70RS9h1hbZGyUbdyAog8+UIyyo1snpN3/IGL699c0g9RONYDVNSpQCBa4l36Kss2bJSu0tWqljdU5bZqieclri6dpHRtufpdQxD2nJpRhEdgjgMPvEjtsmFD12oubnNWiCQvBNgJYNHCMnzpVmllbx86Irqk2GtcN6+H++BMx6hJnztKUmWbeBjXXiMyOvK4IYBGNZtXpKzeCA6oM1pgiQjesE33aeV0/mS8SQS9asECTyGinHWn33gtbuw4o2/m57gtfvOQ5c+EYMNAoAHnI5+Sg8vQpI2mE7C2CET6fEVkvqvAV6YUNlj7/Ox+biMoqxNB4kgmNYbYYzQNDnlc81GV0mZrabDPBfyeAFUXz89OnVPgoIpmS1FMnDADrxEnEDRmEjO8/qikOCzB6MhEQIZuRslBOR3gvyTTh4R0zwigwCEpyEuc7cECSXK4N3Ytr2oIHr/wrrr5Gh7gOE65zFoIXswVcEXDVtDW/EPEjhyJp9lwZYQaYCLhiOQK7dqKGk4kokwBUmU127iyDeXNCooyQ60iqQuwypsSwsKIEjWbvnKDxc8RPngznhIl6hgSoogniFxQY3npcMyFmkfYIscfqJnGxKONeQCNeAh1kDCTPnqspKFOCZLTOtD36a3CPI0vAfEnyJaPalGSBsdERCaORC68WwHrzTTGeWKgl3n6HmjEyPIyoeJMaOX5E3ntShJnMxxAGeiHIczCUnNhgUYeTRB1Mloo39iCbTQysAnp5ECCnvIlsJDWqq1Ed8MGSkiavFTKVNDE6dQbJs2ci5b4HQn+iaQYWWSl6B/nsz5xG2fp1Cn5QwEcTDCyD5VSD6hIjkUnnBf+pUxBAKaE8tIOnTqOmrAQWBnx06WJ4ephMeh6UYbDZJKOL4Ben22z8KI+ovUjRZuwwUw/9fqN5sFpRHaa+c/2XlcqTiAxPSlYK334TJas3wNGjK1wTJyp1lWeVpKBcQwJAzdqvxEqOcRrrlfvKgf3I+p+fwnvAYFi1/slPYO9xyfjcs3Gj4SfBZLkB/dDyh0/CSl+kZkqN/yMA1uKPJUsgo5MT9MYuA/jbp0b0n+mBpVqGjDj6t1AeErq41xQueE8MBsqlWz7xKGwjR0sabrNY4OQ5TmYLU50uZouRQqCe+xSZCTGDB+vsI2jCs5LvW8k6o77g+Ro3aIjhJ8HpN+ueUKKVwl3qT3ZljmsknurMop/esaMCagh8qn7iXhJKyeO+RBNimrTTI4uyDNesWXDNmQtbWpqGCzKS3r9fQ8S4UaMM+Xsj7/7XEcDyHz6Egjfe1KCBU/HESRPF/qmprDaSkg8dEjiXOGO69rSwZMxktSvogumFvgOHkHjnHYgdPUbgdk1+IcpWLkPBgvdgTk6Da/w4ydsJAl0OwOIZJyld/4Fq5GqTa8mAuZgtlicbjPgRI5B8y60wt2qp56fAjs+26/OSIcpBCdmtYt1GNAiUBDIpivUkWeJJN90oBlY0v29FBco/2y4pqP/gYUmR6MHHgapz8GADFOeaCJkr+/Z8oYAHrp0qn98YckydqrOd6belO3aiMjcfTnqpsJ4aOhRJ7dsjJmJdiNmSmytTfPkt5ubB1qE9EsaMlc8awX16Tub+5U8oXrVWTTzvZcKESWpguS8K8PB4UL55E0o++QSenbtgobS/3wD5aDp691a6ZNE776CIA4az5xHbr48AH+77AgK4R4bkSOHPRElv7nMviLlFq5FUGhbTnzYlRQO0MIDFPdrWvq38EF2TJhtG9KH7Lmmgrxy5O3ehcMsmmA4dRmxKCmJ79ICTTXDoPeNZKpuF8nJ4Nm1SHc81xz06buhgZDzyfVg7dNTzpUk96+vSDZsk3YsfMwrJt9xiMLBD6XOsHYIeD/L270P5qpWoWL0GVdk5sHVufwnA6mmAN0UL3tOw3X/yDGL69a49DwXe2CLvS4XuY9natch9/nkNdh09uyHtzrsloVW6ezOYuUZ40hbZq/gOH4OjS0ckzZ4jwNLWviMqw2crfe7oOXrkiM4pgrWsb+V9GxurPZDrwrNzt8Cz+FEjJD9jD6FUzNAZp+HRsaMy3CdLiWuMLCaelWQP0QuYoAUH5bQjiB8+XMb7VDLwLJYZL7GAqkpJYTmgLnz/ffiOZ6r2UgL0VGNwHAlgRVXViO0VN2gwkm69VebvSgcMS8ELC9WTERAr4drm8HXIYKR/+7uqHSrOX0DJiuUKl/Bs+1zS7bjRo+GaMRN2MsPkSRf6bAwByctHydJPNdikFJzMdt4PvpOqky9zNQVgccBIoI/vHVlIBC/9mYY/IaXiJEDwedQCNaHvxv7X/fFihS2RicWziWdG3ITxsCUmhQaWRjvEmp7yz8LXXkHx2vU6m+g9R1k8E7hVpxw8gNxn/wzP5zs1IOX+QOsHDnbCAFbRqZOoWrcelZs3aZjKlHKCkGSdy1S+viIl5AvMuoxBZAQAmS5Ndh0HFfSU5O9nb1eycKFYWbUAFn0Dr75aICuZR6UbN8iLjoxS1lpcy5RxKnCCIDDrt7AXddBg6xO043/DYQzr6Wa4Hn0V/MroNA2xhPH7w/91lEnrhz6LDKrQfs66hd7NVfQmNhIVqf7QM1m1RkzwpJtu0qCM7wRVJv4zp+HOuoDyHTtR9flnMFtscHTuJGCc6hAmxqfe9Q0RZGiCnz//JWE2/GCtn/4FYkeOrg3Oi/xi/10AVnMeCTd2otFnz4pmqOn06dMySqZMjWa6MTRppxl7x44GMyOm7sHdnD9D0KbwnXdQtuMzBE6dhb1jeyTPvknMKUaDRq4wJTpxQsBEsxOZOvw5AXV072VE2DIliEk6ZWWSEUgSxmj6KJMiRY0YX49ozzIT37hJ34dUbKYlJs2cYRxYPNy5EaxaBe+OXTDFx8q4O2HsGE2DKIHUZCw8UT97FhWFhdrYrGmpMnDky8OXhSwuUrEpU2OiFKc6RoR9Q5llxflzKN28WYbZ9LVgIdzike8g9tbbUeR2w+T1IobfwV1sGL+HpU+FhZogk+7OjUmpgz17Gn4OoUv0RSbKBYMCqQgSVZaVwTXjBsSOGg1b5y4CmfwHDuogdy9cCEfXTpomMIGC9MSmrisBWA28npg8cu4s3B9+gNL16xV7njznZjjpHVZdjby//VXMC3qEpT/8LdjatkPJ2tWadKCqRiw36qGjrzFYQzSVjPKVA0ykC03gFVtP36eI/6056zH8M5Rt+cMm7g6n4VXlsEsCStCWQIqm7WTEyQSTBpbN86j5dwJYXOsllOnl5MDWopVRgHo9BoCVeRKxgwYg45FHJP0jJZo0ee/+/ToUGBLAabT92nZ6z+w9e8DSoZOKSUreqpgec+igPGHK9+0Xm1N+Z61bqYl1duuO2CFDjYM8KkprlPI7glcEg8h4oHY7cfpkJN91j1iAgWAAhbt3o+b4MVgrK2BvfZXWMd9lsQLoq3aFRp4NKKniLLZE7U5N0aFhDoEA8hwrKYZn4wY1SgKxrgRyUjJMWd2pU8b0PckFZ9euYprJiLbW14xftWEMPSe+pHtz+igacSPGlrUA1htvqBiy09SxX1/DxD3k2cCJcfj7k17NZ8SDTWai7dtpylMHnGls0Zui9W5RMkImlgAshnnkF8B+4RzKt22VWT6DEAiwcEob27uvAPniNavlm2jv0FbeKLqaqALC90SfneBoSanAJoJSCRPGNw1gRXxm7nN8j2lgymaSh3744n3hfka2iijXSoWNgYledGHYWtHTxrCGRXG0w65pVuQa4rpiM8BpbtjHralUOU5dOcUjY9iz/XNJIVmscuIq2ReT5sp9Yrkp1KDexf2Z8v3sXz2N8pOnEDugP1o+/oRYZuGL6zL3rwSwjiBu4HVo+eRTOpeaW239ZwCsxagsKlHUMyX/jV7cM5hiarf/UwEsntecFvtPZioptHZ9lHnECJaPjM+PuOGDYb76GjDVlwMJ+hqqgSbTVjL+8zJ9pvyKgzRJ51UIm7V+DHn9aUlPrG2uUh1AbxVK7WwdOsE+aLB+nklo9QEsgnbB7PPguRRlMmtPpNwpfG5QGhNpNM69Mcz+Kf50mQYBZAG4Zs+Gk74ipijtn2TlEAgIWy005jfytQSwDuxHHpN5d+/We9ni29/RAEOJ1vT73LQRBe8uQNKcG+UfxPNE5w6iNLEufOctuBctQezwoWL8Ofr0QfDQIZSuWSXAUp5iEyYqJVGgVCNXmIFFw3TKPsigr/V+5M+z3vR61exwPSSMGo3ku+aJscJ9qWzTRllWkI2mZp7m5bNu1BBHvomhqyo3F8UrV2r4ETx/FkmzZxsA1lVX6cxkqljhSy8hkHkKzh7dkHT77ZKckd1b/xIr+vBh1U9cp5SyExggQzD7979B+b5Der/oFRg1aCiqOYRs0UJDuMhLoUxsvBctElBONjMH0an3PyDWEWvpghefR9HKVWLc2jt1kOdk4i23Kjynivt5USHKPl2CogXva9DFWiLxhplqJJkiSNZS/ksvoGjREr1fiTOnya/G2ZssiXqpkKHGlrKynD//RXJDa9s2Spsl29Fy7bViwdUCWDYrYocMRBL9xIaNMIKTIuqCoM+HrMOH4T5+HDF+H1wZGYhvcw1MGemyACHQHcVUtnIfmAZMKXHptq3wHz2mOo6DvZaPPgZLx05iSrg/+ECBA/6jx2XzkLRbAAAgAElEQVTmTyCGkkAz2X0R518gEEDBmTMIbN6IylWrETh4CBYCKoOHiIFFE3cyQ/NffgnuhR+jsrQEiTOni0VHew4OV+pc4fuyZRNy/vxn+TBa27TWfRGbuGvXK3oM8feRgUUD8PwXnhcDy5KeImYRfeIcPXsjiv1McrJxflK9W1IMrls25ATFWe9yD/Tu3ilQo/zLAwKK6CEVTj+uv/eQmchgAib5BfPzNeCknC/a7oD7ww9RsmG9wrHi+Q6PGYv4CRP0DnIMGHnxXSOby/3RRwoBoA8SSQCpd86T/3EdAAsmxFzXB65xE5Awbbo80eqse6pi9uwRGFn4zgJ5jMrf6QePwt61GwLHjyuQQGEd57MQO2yIAAR61tHHtz4rlfJXntdFixcrrZDDKq7/lLvukgz9cldTAJZY29ddJy/VIN/34ydENInt3VNG6s5+/eWTXL8e8G7dirz5L0lhQwA9ZugQ+VpxEGMWWaIu8YADQvcHC1DMdZp1AdaMlnBNmiilEUFZnnUFr74sdhllzTSrT7npRrhuuc0AsEpLUXjkMPwLF6KCRuSFhUgYN1ZJemEj8QZrmVL7ixdVm5d9tk37P5lRrMFoDUKGK9+5GrNZCXsEZWoBrFAKobxLqeihZcjnnxuhYHv2IjolETHde8gTTAOhFi0N43rWgmTrh9I3aUPEml8XQ5Eu+5S+2r9UrRvmS7BWD/tL027mmqtl18I+p6mL+Ebun36PggUL4WzfXusoYdo09T3ycPN6kX/8ODxr16Bm+zY4214r9Qr3jvz5L8Cz+0uFy8SNHCVJc+7zz0nxQqZey8cek/dtY/3T/x8AFg9sFuGlpYaB3oUs+A4fVPqUJn3xcQAZBK1awTVwkKFXZmIZ05PINgi/IDIJqdLv4qHD+Ec9R7sx+Y80W6N3Cf0+mI7BxsbZvz8Sb5ghlLmxaaJYItxcadpYVWUwCThd4kLlwgkG1NDUlHnEHCMiqTjKslJDGkVq+sUcNd1+Gdj74ezTqw6AxQ2RMiGZVi9drsOXyDsbeUol+SKTWksTSm5YVZzkOmNEY6dBYbQSRCpQsnSZGFVMP+GtcdJHa+LEEBjU8LXhJJKeWqR/+g4fUWHd8vEfIP6OeShik52dDcvJE6jIPA7GpIalctxc2MQSxa6pDMoEln4v9AcIX9wUOa3j5+WG4V68SN8rYdZMxI4YDVunjv8eAEu6Zy/8+/chn941R45oGpf+4DdhuepqyaJIc5b+fuBAJN92uyRpBK+KV6xU4c7/jald0Uzd0B4UZUjCIq6iN99A2eYtqAr4VfQa67P5m5F6bqamVVXBTHNJmovGkercTVICZ7++hrle2OvpK0D5/zYAi8l7nKT+6Rn4TpyU8R+nhmzIcp55RpRdepwl33Sjmk7SVjntCZw6bWzsZFW1aCGvOsZiW9q1Awi8kF3EgYEOoxwxMgkqEzwmU4HrkmuQhzDT5phuQlPP0pUr4V61SiAQQWYdROV+uCaPR8rd9+rnglYL3OfOwXT2LOyBAGxpqWK21IIOTXlr1alSqo0kUbJpLGY1mqARbEjiRQCrhtPh995VocICtinZqUDvUi9qauj5UW2YK0uOaQpNeEw6JCl9riM7rLceOJXndIvTJbE2GpH5KSZ83VrJl/3nzhnecdxLIg5F/drwVInmptxja6oVB85nE/ZvudxK57SK0rW0Bx7SlIzrMZ8pjgcPwEQfku3bxUqh9t41YRLimHCTkQ7v1i0oXPiRAa47bEoXNa6mX6ww8KaIdp9fhQMZaAlTJjcLwOJEiolflNeU799nFB5McjOyDY17EWK7qBSRZLNO5uilUIrQR1XQQ4TUzN61M9Luux/WTp1rp1NNAViUAJVt2iRzV4K8yXPmiL5OAIJFGQc+9FFhIcY0uTrPgz4DBQUhY+G/wl9QgJjBg9Dq4W9LghS+KD/J/cuzej/jBvdHy6d+DGu7Dl9vAIsphO5S2Lu0h43vWxMX10M0kxmvbYf468dLWsmCqvC115QeV+UpkVwl6a5vwE4/PqYCE6jku7FqBbJ/9we9064xY5Fy771iLVGGQL80Wgcw7EUXWc3+gJobMlWiaqJgTk/WNJ6MRiNxNyK4hEAW/Ss4DeX7xjUV+ofLSf+O5sQej5HCScka33l5NAIxg4YgfuYsMVksrsQGAJZS2CSVWIPoBBfix15vhGekGkO6MPMqfNvY5HKduZctRdmGTZI8kVWTMGmSJvyUGendChnGap01Aex/HQGs8j1fIPfPf9EAhJP31j/7mYZSAhJPnpQfVO7zLyFp7mxZO/D8ESBM9nbAj6LXXkX+m2/B7EpAHM33Bw+Bb9tW7edkLdA/1DVhsrxADFVAw6sWwDp1yjgnrm5jyDhCy4IBGQQY5MOSlFQXwKKHZnaWfPPcixfDf+yYQJvESWzeRorNEX73K3Nyxeog+F9x4QKS5s6RxI51tH7HhvViKgVPnVWYTPp3vqshJFnd9S9N7ZlOxXUYqFAzTzYy66msX/5cMiPu1WkPPYCafgNQkZQEV2pqAwCLjTc9dUqWL5PHYY0voAYy49EfaEjL87n4kyUoWbUC5WTi2OySiqV9+zuocbk0dKw4fRolixfBvWixQn2SZt6AlHvvM5QYNhuCx48h7+WX5NlFZnzCxOsRN2QYrBnpTfoD8W+R/U/wgKw4mg4T3LF17y4QOgxgcUiTMGk8km+/Q0CBDM0jzlyC1BdY5+blyXYj0WZDrCkKFfTJ85QZgT9k6Zd5lPJFTzAODPi/86yOBLDImsufz0Z+AyqL8pWER3A0fuw4saojL/7dgqwLqPjiC1Rv2qSzlF6yZGsSwOKwP5iZKWmW+5NPdSYmTByLuKEj9Nzqp4OFf7fv8CEUMSn03AUx3bh/UHLn7McQicY9LyM/F3sgyrEKXntVPrscXrOmcnTuoER4Jtgp7IryeZfL2N+csWL9iBElECwb3u3bjPCvg0fEtkn/zsOqDzT8qS9Lon1AuVcJzRWecq0JS0I8qvPykP/Cc/LSq8gvEhAZ06ev2Ev8uw3WPNlcJ0+gbMdO9aFM1KO6JP3bD+tdiwSwTCazEkopqY5lOijNzSMuPl8mSRPAyn/5NQXfxA0ehBaPP6517z94ADl/ekZqoCqvD85B/UPs/06wxsY0AIHYjzI5mgxEstOjoswa7KV/59t6Npe7mgKwmFTO/o3DmEoyhRjaQIB82BCkfethsbHF8oy8amokL774zB+krDDFxStUzNGntzzH2MPUr9PosVbGBMgveG6eQ7QzFq7Jk2S2TwCeA+3SFcsEvtNfmess9bZbkPLQt3U+et3FKNy1C+UfvIeKzVvF4Kfpf+KsmzSgCXvp8mOKfRxKIyfzSsnPe/bK0oY+fwQk44bSzmYQEB+PYGFh0wAW33PVBF55Lmsovn4d/GfOaE+Mv36Mgr7kaZ2aZhigy/OYSeXnNNDSQFOp3iG/3ss+qeb/S3m+1iaGG2oJXnw3eIYQWKO0U2c33w/W76zjQ5ZAtCXKf/E5FC1eIsZW8s1zETduvPEO6rivRFFuLvz798KSmYmYLl1FLqA/df7fnoV75SrYrm4j+yT2DvTYY59KkCvlttuUJNvY9f8FgEVQSOjowQOSD3HSw3SQiqJifWeyN6L79EFU1y5I6tARMamGBKU+EiyfEE4saax89qwaW16MqbX37qWXM3wRWc/+1a/FqKLhd/zY0UicPFW0YZqZNtzNDCNqvix6MSiLCdHu1RBTW3qe7IuDmnb6jh5WQaNkgCqjsaW0jIu/2mskjzj79q4DYHFTYjIdJ2NMSWOjwg2fG7DJ7lDzxmaVZnpk5Fi7dIGta3dRY20tMlSg83O4FywQRZtIMRt1k9MuymoYFW7w3aq44QcEuBlxrzVo8f3vIu62O+DmJDDzOEC0+fPPdG9VpPOXhCLqJYFhT2cxw2SzGBKW0EX2FVP2LK1aK/KWBRU3StfsuZJDcOr2b2FgVVfJZ8CzZSuK3l8gBgXlNynz5kl85d2+FYXvvqsNMoEJGxMmwBRtgXvZp5I0maxmJM+7C/befRAd8rYgIGEOReqGv2/ur59G4cJFqK4IarPnVLz+BOJy25JeaDbdFRUw0djRV67fw42BIGTs6NFfKXUv8m/9OwGsylMnkfv738GXmQlH564yQ+SGfvEPv9cBoiTIpESBUoqXdsSocGEqITdcTkZUWJEebrHJ1N7YkfmImPRipGWx8WAhSKkWTcxpsMn9gv4DbP7K9+5B8dIlKN24WbIIGp+T7cJDJX7UcKTcdZ/WYMBhR/GFLEQdOQTT8eMCyGjg+hXwQePjWazSg5Naq+Qfmn2G9gwxsNxFKFlBL729taBbY+shyKTRzFOGvCxk0lz/55RE2fYaxZvz3jamq2djxEkfwysoaQwXhZG/i3+DpuNkUiothwmDlMPCYGAZ0AynOhIposZTiiqfV/4SBPlMdmez1jgTesTAIpiekYHKigrknz0D77p1CC5ejMrMTE2Z2SzT1JOTSe7nlF0XfvihWC22tlfLg0MPpin8SrJOTqQMliTZIryf/P/5XjcpIYy4KfIL2bZdzQM9Xrheqn1GWpU8DOxWI3bYemmvu2y5Ie8FNjDltT8WO9DwmRKYwtRU+qIQnJW8vm5qpZ/Jb++8A++uHdqjCLyTrs21nzf/Ra1z7rssiEnX5llQKydigEJmprwOKW0LVNdIktvyzrvguPaS3MCzjiyEP8trkn4nLX/8EwPAaub1H2FgMYXQU46M734LiTNubPqTysjNSMsUg5ly2pqa/xOARSkEA2k49FHKJdcdWVVkkBNUJzM02gxbl45KS62oqEA0mBJkot+vAfxEyH0b+/AGA4v7W678QAkgyeuPQHS0SftMzPXjYG7VCpZGGFhiu3y8WAMqAtgJIb8hppc1trkRdKL1QOnmLfDtP2AUwOmpiBswAKkPPgA7WRPNlJR+LQGszz/DhZ/9j6wVuNdQRkuDYLJ9WAvSnynvuReRdPNsTdTpmUTj2rC8uGTJxyh8/wNJ8uzdusLRsxfKNm2Ab/8hWBITkfGDRxA/cXKtvKuxZ1oLYJ05C2ePLkiadZMxtQ814hVkaxw9gtKPjfToSAaWyq5gUCAOkxSLl35qBG8QPLrvXiRMvcEAOBmIkZMjb6ritWtQmZ2F5JtvQcyoMTBlZMiM37N+rQDY4LksNaktf/oTSdNo5N1o/cu9L2SHYYC7TB7bhuzf/Qb+oydkeZHxxGOo6dMPAZsNCZTm1BuYyPNv3z7JuDhkFdukb2+0+sUv4ejdR/Wr/j1DkZYsEfs4YfxYtHjiKUQx6Ki8HL4dO5SaS78k1qKpt9+K9Ed+YKQm0o+SgMlbb0iqxZo6OjE0bI6Q9tT/fgr7KKAVRFDeW/KBnTFDn4mNXi2A5XSIucTBFwNTWJs3ALAuXICbg1DW+Dm5iD6RCd+BfaHgqqDqX8rCuVcIEGTNzWGoy1UXwDp5EjnP/EHqCDaaDDpgyiKBLCo9Ii8BWNnZqDx0CNi+DZ6162BKiDUALPrXtW0re4bCd95Eyco18vrifWENESl5anBffLwvxVK/WCkzHT4CrhsMz7LmAFgEuskko7qCtb9395fGgI92AmS1K0TJItCB0iV7566Sq8m2oUUL3SsCI0yKK3r3HfiOnZDFSMufPCm/3SgHa496hUCIlU62Hms4+oCSmVp5IhM5v/sdSui/FggYwUlxMQZzvJEgFMMXzy/SAs8YntHcM1o+9qjCUeoAWNEWuKZMFAmCAFIkE1LvbHm5QiPKVq9E7kvztXfTHqbFY4+pzqEsO/vpX6Jsx275vBLA47DR5LQ1/dn4bKjsIUjncCo5s8UTjxuKkstcTQFY9MEDWeRKp6Z1BAccUVLwpD7woAA11m21V8g+o2z5MmT98mmZ4ivRMTYULqMk60aKNFoseMoM6X2Q3zUOiVMmIePJp/QOyMN5314B9MUrVmhvTrn9Fvkbm1wJKCcQuW4typd+iqq9+/QOtnz0USTeeptBaomUUbuLEDh6zFh7TN3MyhIb23b1VYZX2cjR2sdJSKFfNRl7TTKwwussxMCvOHdWaidJgDduUVolQ6VcU6dp8KFBQFi6SKP7UHKkiA+0pvgKxIYrlWD0wmWfcUl1FPrltP3gQCx0X6QmI7EmNydUUxi1Jp9H8SeLUbpxi/wEE8aNE/ikMDT++2gTvPFxAt6YQWpjeAjTrW02uN9fAPeyZaqxbW2uhikhQQMWEWem3qB7wiFLY9d/H4DFh08/j8JCVGZfVBpJMCdLmxwXF2lnbBYqSzxwdO0g5JAeAZXXXINAQgJcKSlwWCxGVGpImkc6NGmElUUFagr5IjIhi0kSaiivvgZJc+cajU/oolHv+SefkhTGnJyI+MmTDK39ddfVodRfaeFwQdBjhQ0pQSvSwgmeBS9c1FQ1OoVsqThNakiX5ssp1hI15V271AGwwoudxQnTGHynT+jzKYI4Nw9VRW7D7JnNU7wL5lZGFK2jUyfR3TlN5yFe9PbbKFz4oejVnPZw8V4pcrn+90xl+sL0GXAzXc9dpBTCKhblIQaLQDsWfUSWT5xAdUWlNOK2NlcpgjrMZ1QCWdceah7p9UHfMdISE++8E87rBshD4l8NYPFvV+UzUnqNJtG+E5lwdu2CxMnTEDNiJIKZx2RiX7Zpi+RQyTSZ7HedfGyKl3yiDYrTVCbi2Hr0ginkbdEYgHXxZz9FAUMBHPSuGIYYpnw1YrLc1LqiaXY5fXu8XljpvbZ/r2jYRPWpT4+7/vpmUbf1fDweg/JfXCLwNZqx44yQJghKI9FmNiJXegf47yObV27QTQJYv/+9ihiYTfK8MJmtOvA4jaKRLderwN9Ct4BXY7pvABLs+QwiVATrLVxUm82IvW4AHD26yyCTMmBKPgiGlyxdqmQ1emEQDPOfPato+thB/ZFyFxlY7RB0OuA+ew7VO3egeudOI8aX05KveJHl6ezbRwcjDZk51VFyUgiQMAWCMiRlIqmmMWFgLvR3OBnhe1762TaZh3LSL4kPBycMVEiIk18D2WqUFNFokYelg1Hw9roSNf5Krj36VJnTMwzZYT3AlT+jcI2iIlTl5qDa6zMKbCX5XUqtZNNKSjWL+bJtm+VLaE1voQQfTqKvWMyK1myS5JrMR5rPEsDi1JhTfBP18oWFShSKHTsWtjb0MUsS84lNeBjAco0fg8Q5txh3q6kKgCbuIQ8sNSYsNCgVP3nqsimEkY+aoB6nZhVnzkh+Q0o9zWVL19IPz6SgCRagPLDNnEpephphGpLkSTt2SIrBvYEJSopNnzELlqva1IL+jQJYVVUC2LP/8EcEs87B3uYaZPzg+3D07quz0r3wQzWz/sxTSHvgXiSMn2ikynHdhJ4vvdmUSEa/Ak7kxo1Hi+kz4GBYSegiCy/nmT/Cd/IE4ill+W8BsMp9aP3THyPpzrsuPcKIhE8WVpbUdMn6VciF973q6v8TgMWznEAGJSvca+Wf5vHKwJ/3mc03h2e0ADC374Aytxsg0HUhS0annIhSoiZrgCbeTQ60OP337vlC+1n8sBF61+nZyMKUPpvRLBrJwLbZahlYDBnh5yPDhinL/Gxk7HFKTYYeQY7GLt+XX+Dis88KBGCyk7xX6PvT7hqk0Ux3yDCDyd0M2XpzAayK7AuIoayIctr4+IYm7l6PvD6ZusWglZQ7b/uHTNwtJpMS2C489ZSaJ9odtPj+D2Dv3dvwOaVUefmnyHt+PpJvnYuECZNDDKxLUkDeF/oSEXwhCKC0rlMntaZievdG6l13wzl4SANmW+S9vmTifg6xwwYh7d4HDRN83tOoKFQUueXfU/jqy0rAqw9gcW9mE8L7ywRmeS5eyFaqNX2ZqCagJIxDGA5vBGBdvIhkppKOHouo1FT5npI5wc9SceEi4kcOQ6tfPq2zMHIA2dTxp0bIXQzvts24+Mwz2ntYy7X48VOo6d0HPpMJriYALHrCEMAqXsG/nSO5eKuf/xwOBkoQ8MjJAT2p8l95RSmecYMHIvXe+2ElQ6umWuwrMh/IUKOtQtKsWUi67XadWeHUzoJ330HZuo0y9ua5Fx0XY9RhTdY89D80mj42onF9r5Pc3MYhSiQDiwDWrBuQes99sF7broGvSwUlhAf2o2jPl7CfPQtzbg7AIKALWWI9Gb1AnBpmyuZYl1EBETzFREBLHQArcCITF3/1K5Ru3qqaP3HmTMRPmCiWnFQpEVctgHXgIGooxd+wHqaEuEsAVpur5MVTQPb32g0GgOOKN5hOzb0vDHjqex3ix4+TdD0y2ORyZRItCsggJgPJf+yIgA56hAbPZysUgPeFAzjedwL0lFBzP6C0V97AF7IMf1wmmGeekrF361/8HM4hQy+bPF+nJqXH5rEjyPndb1G6casY7aw79U890KOp78LajgPStHvvQ8zQoQ0ArMRpU/SMCHrWV/GI4ck0aQJYL84XsBM3ZABaPPFDhbtw3816+pfw7PxC/07gVYzT+GxXGHKotnQ4ZOqfdv/9+vuXu5oCsHheEaDmXk/Lg4qCQlQVl8kfj8mqlAUyGKYm7LMoNg8VP58i6+mnEczKMUgMzhhE8b6SpRkKE2ry89CrkyyvkSMVfMH7JsnahfN63hoWXMyBa8I4pU8T2PRzaPfRhyjftAlRJSU6QxlGEj9lqrHvhlMGCRxTvrdvD8q/3KsemjVRTI9ukno7evdTv8eBEPcF3pdmAVihL0OwXIzlDevlbcY1zufGXoY1GNevvHgZGPE1SdsT0YYJ71/shidk/aMaUcFEx0DPOtboVH2xb6hde2SQjxwFJ1Mok5JgpX1NaCDAYAj21sWrV4ukQ2YuPd2SZkwzFC5Mq2zCH/frcl/C6zMqGAzWkJUSNq+r0xSQWVJaIp+YQOYJlB86LOAncPaM0iNIF9bNJO3PH0D8hLFInDJdxXjAaoWntBgxBKR4eBKochdrAk0zZxr8cgHRE4qbE5t0epMQsWXMbcYDD8IxcGDtx2Hi0vnHntBGGk2juMlTDKM4JoWECv86L13IgJ4vl1gJ9LFgSiFjbknFJkNg/z41gNp8CBrRl4p+Fmnp8jJgyhQLXh4k9O6xtb+2LoAV/oOhppwTwcCxYyg/fkz3izRwfmfDKDygaRObT6YVptx8s7TpnFrQ24ufJ3D+nO6FNT1dFD5zXN2pzeU2OUbm2gYNRpHfJ8+OeLsNUWwGydIq8xgxzMVuvQjUlHMyxqZdHliMha2u0sakiOrYWCVgMW2FhujmtHQkP3C/Egs4Cf5XAVj8ftGkP+blKiWOzCshzK0y5HWWMH264kJpipr/xhsqMmiSmfrNbyndi/e76KOPULphnRqMtG8+BEv37jCFfBSaArAK3/9QzUnq3fOQMGV6o6yXpu49G9ji4mL4iooQ4y6Cd9lSgZmcfjQbwBIToALB8+dQtn69fI24ThhJTLoygQEzmTP/CQDrD3+A98u9Yl+R8mwUcwmKo6WPS/DUSdH/yzZvM1hFPMAplTV2hroTncpKsRy4zhxdOqHFDx6Fk4l/oUuF08WL8GzcJKA8YeIEvTNkTRDIjOnbCynzIgCsc2dRvXMXanbtgv/IIVT7Lhkzhzd5Aj0ERXhQM4Gj/l7BiG0GODDtjoaX9QGsJlPCQtMsAq30/eNk3b10hQAi/h1KklkA0f8hYeIU0Ze5h9DXKmHyZMRNmAgb5bv1kjobX2ecpNfIB4USy6YuGeaGpjpaK9q/2RS/haJFH8PepbNYgXx2TSUQ1v/dmgaRTUq2qMVieGAVFiKmpASm8nKBmmIkhYC2+gBW6rzbkP6DJy4ry1UKoQAsIyGy8lgmipcvgXfHDk2Qm8PAqnNucXpGAJzF59+ek5cbZQyu2XPE4tTUiVTreiCWwQj2Sbrq+exzFH/ycSicoyVcN0xH/ITJYutF3rsGAJZCCLwykz3/5E8UY09j+xaPPKLmiudm+b49Ylq4F3+CuBFMm2WS7ngj8VAStUqUrVwpU2Pvwf1Ax46ImTIN6aNGwREhF5IU4A9/gJ9A3/AhaPkUGVhN+ybUf7b/MQZWYwCWPMj8mmyXbtkic/RwGEOtlcD/EcBq8N5UV6OCUs3dO1Hw+usI5hconYhns6l3bxRlZaF6/37U7NyB8s8/lx1AzID+2gcF6sYnGFIymkyHE57I8lqzBu4Vy1FVVICUW2+THNhKNiUHeU0w9pgixsFS4dtvwb1kGexdOkmynXDDTE1OG2UtBIMyXM765S8QPHNeoDS9XMTKjoJi3ykjpP9LU5KjyHtyRQDr3XdQ9PHHkumw9rMybp17ff33iKbFRcUCCgmgp95zlxEZz8LY4UDgyCF9Zp4rjk6d0fKpJ5WqxvXIkAjuB0kuF8yVlfBs2YQLP/2Z7l3swAFIu+8+4z0igHXsmJg9eS/OR8pttygZi5L9SC8rsi5YyzBxkBJjFuxi01/XB4mTp+i9a8xDKvK+1AJY584hfuQIGTnLNzTMwHK74eEaeu45DTMaAFjhBqq4RJNuelyxwWetRQ+rlLvvksUGTbglx1u7RmoARcKPGoOo5GQE6AUjVswygUgctrX8xS/FKmpsyCG2PVlDlSG/T+6tZR55wFH65M88LQCr5U9+jGoBWFFwJTbCwPL74dm+HcUrlqF0w0ZUlZQpMCLjhz+ST2N4iOtZvw65z/1NYUeUIhGYixk5ErA7UDj/RSMFk3K+MWO035HNz8/I87n8iy9Q+N7bKF2/SSwne8d2xkBEvpHhWqLu2yvwWZSbGrGbYjp2UsAPhwuU8NZhYF0OwCopQc769Sj4dAmiPvsMUewHZGESJ4CGTDtLWoY8l5hOK8ZY5nGUbdiomi1SQkjD6Iu/ehqlW/hdbUpLThg/CfYe3RtIuQwJYRYqvvwSNZQQbtsKU1hCSAbWVQSwvkDhgndRIgArqPtivdrwTWssydaouJhEHLovCfFwdjpFGHAAACAASURBVOykFD6tk3DYyOUaiYieRuoYypDY0xw8KHkYezc+M0lUfT71ffyrzu7d1Bu5Zs7Uu8key8301MzTcHTqiFY//xlihg4z1moTht2V7JHoXRlKZ608eQI5z/wepZu2al3QI4x7MEGzxrxBG9QuHPymp0nGSdZOfQYWG3buS2TF1pck1gewSG4gM77Fj56U7NdPAOvXv4Jn55fqnVnXafCY0UKDiSs5JnGv5vvHHpZpfZe7mgKwwl6y8aNHCtRRch7JCaVlApZS75qHxFtuM1h7DBAx/E5QtmwpLvz61yJtsJaxtGohOa8G1JTKXe7D0M+XMnWaxE+bWltPEydgSEP+O++KPUy/aMp6maZXQb+mV16B78s9sKYkKaAhceo0OPsPMLoEWYxko3jpMpSsXyvvMRqcU0LMYA56h1J6zz4ocg1/VQAr/LV8e/cpIIqBGWTZkamYNPdmsZhYP4W9asmsF3YQFSXlTmMYSXNepcZ+prnqGg7a/EePGuEeS5eDw1XjptVIHSB2ZMh3OVLlFp2eAuu8u1U/J5EFXtuTQab8nu3bZM1Dia+YezYrMr55P1K+9W1DXdDEwOu/B8BiU+EpQ/n2bXB/+qn0oKI/htKe2KTxoCJ1kRNT0vIpP6NxKHW1lcEAAvRHqaySL1BNVYXhC0O/IPpn0VCX/46gCeVHPChaZEjnamvdRiaG1EuHL8rhsn/7W/iOH9eGyelf4vTpiB89RhKDOhcfrs9nAGQ5F8U2srZqDUtqiooExngWLfxIzTLN4GmcyAQzGi3W2NmAUwJoB8VS9FRxr1oJenDR0yrSxD2c+CLJkECIoKY/POQkPSwt1YSJtGtGcrIhC5wxGGRspLixOocPR8mKFUrh4JQNNdX6LCl33KHDqlGmQMjTIpxkxe/OKWtNYhIKS0pgMZuR4LCjxl0C354vlabBTZeGmGTOldE40uNBwrgJeimZyldV7pX3FSN/o12JKN/xOfLffls0Th5+qd/7HqyMf+bk+J9l4j57JlKpk2akLg9XpryxMOXB/eH72lxIkU24fizix1wvYJQvH4s4FoE8yGWSyU2aRV5YTrFxo541PSIsnbsgKoQmN83A+kCbcsL46xE7gJrgK3sFhNcbGxJPuQeB0jLYS0sQ2L1L3mFfhYGlGGQ2Ul/uVoIK48JJkY4fdz1iGNHeq5f8Bv4TABZN3In0x/TsIfmmpBNmszwd+O5TypY3/wXJxezt2kpnzcNQaXiy2aRHlkn/l5JUHlKcBDcGYGl/8Pt1L7gxc70GMo8b8dqrVzcAsEoKCmAvL4eDhZTXYzCRIi6ulYK334J3z34Zg6befSecffrW3StMTH8zkvZIIa5mNH0EA6spAEsR0EVuGW0XLfzQ2JeiopR8yeKK8ePevV+KPp90253y3/F8sUvgiLlFS6UikRLN6WVjTWAdQIbASjCI0mVLULJyVZNnplG4Vgvs0sVUQkaYk2Gala1Jja2lsc+GC0nDm40/3HjZwmbQ0bWbaPaWrl1RwBAK+pTY7Uo75WfX9DKc3lOPgZU4dSKSbp93Wfq1gf8bKYSSmJ49h7Ktm+E/ekT77VcFsOR7wPMn84SAQ8aQU9ZgDCDGGOxXFvRho/8QbZwFLr12aPjJA55egdxHlOYzfARsXbrVyn0i3/9ICSFlxEzmUkrW356HvUsHxI8ci6QbZ8HCNDE2BUWFkgLl/P15mBMTlIjDqHKaPqt4qqiA++23UfDBBwgW5CF6yBDEzLwRqX37whFh+kwgn2ciJ+QJI4ehxQ9/BOu1/50AliLos7JQtm4NCj9cqMQcTo855BG1P+RncUUPLA6o6IH1+2caeGA1eHE4wb2QhbJtWzQs4ZCJMhcWzFGdO0tWFEWfPaZ4btqoARAsFoH5HJg4uvdUE8/gCDIDlGrGdCrKqVatRHVJMZLnzRMLSimkZnPjABZg7HNLlqB00ybVU/St4VSYzIlGffCYGnv2LMo2rpfJOd95giD0SiN70Lt1mz5n0vRpSJp7i+HxcgUW1pUArOLFiwXMEcBiQ83EPbIbG+wdNUZyEv8hOyj51ps1cOS+x7qqOQBWIpldoQCNi79/RswpNj4EBfg9lc549IgBYM1/BSm332oAWPTvjJBrGYOh80pVI+ux4ux5Q+Y3aRxS77pHDOAGhtj1Fso/C8CS5QRTurduQf6bb0h1wPMh7f4HJG1kbW2kg60Ve5fnLT2wkJSEIO0U1q9D8UcLETx7AbED+yPj+9+XSkEAZ72LYJWk+rk5qu0YnMSaPXDiOLJ/91v4j2TC2qol0r//PdT0vQ6BmBi4kpMbNXEvWb5cJu60DOF+TyZr2sMPK9nNOGeqjIHjwoWGfK6iQqzDhOnTVJfl//3vqp/t7a5F6l13IYZWFG2MYB3KvQgwFrz+KopXrFaPkDB5IhJGjVLdKc+qRi5aNsg7l74/BG4TE/X9+Pn43ZsFYBHAzs9D/vsLUPD+B6g+fwHW1i0VOBUzdLB8H6nCMDtjtG55VtLHk0nepatW6Wyt44F1+jTy/vpXlG7epPrFNXki4sdPlm8PQYTIiwBW/vnzCGzZjOrVq+Hft08J3jJxJ4BFm4TDh5H/5msoWbZSQFHC5Anqd3h2cYjY6H0hWYCp8bwvVqtAN6o5+D2alU7LWkM2KqFUYEqs/SHpGxNPS9wC/SvOnYf/4EGxIMm4IlM2buAApN53v/5/DsoL33kbvqOZeu7pj3xPPlQEWlgPRl7s1aryC+DPzkLQXYTomDjYyCbxepSyW7pps0CxmEEDlRrI9Vffs6r29+nzVxr+l2rsHSIJUCb1zwCwWhLA6t5dLHSevUxBJ1DsHHCdkUbbfwCsLldD2XaI5MD1LV9NSvecMRoCR3pANfZMmwKwTDEO1WaJU6bI45GJrWQWeXfuFuCXQI+nSVPkxavwAuEeNfCsXIGs3/5GvSj9Ap39r9MAl2eZIZVrROKpe8o+l82mGWYOGFq1qgXPqa4is8f96VKUbtogr1V+NgZpVfI5vvACAsdOIKZPD3kTxwwYqKFO6EPp7DeY6cb5R9UC3xvK4mhEr3UTSnQP36N/FMBSSNC5s/JP9O5iOIhJXohan7Q7Yrr014WBxWEsPbkOH5KnbA0DJSgRVFDCLvgOHRMzk5gBA+SM0DegxuFERZ8+ArAT09NgjhgEsNZi35L397/Dw+9vs8DW9lqk3jwXrrm3XJaN/HW5L+E10DQDSwCWB2VrV6PwvfdECyRdnCAVNxfrVVcLeKLXg+fL3fIq4ktD5kuNyTA6ra6s0KQg2unQP8Yk35jmkwrLnzW7uMEmy3OC/8jwPDHJaBQiJga+PXuQ++KLml7TY8LeuROSZ8+WvrtOUgmbET50AjVbNiuhh8UWzdocPXoheOaUDCfdnyzV4emaPEFURya0RHHCEpIIybzV5xP9ueDDD2Xkbu/csRbAsrRrDxqp+Q/uFxCG6ir9fsu17YTAc/OUkTxN4plKdOok3J8ugWfXLsmuCP4lTpoE15w5Sqmi2S+bLerrYznhYtpF956N6t0lNeP0RnKzYiMBrlt3RLW9FkVFRWJgxVFDfuq0pnZFiz5SE2br0FEsDkaOVnlKZV5Kaj7BNW4a8UOHKE6aBTn9CvKYRHLoMGL69kHqD3+oBouH4j8LwEqcNgnJd95tJNV4PQL8uHUGjhxG4YIFKtxp2kiPK8qeeDCxcCihB8/ZM0Y08oSJAnl4UPFApe8MTUdtrVsi47HHYWnfXi8zr8YBrP9BwYIPpGO3t78WltaX5EGNVgj1/keyRoIVQVQFgohmGiG9e5gEQgPPZkoIeajRtJn+FNzo6c/Boixh1gwZ8zkH9IeV78R/gIGlFMKTJxE/eBDSf/CY4mmNHdRICmPhmvfSC5J7EeRwTZgAW9eutZIwytDCIFDw9Enk/OlPkso2BmDV3trQBJENEKcxxYwrXrWqAYBVWlKCGKcTsYw/buRhBTOPI/vXT4vSz4lmq5/+BHFjrm/4k2Fz5BAt+UoAlgBHtwFeMTm0eOUqGZXTXJJNJ5srNiKUoDm7dUbK/d+Uhw4NVotXrhDtmf4jfP8ptxY7w97QIzD8QcNG80Wvv4r8t981mG31pIzhQkDDAQZXVBDMM34uDLAbZsFMPjTuVpTdYnj10WC6iebWQmNfpr4wXaf/ABS63SpwEhMTtc/Uv+ozsOyd2yP2uv6XD0bQx6QkpEbNJdkoXHPcD7hvfWUAK/Sh+Bw4QS5eRk+1jSoEKP2J7d9fUmEyL8z07aCBbFaW5KtMnvEeOCBwgHs06eU0wmW6X6ONYj1GTZTHY7AsVq1E8afL4Zo6Ea7JnDZepyLMSCAsDjXeLxuBJBxY3H6HpESkbjP1p+Dl+ZJh1kSbYJk4Ec4bZyO1Y0fYIzxqSgnU/Pp/UZGbj4TRw5Hx2BOSyTT3+joxsATs5eXJLDrvlVdU1PM50UqABttKLr6SB1aIcVi6egUu/vHPVwSwWKMQjGGCkXvJJyAbk2zJ+FEjUXP1NSguKIDZ64W9oADBo0fgP3UCfqZ5ZmdLNkePKhb+lK+TkcN6hcMLSqCL16zSECv17nsMT4mWRrHfKGPP75dhf95LL8KXeUIyZMlehg0XcFOfOSE5WH6+QN6S1WtQtmmz7A3kJThgIChlKv7kE6W7xQ8baiQadercwOel/jq5EoDF9KzyQwdVfynRl/vmFRYbvzOZMWISxxtJrM0CsCiBOHtWz6bg5Vfh6NFVgD/3bzIXuDcwobZ4+VLkv/IaUubdbgBYTGiLAHm5Zvje05SasfE0fmc9mHjDFKQ+8JD2gMYMoSO/1j8LwArvxYFjR7VGgnl5BkA+aYoByhUXw73oI7EQeL6kfOMbSn6O4uCRxtgbN6DwzTcQPHkWzl49lDxFM2NKcupfQfoQbdsG/7kzGuZyL5PNQrEbWf/7a9WzBJeS592BqP4DUdW6NVzp6Q0BLDJ433sHBe+8K1m2tVUrxI8YieR5dypgIXzucN0zbZHnHkENU7wLrimTYE5vgaIF7wnwoFl0+kPflPRQTXtIJUHmYd5Lz8P98aeqnRjcQQYXzbXZY9S/ZLR84Ty8+/aisswjH057+44afpMZ2FwAS+DmubO6p4ULPlA9Ezd6OBKunwj7kEGGVJwsHrNZtRf3KMlRVyyHZ/MWgW11UgjPnxeTkz6MZCqRrckam0NhsWsjroDfj4ITJ1C+eiUqly1HxekzsLa7BnGDhxophJ07q2dQCuGiTyTbc02dpLUSO2yoPHUbvS9ZWcZ9KS2FOS42dF9aGkOmZtSP7CmYskr2KAe5BFi4NlmLq3n1lSsYihLXimPH4P18O4pXrta9c/buifSHH5Z/DtnneS+/CN/+I7IpSZl3J+JGj9H7Vn8/I9veS8/e40elyCG4SWsY+tEWvvmmcT+zLsrqwTVuHBLnzNZ+2tj3r8y5qHec9TT/Dj2gaHIti4riYuT+/W8yl6df7j/CwGr5o6fEOGetkPvXZzWoJNuUJujxEycgYcYM2NIzGtTqsq7JuoDgqVOoLCwSG5G1B9+hptJPw9+vKQCLvTgBTRqqy1bj1CmdY0y0DzKd8+qrNEhPoR1P9x4GC9dkEhCe85e/aDDN9e3o11fnLH3CaFVSH8CSPUPmcQ0C5PEbFy+lEplj9FXlpZ85dUpkCfp28nlZ09KQNGe2AsP4flHinjA2xGBt36GObJPMdM9n2wSS00KFhAuyoWWtEPrcDWrNryghjPzv+T3ICCNbjJ+dNS79BMN/6+sC1Kj2pyqhsBBVBYWoqQ55YJWVofCD91C6eoN6Ce613C/DqrhqUzRKY5ywJiUjMTlZz7W2n6gIgiw0rd+dO8Xc5n6TQjzlxpsua6/xdbkv4e8S5fV6a5pkGVBnuW+fDibSRi0ZGUpXI8BBiR2bDT8p/+vWKhWrKlghCSAN/whWUVertIrEJCG2pNxzEkHqNF3/ORkwNMMWIdLS8gcCiPKVA6S8ceEqzcyE4PHjiiAt37YF/oOMd01DEqM658xFdIuWQoV1hdgsfkagfvqJUh/IFEm57x7Ejh0vcIRT3rI160TBS7p1DlK++S39DkZy0sRdtEEi5fl5KHl/AYo+WoTKvAJRgWNHjpScxHxNW1ScPYNixqR/9rlAs+Q770TsuAmIpt8FP3cYdQ81vCUffijqePDMWUnxFHd9+x2iCFKTStlIZU4eHL26If3Bh2C7boCREBh58ND/hkbK27bBs3ULgtkX1fRwymkbP0lyNh64sYyZ3r5dz6Z0zTq4br8Vjm49UFWQL4NFsuvixk8ATGZFo/q/2AVH+/aKd7b36IXyXTuQ9+yzSjOJGT4UKY8/AXPr1kJno6urEaAngyaCiwxp0o03KvEvkjVX+8aEJjps3PgdJc05ckRxykyYYiFHA3yCazzgqiqCiitmgkjssOGGr4XVpiaiaMECeA8clLl30m23CrwirZjPP0jTy7fe1PMgGyj1hz8S66E6tMmyCOFaj7wK/v43bfjc0JTmRskU1x614Gz02VxThkrGYJnX+N+VuMLEOyZa1siklWvMRO07Ey/j4iUhZEQppzK1a7OpYp+MEY9Hpp0Fb78h5hk/Q/zkyYgZOhy2jh1gjqUhX93JVXMb1cZ+jo1ULVBDFt7pU8j/4x/gzzwpb7akW28FbFbk/+UvKqQ4xUl95PswX9XGWNdMxuAUnNPTV+ZLWx4zeKiSwWy9ejUOYGUeQ87Pf64IavoipH3vEdiHDG3ya/Cd0v6yaiXKVq+Bo09PJN5xl5p0emB5PB44qZFvAsCqOJmJ3N/+Bp6tn4ninfHkjyTJaHBFTJzq3JdG1gv8PtRwgnPqpFg2jNSuKPMiYfw4vTtkqDE9iJNypomRAp384EMqhmlOXryUU58dqOb0vX07JAwfoTViSkuXgbz2vfoX5SAVFTJHJ3ir6WIdAMtgXHENc5JJH6gaf1BJaqZkl3xZyMaMinUaeyoLDoLFZrJJkhDNaGyZwzaUA5HNwEk72ZmWLl3gJmAeFQUXE4gaAb3YWJYtX47iRR/Bd/Awohw2RPOsuFKnG44UVnhGQJ852m5D/MSJSg+jcbOMvL/KJRlNpZpusl+571VmZSsB1tGhI2KHDoajW3cxosr37YNn+2diM5ENRoYhI7tjGFPPiTcbrsa+b+R7RAEHpYsfL0bpqtX6/sl334mEKdNgSUkW6EGfPrKCvZ/vUENN30fKHCj1ipswCdHp6fJodL/9FkrWrEU0Je1TJsM2eQqSW7eGNSJJyrNqBXJ//Rt5ssSNGYnU7z4CyzWXTN6NB12jMxU+n+QD+g40fQ6FFRhMSf7P0f+6/UVpnnkofPF5Je5S4tbiqR8h4bY7Lj1Nfo6KSng2rEP+62/IxJpSetf06XASyGnTRvtx8ZtvSnJf7SlF3PRpcN12B6xMwuL64SDE7ZZJd/4bb2r9izE9b57OrgYXU6sOH0bpyhUoXbtaA7X4iVPkjVSdlobS0hLYzRbE8J0MBlTAlx89ivJdOwXYk3ZPcIqMPkf37ioEKWOn3JlnMw2mk2jE3aefgCjYbKimlD8ko+F+bmJtkJ0NLz/zCy+hqrpKcpyUBx+CvVevhgMsNv1kQhw5rHOUYRd8/q6ZMxA/dRqimbZ4/jy869bAQyZyoktSDsoYjXTYpoFyAv7e7dtRsuQT/d2EqdMVHiBDV5MJleXlqOI6qqpSMmOzziMFKNgNz70QWyt47Ahyf/U0vHsPSF6U9vjjcPQfIHCPAzjWXwlWKyr37JFdAFm7saNGIH76DMNPKDVF+wPPnrKVy1H45jtInne73h+yI+r4dzDR6vQprZmybdtQmZ1jSL/GDEfynFtgo/8NjY4vc7Z6VixHwSuvCJyMGz4UyQ98E5Y2V18ycXcXg2mJ7pdfUvNFKXriHXc0fBdDC5B1EO0C5I/qdIqdx3RfggLFCxeqCSQbK/kb34Bj5ChEJSYagN22rSh65WUEjmUqQYqeT3FjxsLWt1+dAAi+B77tW1Hw6usCUlh/OIcMEQAYhRrkPvss/AcOaqgSO2YkogcPRU2fPnBddRUckSbuNNVmCi/fuXffE6vV0bcP4q4fj/hJkwRuhC+C7hwgFr37tgHu+AOIGTRAzGZK4Tg4oWwwkWBq+/Z1Pi+HfgWvvCz5ZHVJGWL69ETs8JFIYJ1Nlka9+pfrn8oQfibupdZ2bZEwbTocTO7ikMDjhfut15H3p2c1ME+YMU1ppWK4RuyfVEsET56E+/13ULx4ieqZxBtvQMLsuTCTzUA7jbCBM8+lIrd6Cg7TKKvjfh47ZBBSv/cILB06alhSQhblhnUI7D0Aa+sWRgrg7NlG3RRuIgmqlpTId8vLgdbadagudMPepaOkUq5Zs2Dr1k17YOHrr0pqXl3khrN3L4HUCTfMgKVt24b3paxUUueid9+VAT0BDL4zjn795O13JQYmn6Vv6xbZhjBlj+8tmTLx06Ybgx7uAVwTrOd5pnDdb1qPvL8/Z/Qt3bsh6YH7YOvYWZKwgheeg2/PfvV+8RPG6V7YmXoWtnyRpK0CAXqQvfUWyg8fFthK6xgOrchO595ctn4D/PsP6JzkcCH5nnsk9WK/VntxX2SC4q6dGnKzp6J/LAFe+tBa23cwBkMvPIeCV18TgOWaPkX3x96zh8KHIi+eUazjPGtXoWD+qwIOYgcNRNoTP4StW3cDLHrvXRE3aDrO3jh2wjitbw7JaIdz6eWoDr2/21BKtt3JE1L7sO6LG3u9cbZd5grXpKyLAp9tR8miRbIpoS1C/OSpiBk+XGxBAnQkHpSuWYXyLVvV3xJwTv3G3TpDdQZaLLpHBAbLd38hSwOmqtLjOH7GDIWN1An9YJ1fWIiyT5egbNt2VJYWy+csdtgIxI0bd6kmYx3kLoZv9y4UzCdweVD7I/dL9lD0U66JMklNk/rt76jmjFyPInuUFGsww8/N+xM2HW+Kvs/7EizIR+lbb6kXNaEGiXPmqsYP1wtN3tZQYjH7Ov5tMvTEdA4nd0f4soaN1v+ZEsL6dh+XPUtZx4Z66HDdz2dd+NyzcC/8RAzHxNtuQeyESbVWATSId3vKlM5cv1avzs+Hf/cu5L/2Knz7DiLKblW6aPLMWUi4cTZAv80m5MaX7D4MaWWTFitfpU6P+NnwfWluTRp14cKFmiZvHh9iseFbRZNR+j1EJ7qMxBYCNKT979kD/8YNCGzaiCiam/btB1ObNqhhDGp0NCz8b+jfY7UDVovhdUWvHBbR9I4IGWGGi+2aQ4dQ+fnniEpNgYnIP6c8TocWdvDQQQSWL0Ng7XojBWPYUDgmTEB0r96IchnGnTWU7x3PRHDDOvg//wwVF7IBpx1x994D69jxqOTvYJTm+o3SyjunTkTMLbfDxIMyxmlIn3hY0SB5x+fwbdwI/569YkZZunWFdfBgOCZNQvTV16CKU6DXX0Vg0xZNfWImT4Rt1BiYe/XU1Cxyc0VJCXw0Ndy4SZPm6Nat4Bg9GvZp02V8HNi5A76330YVJYZtWsE5fjwsQ4cjmjHL4UOXC7m4BJX79yCwfDkCpBRSztWpM2KmTUP00KHwsygymWDl1HjJJwhs2yYpTdzDD8FMACszU8+K02F+1qiMFqih99DST/Us7Cx0hw5B5dEj8L7yCqp8AdiHD4PjnnuVhsMrqqoSVUePIrB1C3xLl8PSoT1sU6fB2pOG6fUinXmw0PuLTXRONgLbtsK/ZQsqz2dJSsmpGePkq8q8Ajzt028AWrRCxdHDMtK1cHJss4HromLzRvi46TJNsFs3OGbNgqVrt9pkmaoD++F9+20E9+yFpVNHxD72GKJatb7EOJExdd1OmtRMTkb4fPliczobnZ4KsFlm0gmlTfkFqDx+HPz9IKOwZ0+Y6YWTnKwGWZ4AgYCmqWyy+W4QnKVkIpqTsmbEV2gDLyoCp7P8v6aqapg7dkB066vUPHOS/c/cQMOMFz1PgnAERZ9/TpNAS/sOcM6apffVM38+Ks+cgf26fnDe/yCiWrRAVEUloDSeclSeOwvvgndRlX0R1gH94Zg8FeYePUISQuMN0KSeIBkjjn/7W1Qcz4SlQzvE3f8AokM6+Eb3u0AQlfReYEG4aTOsPbrAMfsWvavVcbEI8J5bLLA1EQ9dfeYUPH99Fr4du0XPj//ed2EZcslzq7G/Wee+RK6X/8fee4DJVZ5Zwqcrh86tVhZCOaGcJRQRCCEEEmDAxsaMscfjOMEz49nZOPs8/787/+zOrL2e9diszXgwmCgESCgnlFDOOcdW51BdOf3POfdWU2pVJ6kLA+77PLKwurrq1ne/8L7nPe85BDc5TufPIc45c2A/wsdPIJZMwjJmLNyzZ8NBrRmLVXtM8P33ETmwX2vD8/VvwDZgoJipbAVh20B0925YGv1ibjmGD4eVTjhDhiKnhWTK0AkoUwu0cYilEB8DpCCAGmd178gRxA4cACJRWAcPgnXqFMQPH0Zs735Y+/WFZdBAIC8Psf37kCyrhKVHKexTJsPKdUTb8mYHF0EttoSTap6Tl4cgE1gQB3NnTGCTjT5ENtBxZqUqtLaBA6Qn1N6L6yhZXS32BfwBuObOgWP2HDgodNoOG/BMn8NqNAXvmfRz3JNkCESj0lhQMuwPGM5x1bVIki08YgRsU6fAMWyYAElS/VsK/j+ZL6TYhZC8eAHB5e8gvH2HKq3eJ5+AY8JE5NRUAzxTqirVvs1qWuTGTbVn8Fx13jcSrqeegqVHT8R270Fw62bDCn3mdOTMmg3ruPFqH2xyUWUStGkjGv7xfwm4dM25H94XvwVL3363DgHB9YsXkTh7BkkKkhMIHzIUVoI0nDopNl6GvbG9z6ytdaSfV1Ui8Jt/RXDdeoNN8Od/CieDpdTF1tdIVPFEYM0aRI8eAdlszvHj4H7scVgnTtTeG3rzDfjfWa4zy/XwQjgXLULOjXKA48tW4spyaUmFT56CpW9fVjulxQAAIABJREFUOO+/H54lS5CTgbFAED525DBCq1cjvPtjnX+OYSPUYsu2drb5MECz221qgaZuZKyuXklz7Np1gMYdAwfCPnCA0b7E9mOCEydPicHHyzV+LGy9+8DC9dOtFJYB9wIDBjYVNXIICu3bi/CWLQhs3AzriCHaozwLFsCadnY1jRPbrC9cQGT9WgR37kS0rBygFfqzT8P58CIB1AQ/YseOIvjWG0heugr7PX3gmjMPtkmTYWHrFhmXGS7uH5E9exBat1pj7X5wIexs12H7CUFIkyWZvqffyRxJnDsL30/+CeGjxwWq5f3gB7DRPS6ZlCEK/3azRXvzZgTXrxMY4H78UbioB8aWa7JB6hsQPX5ccZ5/+Qp4n/uyEXsNHao4Qhfv98gRRHbtRHDXTkTPG2wksoftfXvCOWYMXIsWw0LjFgbtLYBYURZof/sa4nRtmjAWnqeehoWt9KYTGouBjFeC77yjmNLFGPFLX4KFoEWGK+W+rVYiAsdk3xLcLruB4PLlCO/aJS0+7/Nfh336DICMMra7HT2C0OuvI3LkqJI1tta4H1kM+4MPmfGKRRIWybIbiG7bisbXXkfcH4C1Ty84CQjMmgWLJQcBzvc9e5A4cw62fn1gnTYNlvnz4RoyFPZ08d6qKoGIwbWrEdi6TQVm16KHBKbTUTsnLekXK5BSIm+9idDGTUhUVMHWrVggCCU1rEOGwDl3Hpzz5sLKYk3alaipRmjdWgQ3bUL8+Ek5zTnvuw8etr6OHGkUdlRMTCruiB89ivD2jxDctEWAtWPCWLiffwH2kfdpLBlvcu77/uUlFRrdjyyE59mvaO5/os9psEYSV64guPxtxbGM4d0PzIGLRWjmFCb7S3EXGRBsmeN83LNXnRXsEnFMmojcb39beQqBtfCRIwhv3oDwmvWw2GxwjBsL98OLYKMrO9+Pc4xaT1evIbjmQ4Q/3oX4+YsC/GzDhsAxcRLcjy6GbcRIJGtrENywHqGNGxE7ehyWPA+cI0bqu1hHjQJSCTdjk4AfMTKHt29DgONSUwPHmFFwf/0bsI+6TwWq9sShkX37EN62DZEd2+QS7Zw4Hp6vPAcr8zC3+5M9gEVdGnFt2wrfyy8jXl4Fx+iR8Hzrj2EbPhLJ6kr4f/caInv3AwG/mPvu+fPgeORRAYOpDhUK5kf37ob/zTcRY67GZ09dKLZz0X3zxAlEtmxCaNUa6Yo5JoyD98kvwTZmrFprm75TKITE+fOIbOO82IjY9ZuwjR2por5zyhRYaThE4PPfXta6yLHY4F74IFx0WB45SntK+sUumfiFiwh/tAX+376q+Mo5aTzyCL4MG44EWx737kVky0aEN2zW/uFi/LtsGWzshuF3TF3MSXkmbdmE4ObNiFXWwDFlApwLFipmtpbezjK85V5S+244jNjePQh+sBKRQ4dgo8MzDWDI3O7fX0AMY8TIx7sQfON1zTHm2e7p0+CaPx82FotzcxG7dBkhGkmsX4foCQJ9RfA+uhiOhx6GtX//WzWAKysRP30awVXvI7T/oIANx6z74ZwzF86Jk24puCqHOXMa/t/8BuEDB5GsrYO9p5EPst3XOmgQXLPnws3zuLlIuKkpS2avBPuZf7Wh2SbJiZoahLjnbPtI8bln6VI4Zsy8PQ7KHKQYZBVzH26+PlLFvbs97zJ/tNFxcKfvnayvR+Cln8P/3io5m3u/9DQcCx4E6NCpBpmEYnXuXa50/WRiOiS+fPSR3GFZ0NEZxHbU2bPgeuBBxb9oxhi9Zb82i553eu+txQwdjTFyysrKkqkEs6PBCA+KyIEDCG7eJFDEOWkSXExgR4xALC8PkWhUg+fIxCpo9mGiypGGuH4tGn/3uoJP9/QZcM+dC0txsQ70ZG0tQiveRWDlKsR8DToQmCzbR4+BRb3VVsSqKhCngPqBg0hcvWrQi0ffB9eSJbBNnCwAJ7R2NfwfrFSrj/W+EXBMmy6whCAYFw8tKhPXriK6/wASly4D1bVq/bD06wPbqBFwz3tAn8lWusia1QjRUerYSViGDBKw4qAOAxN9fm+xa/yIV1bocIkePyFtLfe0qTrQ7VOmKomInzqJ4Juvi3ESD4Rgube/kjb7qFGwEJyzWDUGrNZGjh1FbM9eoL4BjmFD4F30CGyTJgH3DoC/sREWBt5XLiHwu9cQ4+dRT+n734d16HCE9+/Toci2GQZ8ztFsU7TB//Kv5KBoHTAAjhkzlOyEVn0oFNzFzerJJ4DiEgOMIAuMANZHW/UsHEMHw/XoY2LeWNJ0y+QuefGiKkmx8jIkKqtljZvggW2KeVtLChXc2woKYe/fD44FC2Hpe48qfygoRIJJ//FjxtjtPYCcREwVEwJtDMhz+HnmBh/bvxcNL/1fxM6chWvieOT+xY+Q06t3k7B1ap6nA0GcR3EmrxfOI3r+vJhFbA91DB4k3TQBVNQQ+ngX/OvXGQfCggVwTpmqhISUZVaC2VZCpgkdHUlXttJtqqjIsIBvB4Cl5cDkhJWtMBldcSQYiJuU3kz33tH12nwTSm3QhPQIYDX+/J8RPX9RAJb3ySeV6DT+4hey8GZw5V72BJJkETQ0CKghLZ16SIF33pTDkHvKFLgXE8AaozFPCSASUBWAde4s6v/bfxOb0jFkMPL/5Duw0fq1hYuU/SgBLALOW7bCyQDpma/okI3lGgAW9xYCWJnGOH7xPHw//QmCH+81AKy/+DM4Z85uddhucfIzdXcYzMjGlg5mp04hevwYEufOw+Z2yRHLMe8BWIcPF8DLoJjBRZDg8f59sA8dgtwXXoSNAWBeruHGevIEYtTDO3xIOksE+m0Ufx81CvahQ2FnezYtb/nsMyVVnO8yz4iqahyrLBezKErw88xp5JRXwNmvL5wMmseMRWDl+/CvWAnHiGFw3U9G31DEDh/U54fLK2EZNhS2++6DY+hwWHv3NuatxwNLenHBPBT9fr/GmgBWSwys8Ib12l+jp07B+9ADyH3iSybclpmG1dQ+yCdDMPvSJQH6ZLm5Zs5UsMS9sMMMLFPzQfbcPh/iFy8iun07Irt3I0odn1jcAKlNXQq6QBG0ckyfAfusWYY+RSqwbWENp+Y5Acb41StGwWDdOsROnNLzsU0aL1AqcbNMQHgOAfK8XDGRWe2kKD9dzJJ2G5ysaBYWIbxtO+Lnz8PmzYP3K88gMXoMYqXd4cnLE2DLz6IGTHTjejT85Kfa/1xsZXvh67D2vTVpZtU5sGYtwh/vROzqVSDXCzcT7CVLkVOQJ4Zz+t7S7r2qjc0nNS6pIIcMrMbfvIzg2nVKsgv+7AdwLnkc8dp6o/JaW4N4dZX2odjpM4idPafxYqHHs/QxuObMh7VvX4TeeQeNb78NBHxKPhzz5iO6d7/mGtlsTKqSDaw8WuGaOgUuJkJTpuqMaX5pre7ZDf+772rNcr/JoeYO5Q40zklD4LT5tOXeTHdfJrEEF7hPqzWXNu5hMTUIZIjNW1KkxI9tbSx6OKZNg5OJBIt3TPorKhBatRKhzZtVvMpb9piKAJYBA24J8gV68H4vXkCE9uIbNiJ+5YqKJmQvOQh4TZhgFuBiOr9jH65GcOcOhK9cg2X4MAHsrqlTxQahHETzK3runACs4LoPkWN1wLXwYThmTFchRuBcip1ugp13GjfGz55Gwz/9I0JHj6v1Jf+HP4R9wkTdO/cXGd0QCF+xwgA8a2qQ97Xn4HnqGYP9TJ2j2lo9s9DmjQi8vwp5L3wNrvkLYB04UAwPFgXZZhbZ+pEKZsnKCrHRHL17CoQko57fxzFvrrEnssWG51kG19fw+vXw/fa3iF27Agv1RCZOQg7bIQ2LXZkPxKm1Sot4mx0uxq1PPy02XEfWE/cP/2uvIcQCLone3/wWbASwUq6pdMPcugkBFoxPn5U+qJ1uwEzQmcxbLGpPjl27iviJE4hu3wVrcQGcY8fA89hSWFlgRA4SZ8/Cv+ZDBFav0b5sGToIVmrNDBmm96GTFQGVODWJDhxA7MQJAdBkinkWL4ZjwUOwMMFpNlZ8ThECURs3IHTwiOYrL0t+LjwPLoBn8aOwUpM0jenAn7MQxnOLMV4j4/KaOuR0L4Vj3hzYea52KzUKK0zgGUcfOqR7Sl67piIEWdyuJ55Q3KizpMGH4Fuvo+HnvxSA5Vn8MDzPPmck51x3NMowdWQT5eUIv/eucV7drIR1UH8BGjYKe/fsZbyWLuxlNxA7eVLjmrh8TYBGjscF+/BhcD7xBBwsahYUSsM1sm0rAsvfVUwE7vOjR0k/kucAJVUSfh/iV68LWE1cuKTiqUBVAliTJsPz6KOK+/nvcbZu7diGxvfeN8alW4nGhQAXY0xjXCLqrOB5Hjt+HElqefUohWvadKMo0q+/nlV75mL84iVEtScuR/j8RVj794Fj7jzY2ELfvbsc7SgVQ9Fujkni2FFEd+wQo8k5cSK8L7wA6+Ahyk04DsEtm8FumCQsinHsbAtlbmS3a41yjrEYHt21Ww54tkED4H3iKdjZdZFfIBCPuWXja79Tuz0oXTBpksaHXTNk2PEsTNTWIXrqJGJHDin/s7ndcM+ZDdeSpbCyvTsvTwws/29+Dd+rv0OOxQ7Pww/CRSYhi3dcY2kX4zQC+qGtm9H4yqsymHFOnICCH/7QAOgYx5XfRJhM17feEUib072bckzdG5+1y6mclsUqEgKihw8q97FRXH/BArgefkTAU3PwrPm+nIpJCe7wvAp98IGK9LaB/eEmQDd5MmzUoxaLOYoEAad330Ho0EFELl+HpWd3uObMhpt5IgvvsTjiF84juGI5gtt3Ih4OwTp8GGzjJij+pAYy2bIJzqurVxA9cQKxQweBqmo4Bg+E55FHlTOTsNJc7Dtx7YoAthDPncPHmr4KDRE8Cx6Ea958WMeOVofW3V5iplFu4vU3BGBR/9W7bBkcM2apWNue+d5i7mG6ejfPYe72nrXfNXvvO8nteP75X/o5Gpe/D3v/e+B+/HHYZ8w0OsgafYiTQWi3qdPLQyKF0ykDLebioQ9XIrxjFyyhECgRwnkaOnMWyeJi2EePhvvhh2Hn/kLiRLOug+b3nsrtfl/jkhMKhVpsIWzrpgjMsNWMeh8Na9cj9/4ZKHrqaTjp0uB2KxjJz89Xm0+rFx8oD6eqatS//y6qfvVrw63roYUoeuopWcqn2vF8a1ajdtVKBA8flZggNzDS821cdG4XwlcuI1ZeoYXMieEdPw7Fzz4L9/iJoiXS4a7+g/dRzZ7+62Wkn6jtUVoIhcWqiEfLriPGZCMJgwpKZzwGpdxgS4qRO2Om6LAUAI2wmrhxg1y+5KZIoeQBA9VmaWWCwE3nxg2ELxnOjRRjdPbvh5Jnn1FPuI1BjtUm5Lxx0ybUb1wP/74DSMZom1sszTHadsPmUKAfunhRbIKcuOG+kjfrfnR78UVR2mM2O2rIIiLD6/gxtT9yojsHD0XpN76hdrrGrVtRt+oDtRDmP7QI+bNnqwebDjq+j3cpIGM/LH8eOnFSDia5Cx6EZ/58vY5jSnaQ6Psb16Pu7eVwjRyOoie/BA/71k2WFp83RempieAnW+XiRVAPiew2Id7IgfOevqKTkw7MtjDqiPC70qVOwpEUVT55CvXvrZCDWzIcgmvoUBQ+TF2BB+XOo4CTQQvdcrZtQcVPfoLozQoJI5f+6EdG8mgixmrZICDA/0+wiEkgXVaOHUX9hg1qa7Q47fCMHY/ChxeJmstnSrqwj+O2YrkWe9GSpfDOngNLXq7o8dQv8338MSwOO1wDBkqviy0l7G9nEkwGXRMY0RqYZWo/aa1QbyCt4t3ZLT7pVE3mZ2whLP8f/yD9CteQYRLLZZJV8bOfIUj6drciuMdPQqyuVm0J7qFDkTtpitZezVuvI3LlqowVCh9r3kL4Cc2UffQ3/+6/qu+cGnY9//wv4E5zIbzt4A6ZrmRs8Vm7Dp7xY1D89W8Y/f5uN3wNDWofVAthhnGNnjuLm//9/4Vv+y71iff6D38L79wHWtyKBLIRHOD8SFVmaL177SoCe/ZIv4pzi4EU9SXypk1B3rwF8EybaujwMbijbte+fah94w007v4YnhHD0e2735f+HPeGeEqonkLLrOzv2qV2BLYbUWiT86Zg/gLDGYdtZwQYOGcZSPO+zLY4VbvI9rh0UYKpvm3bEa2pRk4yB+4hg1H4iCFozH2j+le/RNVvfwf32NEoeuxx7V0ETvxbt8jpTvtoUZEh1j5hvFp3yTwiwCIAlWuMyRE1iCjibmpgNbGB0kaUQalv1SpD2P7YCdCFsPuP/tp4RQtzP72vPsmWnzNn4PvwA/hMF0LpwE2eYlTlWrtS64WHeIpJS70UOukyUTl1CiGCdsdPiJUq4Ir7u0nRtubnykrZM2GiNBG5HwlI5PcnGMHD3HwWKWAxtY64T4T27Ebta6/JtZbnBfc7skHYaiYtOK9H64UC4M57B6jtgOcCdR9CF85LV4Kfw/lDDTPv6PtQ+qd/isi9AxCiMxuNU8hGJfBRW4eG1au0PgmqFz64AEUvvKBW1fQrXl6Oin/+32jYtFnMXyZeefPmoviFPzJs5UsNbZbU3ng3Qd8tCUBaa6WYi2VlqP7lz1G36kMkAiH0+MF3kbvgIdC5i+0ewdOnTd2zeqNFNm4IgVMc3TtjulpK8ubOBdvweXZTwzH/8ceQ99DDCO78WE6C4QsXxbBhkkiJgYJHF+t3CNhkcuHTWmVb1htvIMjEtLGxqXWc9hOJRFKtchmtxXmPnGOcD5oTJuOHeogNjZJXyHHYDJCfVuUFhXCxJX7efHjpAmoWAqInT6D29dfh27EdOQmgxw++h8IvP2fMdVNMVu3ajY3SdWlY86FcGtn6RFYY21pK2EZJ85ziIgNk4nxu9CN29gwaN6xH7cqVCl4Z49DZNe/+WXBQ76OZKC41sGRa8/67QI4NBdTomzHTaBWzGrblHBN+1aaztK3W4AzrNXLmtM4a/9ETcA8bhp5/8+MmF0K2EJKhmFtdjYbXX4Vvy1YlO93/5Nty1EqtPzLy2S4jd6YPPkT3H3wX+QsXqX2Hr+FZ49uw0dBVOXlKDLn8efPUtsNCFc1p/MeOC0zOnT5NrSfS+mHBqRlw76Mu2/99CZHzF8UWpxmGAAFzT9New6JTMAxHn16ymC+iKQOdCttTvDLZBwTVKXju27lT99Xjr/4K7vtnGywHzjHujefPoZ46WevXy+FahYbiQjh69VUCF62sQryuBslASDEwtWTy2XZGEwlqLfKzAkHUvfUGKn/zitjjiVhEQCx1sujyTD1GskcjZHIRhImExUqk5ihdGwmYan42+24EdYMHDuiZ1L613FxPFti7d5PERdEzXzHiw+YgIedVwI/gx7tQ/ot/QfjcBTHH2PJOh2zF0l6P4l+aSZEtSwCB2mV0as574AFpSbI7ROdiQwNqfvMyyv/xJ1r3RcseQ8k3vgn7QEPDNf2+GR9T46x2xXvSqGQeQkCBz44AEYs40YoKgeNk2Or35Z5YZ7D1S4ulbyhnxRkzBVTThKj23eXwHzio2J/fl/sYmbxipDHB9PmQDEeNM4hukXpWQw1zKsp4jBljuAhTcHnPx4YI9tnzBlDCc6RvHzj79Yc114s4zYOuXDU6Zch245yePccYlynTYC0uat88NDtYQkcOofKXL8G//6DaRtUZMWgAnIOGqOBBJipjwOiVKwJnGM8zzmHrbMFTT8Hep4/icbbcNqx8XwYABIzJ6LcUFcLZp5/OXYKR6l6gPEckarC0JoxH0bPPwjVyFKwEGxMJBHbuRPUrv0Xw7Gnp2eUw56MbYZ8+Wtcxn09azGydTjbUKfFmLFPIM+ORxQb7zAR3K37+M2nmEXCjDl7h409orJsbgXHc2UJIJ+PKl34lgyDutXTfpJ5USkbDv3mLNJ+CZ04bcRRZeX36ac+kliHZ39GbN417Y9xYkC+tZMZn1JxiDtGWNllTjMF4eOcO1L/zDvx790uzl+2kudOnKyZO5Q3MaYJ79yrPa1izXvEHY7/8hQ+jgC2L/foJzKt/913Jp4TOnpHwP88qxSWUwHE4DQOy69cl70LSArtlpO372ONGe3uGdnTOQbYo1q/5ELXvvGfcEzuC+vdDtz/6I+3R9p492pZVaQt8kFpQHJGqKtT/22/g27iRJzZK2LI/d75xDrRn723hc9KlRPiSbLgQphhYreZ2KWYaz3Qz/pf5RU0Nqv7PT1H95jtaCzQg47xkjEATF54DMRqfUEd0+gxYiY2cOSMt2MaPNiNy7iJcJBHMmyfphBqCmefOI8fpRslzX0He7LlwsHuCuVUaiPWZGRfzubUs4t6OCURxsVRiV7d6DXInT0DhkmXa0EN5edKoKSgouE0Ysvlbi/pYWanAv37dGgXb7jFj5DBHy3n20aeu8OVLsnRln33jvr2IXr5igCpcTHabDi9W1uk65hk9SvoUufPnS/SQh5kOhMOH5PRCK1wCQoglBAZJSNk8NMhCyJ00UQuamzEfPA9P2fwOGYSiJUtQuOwJATHUxKh5zzgAo9fLBVzxcOUC58ZHajJFDnMcdk0Kgk4FRKNHjFQAwmSIgTd1hOhER8th384dqrgoQGHARAo/qcd19WrBpIBe7uRJ2rw8U6ZpA47GYqjmhnPQsOZlMEomRv6iR1BAwCU31xCh/OD9JhH33HnzlNyzbzx49Bgi5WXacGNlN1UJ7fbV55QkkJml9jj2vTZ3IRwxHMVfelqCgXRDbHpWZ87I8VEB98VLcJJVdk9faVZxk6RegSqHefmqNnPM7B4PmMRSzDbw8U74WXEgYysWg3PQABQtecxwsDBFc4X1UCvpxEk0bFqv7waL4VxY+q1vIYfijemuckysmPhTrPLMWQRPn1QCRZc24kfULGKQ750wUYcCP5eikBq3d98xAqLHl8kRifcePH0KtRs3on77NiRv3IDFalPSa2eyec89ek4EJfheTU4a7VhbfEl7rVbb+Xa3JrbUXkmNC+Vjzp9D+f/8B/gPHFaS7R03VgeANNuuXtchSCFStv/QgS9//jw55tjyC1D1u1cF/rmHj9C/MVAkECQQyNRKYSLIoIfJJw/YVkXczTvlumtRxN1hB10IvW4PcgkSZDis2K534//771pPBEZ7/+3fIm/uvMzDxd+3WsX4S5hAa4ztBXT6OHxIul3UB1N7w733Im/mDOmcMemxyU7+EzFLJkfUaqObHUXc6bTpYsJYkK9nqoOIFb7r1w2X0F07pdvGtgQyKlz39Idn8kTpDLCtg4G5AjCKObL17PIlhC9eECjMwIgBRuTaDThHDJNGoWfiRHhGj1H1heyxyp//MypfeRWeMaPlcFSwZIkCCLIjOb6NpKVT3DgQUNDFAMPRo5cBKA8YpMSGwH3C6bwFwGqPiHv3F7+Onn/z79stDKlE/eRJ1FG/cOdOiWS3S8RdLrA0g/AbbB4mwuV04SpDiON1/braTTh+AipicTgH3itxf1ZJGRiz3ZxngDQaS0pUnZJtd//+RpGENtNFRdqnlMDxmaRE3ONxhPbvk4YNNRpZsbVxHHv2gL17D9jIzuTv5hcYWpD5+drbmSDSTY0C2TRKoWsYNRKdQwdLLJn6KcGiYoTCYQFYZDSzcES9vLo1H6Lug5UStZa4LYs91DpJuzgOFFGuX79OTqH83dyZ01D89DNwTZgEW38D8GIQlYlRdyd7C3+naVz4XOrqET52BDWvvYoG6eOE4BlD975+CpKZLMdqa8UmZKWWwL+jR3f9m5+sFo8bhQseRLdvvCiR96rfvY54Y7309gqfeho5TGDKyvR8Oe58NraiYp3dLFo1D8KavhPBTTr8nDsnh0G5V5m0frLH2c7msNvFNmwPsMfkl2cFQTqtx4H9UEx2Rl86jTpV2bb26WO0BjIxPn8ejevXqQDIe2fhg8Y01DVKATWKC7hPHDoocxLapEv30uVA7rRphk7b1OmG8x5ZDQKZDBmEHL8f4WNH0cDCGFtXqLs3bKgAFjo8UttOCZR5pUTca959G7HyKu3ndF62cf8Ra4XgvrGU75R9pXOtslL6b9GKSnhGjUTvf//vmwCsKgbgly/DceQw/GvWCEShTp3Gha1y5sW2/7rly1G3cQMCe/aj51//BfLnPyigLXzypIoHgSNHlYAxRitcugS5c+bBMXgochp98O/aKccs7p0CQrjfzp4Nz7iJ2v/StZJSIu4ESLnPOwfcKzAiBWKz+KDW0mvXpPdTMHceSl4wXEXbc4m9WVOjs6Dyl/8iYI/C173+5m/gmXk/4qk2Xw6+z4fwsWNyzuRzpYEQi6ISok/QxTUoEIat6S6y2+bMgWfqVBkOUJuTjCuCAqGTJ6XRyDnlP35cxVXFmjRP4jkYDOm8YfzKggbd36hh5SJbl/F4Bj1AMQSv34Bv4zrc/J//ZABsBXmfnDuU3iBLKZPLGffRG9fh37dPGkx0B2PRgQZFvG+CwCn3cgKv3JOp7eSZNk3zw9mjh8AlsXHq66UdVfY//kl7R/GTS1H64h9/AmClPRSuLz918LZu1VpknMpz2Jqfp1YqznOOA2N6nuHeiRME/DZs3irnYYJRjp495WJGDUyCKtxLWJQSSHpgv8SyWXAwNFZtmkMsZuX06wcrP4OadmfOwtGvj4xgipYulVC4CrOSDrihogbjaP+evTojOIaGKYJNIBPb4Hlf9nv6Gef/1OkqsDu79zByo3Ze3ANjN2/Ct2WLtI8Dh44gQias15CP4dxgDkSDL+ZaBIucQwajYN48Y34MGao8Qx0EgYA0h2km0LB5s7SfOD+p98a1QyCMTD+6qDFO9vJZTplqFNDYwWACySzuB0+dki6ub+9ugffJeFKfw+dLIJHPiM+SOlne8eN1drKA52DeYrai3SbivmwJCpc+KQdQgn7pl+6dANbaNSj/xS9VoKD7Ya8f/9gAsFL70LVrCB4/joZtHxk3BTbUAAAgAElEQVT56MVLQI7VACzpBB8K68wlS9Pet7dhSjVnLlzjxprOtLcb4TR/VJ+IuIcFYBn6qnuVhxYufQK5M6Z/YqggLdSgnLxr33kbVa+/IZCQeQvz89LnXzD0RK1WxZDKubdtQ/DIIUSvlRlxSfoeQEOgeFTFl7wpU/SMeU7JlCBDdwDnYeTaVdQtfxs3f/Izg8Gc54XrvlHo8cI3kDd/vnEe3wW4lBqfO3UhbM9S+EyIlZsxLUkDzPsJehOsVtcFiTjr1qJx124DNL2nn2IePXsyG2NxWEaPRuG8eSiaNEnYAs887veR8puwl3RTbOKdPkNzQW7dmzagccdueMaMEq6QN2uOnjtj4dT1mRiXtAd4dwCWwKAjRsVlxQrYe/dE7tRp8Iwdi2iuoZfiJRreWuVc7KuQ4Wa4bx8Chw5LY6Jg4UKJTnqnTrnFMpYMhggP+/37ETywX+1IAq2iTAzj2sS5qbIKQOFhOp44BpmVFyOylqJ/6PQp+DZv0kFDVw0mP2wDYALDTdHZn44gMwwQg9bcZOicPYNYTa0COgYGFI4k0BW5dEnJaoDV/bNnjcOfgrlmhZYbKC2nWSHl5uyZPgMebtLN7I/lVMEN8fBhWZFGLl/V4cQNWlRGWq/SMrhHD1XWcumcMGy4giYFxKEQKs+eRWD9OsTWrkHsehny58xCyfMvwNatRMKnDA7I8uJBRXesvLlzlIQz8KYwbfD4US0MtjYxAejx/e+papwwE7aOAFg8CIPHjmlcGLQyoGPw52QLQyqxsNmagBpVo3iYs3q6Y4cO0NDJM7D36gHXkCFypWIyy+CSgtgM2BRUE0g9eEgOj+EL5wwLZ4Kfix6R3o+AGh6oTJLoBHL1iphGwWPHETp3XtVpgnhkd3nJwCAlnwAkQUOi/JcuqULesHGjxrF42ZMS02Q1kdW5WgqNHzkC+/Wr6o3ngSEGn9MhlgXddwiIMdDi74gN0I4NPOsAFsEU6kBUViB0gLbHryJ4/JQCNybx0t2oqNC9EqhiUGfJ9ahNksGGc/AQASRVNDLYsw8O0v7vvdfQBkv1d4t4YzAUuPkGDxwybbaHodeP/lIBektXZgDrRQUl4UAAdYcPwR6PK6nPyMAiYPbWGwgcPiFgqOS5L8vZJOPFPnCnU9Rjaz9DTyBMB8QVKwxBZgZrxSVKuGgqwOdPt5zmz5Lj2SaAZQJ7NqtFVUwGEQzwOB+5D3I/9E6djG7PfRUegsI8QGJxhE6dQODoUVXMGBQTvEI0DjKHGPBRqNc9YQKcw0cILGGiwjVfyapjGoBV+PjjArwJ/DKpDezfD//BAwJSBF43+sTk4qFIJhKDLoKwbImprqlpYmDdNYDFvZ8HLpkF1FST40ojoidPSQiXrJiC+Q/IxYnj0JyBxf1S7R1ccxT/DDQa7UHVVYhWVKmtl8EUK1IsIBitewUC9ph0cA91sEARDsuFlWcBAQ2eDzoTYjHtrUzamJgIiCotEdtX+wOTj6JiudcyCGCLKXUFGCyQtcUqrKN3b7FoySI22Dj2T9Y+K2nUTTl9WgxPApmhCxf0TAsWPSRHS1aHWQjy37iBgvx8OKwWnUF0j2GSTsc5Fml4VjK4bG4vzkCcgq/cvxr5/mfPiTFb/PgyuKdNkzYbr2wCWLGr12S+QtFxVvV5nqW0fziO+sMCBpnQAwfANWS4Wr3I6qx5b4Xmed60qejxZ3+uc7jqzbeaAKzi51+Ag+uDZ20kqu/C84Es3vaIFqeSRAFXacYIwVAI9XV1cLndyCdgmQrW2VJOoIyt3mYLmd6DRbjqajFyq19/A9HKSiUMvf7yr+AcPlLBvhieKXHYaBShfXtQ8+qrCOw/AEef3nIfo5OQ9lWy7MSwvCQn5cYdO9GwYZPhrFVSJOdKutxSpNjazZBPSAmsEsDiZ7FqzERGTOiVHwgQ5r27yZaYNQt5lBCgQxfBD7KWzpxWgFvzzlsInjgNa25eU2EvJUGUvne24wjLuNUScOE6QzwJz5j7PgGwYjFU3bwJ//59AMWO9+9TW1bR40vlLsj1JFAlHBLwRHdami9EK6vR8/vfFXuSSRkTZsaRXPO0RXePGomCp78E1xjDoZDjQlmCug9Xq1AodrjDgbxp0wwQi7IUZIKzndRiEUOn/Je/lHuu895+KJj3wC0gDp3ZGFP4d+zUcyDjqfi557S3ZLoMEXcWQ6PGOcm472YZAkcOo3b1ajEUcydOQPfvfEci8yoGmVqSNoLmjX6Ez5yCb/16FWANDU7GiAmjWm53CABjHKRzms5vZIGnJZza+6uq4Nu0CQ2MpS9fQg71U1OFJ8asXEcEoMZPlImLc8QoxQAtntdkCQTJmj6A6ldeEfuEQA3ZMEz+eZZI+7aFS/IdvkYlWoynWagRsM1WRDIeaapidlxw76YGD9n7jMlSDAm9RyAA37o1qH13hWKwPDI4Fz5itK41Y3+xvbyhohINJ44jtn27Wpipd5XgXpIDgWI8dziertHjkDt1ikCjhvUbxJzlGcN9hiYuBrukp9F+HAopx2AsH6B+a3m5sWckYaypkm6IEiglU/PCeREBWOzInztfLowsbjcljfxOfr+c+viHRXwx59LGhWAJf5/5gGvSZMlgMOa5E+YIzQVidDNkPkZ9vstX5BJOVqlamQlKaH44FDfr+XLfIiCeYguaNy/HdDpUbtyg85wug4wZVcTjnki2bM8ecI8YARfF5qlH5XTCRrfzFEhqss79e/bAv2+PzAK45qnLrLyN7Ggz7yPgzvnKvJEs8vTnzTij8p23UbtmjfZ1zknut3JXN81tmsacTvYcg/37UL96te7VPXwYip96Wp0sTa9jjBUMCgBQ/nHyhMBK3Re1YmUKZVfsQXCP7G66U9LELFO7cqal0QRgsWPkxAmxhpm/cD+kyQwdaO09e936q8kk/OwaIVOzslwAp71vLxXfmRMzduG5RYYgu0eCB/cjfPqM0QLPe5culE3PmMAlzTPYjcM1LBC6Bb3A1Pqrff01XPtPf2ec8717wjNzBro/82Uxgtr7vdsCmv4QACwWtgL79yJ08ZK6X1SEra2T8RDXFWNfFR7oJs48iHpX/LsgD8kBg+AZPFjSEwEaRuzbh+DJ03DR7XTmTBQ/9SW1jSMeVeGBrtY1b7+jOIYxK4v9+bNmy6TNVlxidJiwM4hxdyqHaWdrclvPMvXzjua8dwVgKfC/fBm+j7ai6revqLrNwSQSmHQY1UCr1Qar3GdavhjQMHFh9Vxi8fl56P7815FLy2Q6tKQBYHzPGIXe/I0S+U1Sw6imRpUQHp4MUFTpLCrUfxPtv4XubNrKk7IcZ6JSXoEodbMa/apgWoqK9btMUuz8fS50slXq6gwqcU21LL15UKk9zOFQ8MANnhoefA0PKzrqqaWQ9GEzQKdOF/W82Ion56TmInWmrbCqG5yo1VWGfSbbF+n843ErmSWTh4e2KjBMosxKRcTvRwVt4NetRWLnDlhzLMhf8ACKnv2KnpOqbnv3KAkmo6L4yS+ZVZMhGvvIxYsKHmqWv6Ok0jtlGrp9+ctwjR+vwFvVuw4wsASONDbKbQfxmNEOxXYagnmpgy4npwnAIvOKIpj+bR+hfvMmVQX5DHnI5HGjph6Yy43GbVtR+yHdrIz3ZSVH6DRp5V43ih9fioJHFisRSDCI56EbCCC0Zw8aVq9G6PRJA8mOxiW0yWCVC5qVK3u37gYl+/JlIzjJgYJtVllC5y/IzrvkmS+LBcY5EAtHUFd+E4HaWhSxslZRiSAZFbv3GO2s1IuiVe3oUShY8BC806YrqW1PctXRxdzeTYKv0zpitbKmRvbcdW+/ZbSyhSOm0YLTmLsOBil9Be4xEBYbhTpJDO7jCSXftEv2fbRDQoDU9hGT8ZbLsFvne2vDdTrvgoH1opgbBHHKf/0rAb7U48p0cf5p/bAdgdVJGkO00M7M78lkic5HuU88aTDvDh8B20cad+9SBZLPjgA9g2etvWZJAe+hQwAWg2lqJNTXKyGjUx4rn9HKcgUMJV/9qgJSPodEXT1q334DNStWqBLNPYfj7Ro0REC9d/JkCS+yVYl7luj3DHxbAbBSrXNMiMiEoVV78OhRsYEIZskNhgng6DEoevAh6SxV17I1LgdF1KLIILJJQKZh5QeofustMX5aZWDRRebKZYHIwUtG+5cYJ2wro+h4OCIXuny2MI8ZcwsrgmPNoJ5r07d5o5yKorU1qngqKVT1Om60aDCIysuX4LaH9sxDhwoE1TPkXCVzIUJ2a53s3rkOCBrIjpuui01mI1a1k2ldsEhC5yGKhM+dL3adTjm2Q6gYYgT5+l3uC/ZmhiXmhOUZSpCf4A7BAwYpzr795AIqxonFinq2dVFjksEwkwuyVKgrWFurhK70a19D3sJHBIKkM0f0ESzYMGFmq/v2baj78EPdd8mXvwIHtTpMO/KsAlhXriKw/SMlAkxixA7yemFjQWfwYFWPWYEns1Fi6GS3sEJ84YLcecnudPbvL1DAt24dqt/m+WQwsOguJvYFHYxTABTHPgNDpOXMOc0QwbRHCAWDcvQVgEVwzWw953nGdRq+ccNgITGoI4OGRihnyeg9hci160rKGPxxDbN1K3URXIqammzB7R+h5revIHzpsmzju3//+2I8qoW+0Sdgma3t/v37ES2vUFs9E8bcceO1Jui4x/WZAkUzAVgEvqlXwznWsHUL6taskX6Xc0B/FFBCYM4cOIcP13sIwNq+wwSwTmnPE5PA1DCVk6g5VHfQOfjJGGhfrqGDgFjyvf/dvzMYWJEIKi9elAtfdPlyxC9fhnfCOPT43g/FrDGKbOcQLbupfT1CU4JkUsUVOkMzFqpf/aFaSVV0IRtq/nwx8K1MUumETdMb7ruMNa5cRsOaNQJ3maTzvVhgIwNOgfvIEVq3dEKr/PXLAqm8Uyah29f/SPqYqTM8GvAbBdH331eskztpMgoeXaIi6m0X2etHDqtYxDFQwqczgElJrbRdPfeNRP4DD6otjRIT6dpjatsWUBTUc+XZQdA+XlONRCxqGC0xBiaLtLDIYKmk2v3SEUcTFODe4Lt+Db5r1+EMBmGPRbU+qZFGMJzrUfE0wfdUrNlKoKH2VTKFa6oh7UGanLg9ej8bNVVac1JOxeaMf+vqjHi6qkqAgFrZHE61u7CYQPkIuD0AC84EdVOJlMlaSlBXr65O84A5gOQv0osH5neIRiK4cf26Yjgv26ujEbjYPlbfoHZiFvIc3bvDzrH0eg03WgLRdbViEPIzuCRYEOHzJrjFNm2y1AliSQeMzGD+N8eWHVVON2JWK2p55h46jATNkPYfMFrCFi5C/gPzFbs2Xanv5PMZGmc11QLI+dlqeVTsUqDPt7J4qHFx3TouHQkO+Qw5J9nqWF2DaMVNxKtrDb1GmiAQSMzLVwGebvQs7DDuEzjZ7PlqPtBVmHOVxSU+FwKE1Bt0u3QGc4ylu8TuC7MtjWv0FkYwgX/Oi/p6I2+jGQoLCdTFItDK+ZXq6igoFGDU3FWZ87Hm8iWEqqpQRG1fPlPmYfzM5vPSzMW43zMf4MVW5iZnvLTxZG5GV8kIwVaCyVyLDfXSQdS98dn06C5tXD4nrkk6QLeniJ2K1VWEJ2hAENTMkwUicn27PbeZ7+joJxOH92FqfArkM+exvi/HlEBdfR2ivHfuR7U1hr4jgVU3zahKNK6UyOAazuFnZdAJTA2HipChEGp/9yqu/Yf/rLZR6UYvfhSldFoePLhjZ3Mr8/YPAcCKXr6Eipd+KfBJcb8KDJQvMPQ5yQR29OpldAhQE5x7VffuyCkoRD0Lw2fPAgShSawJBHSWFy9barjXDh5iOvYmtd4pFePb9pGIPTwPOWfzZs2Wk7N3yhTt/18sAIuTle56x46ili10x44ZPd9Jg24ulM6sPLa6fwrVhwI3JseeUSNQ+MijcFF0slkPZgqN1kFATSO6xPEwD4UN3Ss3EUi3sSk10zK45R5Sh2UoqIqWKliWHCR5SHPzZxUgHV002QJ0fJIzl8NpuCqmV7UI2JBRwP52ud3EkRSK7dR7JvmHyQ/bNfh3S4e5eWBJtJ33FjAqFkaVwQOL2yuB7ebBQCQURNXZs4gSoLp8CTaHU6g/KbLUb2rYvh1Rij1XVsE7diRKv/09MVLY6sKNhxopbIckGMlNqvDRJdLLoHhuehB1WwvhSFYmnrmthbCpqp2qVLcwCVJADQ98CjgHtm9HzaoPVEHxjh0rPSDXYFbaSrXQ6lcsR8W//kbBjQKEeFJVaXufXmoBZFsFqzA81Joq3qyIUStozRq13zDRo1C7+57+hvbDgIFG7z6ZLidPwvfRZrEciLwkfAzIjGAzf95sdHv+GwJ0qBvBcamtrUU4FEI3BnyhsAS/1aJ4/jyC56jxclqaBdQfIpOEG0xbfe8cqmwDWGQzEnCgTTgtgQl2WEsYlLDtiYL03XRgW7sZGyPHn/+fALPYBPUNaq+rYNvDgUMCushQol4GA9dUQql5TqCSuiabt2i93VkL4Th0e+FFteSEzp7GzZdfRozi+R1JVluYgwoC8wuQv2QJ8pYtU5IQZ1sZzQouX1Lg6qJBA9mDDJ5b0nPqCAPL3F9U1QwGjXbAM2cExHCOuNni1a1E48igoOGD91G3Yb32HoJxBBN5P857+ivRoRg8ra4FMnNM1E7RMgMrfSiUSDHxoIsN5+7lixJxZXLFViMvhaLvG9WpDCx+byZ+rKySgs/1rGCfgRQFJnv1RLevfg25dEZlctAscOJrmPTVvPaKGGbcCxi4ku2k+VvKOVwMS16BDDr43Bw9e8HRo4fhqtjchpvrgQlhebnMGdiqoSICBWKrqxGtqhajRW2I0ZieUeHSx1DwzLPIyc2FlfszQaYOUFM47lxDtW+9hYadOxUkFi5eLD0RAgsEEWvfW4HKt95U+5AEf6MEL70GE5eagIsfkcajWrwzJBAM/Kn9xTbxho8+gmf0fej+gx8gp3tP3TevbAJYNF+JnD4llkG0olzAAlusFdDzb+4rDJTJZEslE9KZqVG7CNl1ZH44R45Si2bV65+0EBLAcvXqJfHszrzIHieAxfZBAljaw0ztierfviLGIpNqw03B1PBkQmvqnLCFpeChh+AeN94QejcvtVaSeUONmPNnESJjr6JSZxCfu6WwyGhb8jUIzK559121UbK1Vxp1Y+6DZ9RoOKjZyb04LSnPBGBJhJoFuJpahE4eV3BKoJSAUCELPRQTpqOc3aFWysZdu1D3/gqBniwYuQYOUtLFZN4QE2ZbOP8vxe1N7a8ODjyfJ2UiGIdw/vb8sz9TOxgTTAFY2z5CfNUqWKIR5E+bjuKvPa+2JrJyeH8E/BjEs/2RDDIv9SaHj1BbRdVrrxnny3C2e02EZ/w4tQ0q9jLXpuI6xXNGmxBZMo0H9iFAdnAihsLFSwzW55ixAgfYvkXNKe4HBMAJqkuX1VxrMSaBFRUInzqpogG1YpwDDT2tTABWcP8+VPziF9IcEQDCuFXJZT4cvXqrNZTAOBMMrs/mANYt+0sKHAlQ/D4hsJzxb0p3s61Hw2fqq61FY3U1cml8IOdltuG61ZrCYkhKA7Gt92r+8/RYvcP7C3MLAh9sDWOrWSxuFA4Ym1PTyGyXTRVV74RpxPul0+i1a9dQW1OjdV7s9SKf7fX8TO6LLMgTHGmu+WWeyWJVEdxgIZvOsGT9Xrqktj+e02SkU8+Juk2K4SUgZ5XBVdWFCzJUiq1ejcjZc8idNhnFTz4jLVm2hWe8uAbpuBcImOMSU1uixoXsOIfDmC8pxt7dMCRMZqnG3x+Q2DfnusbF5VZMZDPnSLvAGMYYeqaN6phh/mRlUZvnFp9nmm5ii/NFZl9RrV3ek8bfZtV7CLTi+7WQ9zXF6uEwunXr1qJ7dUfneVOszn2da5kFe+ajzE04/gTqTEmZDhVWzBtpnvNm0h69k3sWyMUx53MxuzEsoSAQYk4VNwgduR4DtLW1YCjU7IMZr0RvXFP7IlsIuUfbp02G50vPoHjyFOQSXGkNxO7AF/nCA1jMAa/fQM3bbyLAs4XrjnsRCxQsMLC45DXY6wJivXkabz6vhN2OqouX4N+8EdHVH8pwxj10iLrKCEY52OpLbCUtBiYRiLmOf8d2MZPZwp0/c5Z0Dz10uuQZ+kViYKWE1UV/3rcfwZMnROFmIhElRTkeg93mgNWWmSGhjV//Y1Sr1U9NEezRY7TpE/lt81BsElBNe2UHEgj9llm5TQmUtbr587VtvX9aK0LqrvieKX2KVILZIoCV/qUzvFdLn8/DuLqyEjl1tcilbSmr/zzYbA5UvfwSfKS4k0HgcKiKSyFfe99+RoWOwTlZWOfOoe79d4XsksVEcXi5+qQ5EPFpMvDz79qBhg0bjHbLhQ/DY1aEO7AH6aVNQA0PeOqInDgB36aNCqzd4yeIMdBURaRT0VbqeH2AaFVlE8vN3qOXWiHd940SU4htbgQwmzZ/tn7QJezwEYmIE6xwjR0nnQjOs9Shx0po8PQZNJLVsWN701dR8JSfj/zpM1GwdJl6wPlvtx2KrFbzmbHSfvOmqL6kYXNu51IYjy12tOxuaw59GgCW6WxF8Wn/pk06fKkVZ6d2Vz8KUfZS21wT0yh1z6Y7H6tTZKvUvvsWIleuG22e1MAaNFiHosbBYoHNDCh0sL31hkBuV797UPz883CPm9DidCGoTCYQW/jIgmIrF0U3eY/BG2Wo3rABFn+j4XJ6N5QAbkEMAmmFPG6cYQ/MfyODkowesmqoAcYE2wTjWrppjiFbdtiGGzp+VM+7+EvPinbOA6NV+i2DBoIo/DxWORk4pIFzQdqonzytgIhVaAnNMjDiIZTGZEztL3I5a2xE7RuvqV3GNWiwElYyEri+b78IOsJgBdTXS2+HABFZsJwLyM9vUwOLc6KRbcrr1yF06SJKHl2M4m98K/N8j8fVtty4bw8aNjJBLDfGnQAcAcOB1HhYBhdtwDO03aZcd+qXvy1mmvSrupUaoF7ffmJW2nr3QQ71LcwEpKmy29L6M/dbvbdaWny6L2rNRClce/26/o411KvySSMO7+JHDdYin9kdAFgELbmPkvVFdmbxl78CW99+BhMnGETturWoXvkBLA11yIklxGJ19O4L1+AhMkyhVlGms1JHG4VfTxzXM6E4NMXPyUop/c73kLDZkTDHocMJZhubfJMGFp8nGWm+Bml7MeFguwMdW21m61rTXtjsmRB4EZuNF8fVYkH9+++j7sOVOqu8c+Yg/7GlcFJsuZWqcEfPI74+I4DFM7y2BtX/+jIad+9G3O8TaGBOWt0fGZ4UV+Y6Y3u0gsS0gD19XMBWGla+6+s0v9lyJudisQsbDWCXOkeXLwqkzp1+v7RxuBYzJWktAVipGIdgCRmz9WtXi71ERrBYx9ToYtJOra0TJ+DfuUOJF9sT2ToswJ6aNUwe+UxYbLRYDZfSO7jokkfAljIFnO/UEnUMHaIzo5L3cPQI7IcOwuFyS2+GDOxoZYUKT2S/EUgiwEIQSZIM48eJFR++dBH1q1ZKCoIth977Z4klwqJheux1C9jBc7r8psTHfdu2qPWYwv9kn5MVyLiU7RVkfvE5cX/hZzIWSM1bxRjmeSdBXnOutjQ0ZLrVr1wp04JYTZUBGFFAuVcfsUSpMUPNKs4dzq5WAaymADONRdiO2CL1awKwfD4ZLkmvNp2h3IH3yfRd7wrAyvS9Uv9GgNcEO+62laUJwKqtFYBVWtoNBQWFRlJvtuK2VWxOrX8WPwSGbtsmsJWxN3VqWYy39etnyJOwvZAyKPX1qGRbz9o1iGzaLHmLosWPoNs3viUWYPNW8NvGt4W8oLPG5ZbPS52JZvtzu8altX0h/d7T5liH5ksH8qLUrWQdwOJ8MYtBt+V2d7GWsg5gpeV2jNVvK8C1du8mEURAouR5qhDYS8B/LepWrYFjYH/Y6fK6bBkKh49Abkdc2ds4WzguNC5qWLFCen4ce4rj89yisHl7cqwW4/jPCFDDQlbgyBGx7hkDsZWPuS07qMhiTy9g6WA28yAWySrOnUOQ7owf74Dd6UbulOnIX/yIGIEZHb3FOiTT+Rz8u3cpbqShmXcqNacNLbkvFoClCNnQf6CwGDVIRJtNxHUgUgQ1NzcPHk87LDNZzePhz+oR2/4oJJepRSVNfDobQXe7goU7CNqaB5ed7SrHW+JhXFNdDRuAAtKdCRxyXNkPvftj9cxK4JYaMNR0ITiVVrU3hBfpuna9ScNFzDGybdI3OQazbEuhePT5c6IBk81E5k5LLVqtDVkTgMXiFDdLstjUHuNV8nlbXz1p1NWVRhWHug/8jtIqYNXQa1Ddzcp00+ZPNiCTITIYggGjaiMxZvetVWxSp5m0Mkml/hMvUjXtDtGkOXZ0p1FFwhwXMbAyVHXUQhkMiMrLqhtp7ALi2hn4Z52BZdKS2U4B0qQ5RgQ9zaoYx13jmKlikhLNrq+XGDirc9xU1dufm4eYOV/4PFNJPcENVvk5x5To0Zo5TSCw+RwRc4DsF1pYV1aoxY/MAwJqgQYf6q9fh8dhh7cFEfcOLVPRCqwGjd0M4nXvJliXAtnbfE8G1mTxUEuprk5OfvZ7+xuAkan31mrQbdp7GzQHg7nWlGyY1Wj+O90w9ZzSEvfm80UdP5GIdBmo88L2QrZikbmVaW9t+qBUUEJmazQqBin/xEB5kE9cCDO1EMrZs4zaU9fVPkwdLTK4Ml4maE5GRujqFUPglWNutxm6SGTlcD41AwFuuU8GGjduIFZxUxR/zg2LWpWN8aGGA0WQTZhBrNp2FQ5SZxuFvVnxTWkRhkOqgEu/hpqLhcXIIaPSNCvoKIAl9k4goACFc1y6IgMHG3sY9W5iMdRfvYrGsusodHtgtxtgJSvgovMziPFwvzOAj+YX37P6pZck1Coh2pn3y4WQwt9kp6YcWrNxlgKqxNcAACAASURBVHI+avtkUM//CDM2MPYYBV7tAZ1STE5zHbAVnmYqbH2w9ehhOEVSA6Kde2qb69d8QUsAlgxDqJV2s0x7u2FUYdF5YnWz5Y7tSkWG4D8DxeZrOCX6z3Fhe5W53gV+pbE8qFEpI4IKQ96A7AK6lEo8vJmTWuo7tQpgcS9glT3gl7A5mXz2Pn0NPR6zbUetPpRWoOGMJUfMRbYQNokgd1LsRRYG3aC5N4n52q1U851ndSW/b0MDCpIJ2Ml0z8tT4SClj5Tw1RugJseV84jObqbdN0E/sp9ZjFCrDNvG6OTYrHjYnK2jc7q+QW6z/P506SI7ULEMGWwms16SEGQ4NWuj6VDiLZHlgNqgpAVktpUZWjlOIx5RW5DbMBXpJKCmpXl/G4BF59lOujo6Lh352M4al9sBrFIBeXdSbFZBj8ZFq+nC+47mDR298+fPF5uP0gdk/jJXCl44h+oPP5SkR4KmDA4Huj31FEp/+MNP1nhHBsR8bWeNS6aPznYOk835wu/zqQBYZrzb7hijHc/4UwWwOsrYIyOQxhJXL4v5SkmH+nXrEDh0CNGycuQ//CBs989Ccvx4FLIIw736LsC89OHiuMTY7ksd6zKjpZ+dOmzvzsh+bcdYp5+lnwWtJ0NTjNJKabIUlKbgn1Y6zHjvlTS2uXEDXl8DXJT86EEt1u4GE7mV7i/G4WxJj9PRs7BYYHqKxPDFA7AyTAp+SVZ12utC2IF59QmjJkttD597AKumRto0hYWFRhuRWakgi4ABHhMd0Q8ZqJjMjfTxV886abAmK44BXKZDUe1JpDFTqJP6LhT4ZtLYnqSk2QP/VIAas+W0Lfqt9HNMZpLEhs1LAvoMKpuLgKZaCLNFS05VAQnudhL1NnWYc67zuhPmiH7R1NGgaUEO0wS2tTKRtlgyMo0MkW6/2gGMhM8EGlvaAFLgOGnrTHbMnn++PBAMoqGhQQ6neZ1c1bnbcVFLIHX6mPDwuTHhZHufyaq726pxS8N12zoywTfqqiSp8UdhVCZ8LCjcwVzi+7cFYKXaHdXSTd0+tnS3khRxv5ELoDkvmDirFc9s425PFc3QeOCcykxzT40Lx61DAFZr89J0euMKSoFjd7yOjAVpaAVy301zvePeW8/KfiCAYup2sKBgstTac26y5ZHuf6HLl+Hsf4/aU1yDh6olOJsJQzrT6K7GpdmX5BjFWeBItaDQcILB3B3M59bGryUAi3se2yQEYhJ84MOg+BkZSQL/DbC3pfXVkXHRPiJNIgrqGiYTrV1tAVj8Xb7GEJNONu1L7ZlHzc+MzgY8U+9PF0KyvEoYcPOsZUt0G6zXpvvneUTA2WK9RWel3eMiQCn2SdtcOxOtbK+jbMWkxhHejIHVBWDdMYAlzc3KKvjWr0Xlq6/KhCnH7YRr6GCxgun8RSBaOo9siT1yVHpu9qICGTJR84wmRSkZgPauy/TXdQFYLY9aF4B1+9jc7XxRt9XVy4b24JWrIjYEaEYkrVsXSv/4m7DOmIlwcTHyS0s7H8ASeaZBnRIWa4602agLyljwbq7PGlDT0e/CmJdnKcJhFLpchua2acTWnvcyYg9Dwzu97fWzNi53JeLecnzfBWA1H5tsVy/4eWJgNQewUjdiMmJSzklCwVvS8WFVmb9n/jzjJmcGw02+2gw0036nPYsk9ZrPEoCle0oJ1qeo0+b3yvT9viiHYoeZI6mHx7FKOQ6ac6rVTc50VGpKwttKEsz3T+kHS9NFWtmBzyyA1TSHzHbj1Lz5vWz+qeeTWtPtTQYzLOB2AVjm+kkB53IsauMZyyo8rWWjCWRqa26kzUH9Zwuv73QAK+1z03U77hqoSTPKSH1EE4AVDDYBWB3ZWwkYBw8e1BplG5q1W0kTCzTbiXeKgXXX45L+hVPW8mQT8ZGzRbmjVeN2DGCLAJaR9TedEelv1XSmtjJvOwJg3XIWteNsbQ9QYyxPo92srXXZfJiyOV/4WXx/Bt28P4K1jhQDv737QGrvad6K2qz1qcX5kjprOgiGZnNc7jbBbGuq/6EDWDRUKCsrUyxBdgjnHQtid8LAUtxITcP9+1C7ahWCRw4bTGSCqtozjKchUw+y65JJFZS8o0ahaOlSucPZupfeVetTNudLtnOYbK6j1P7SUrdEW+ukrZ9/5nKYtm7Y/PndzhcWciiVUfGz/w3/4aOmeQ6NNfKl49btxReB+0ajMRpFHg25OpmBpWIzW7BTuq8pze2OnBkZxur3Equ385m152UpAIuxVzGdd1tgbbf6Xhnkkj5r49IFYKU9wbtdzK1Nhmxv/vzsVgGs9sz6Fl6TzXHhR35eN/8v0qF4xwDW72Hz51r6zANYv4dxyeY6Sq3TNhlYd7DPfFqHIm+tUxhYzc6MrAA1aQGmGFh3CGCJ9UhXIbY4prVWp/auFNuwsxk1HQZqOjBvsj1feCutAlgduNfmL832uKQn3p0N7H0aCeYtAJapB3YXw61fbS+wd6efk81xyXbs9YcOYPHZsVOEEhDU0qRpA/++IwDLmGxylKSbbeDwIfgPH1bLcaTsJhI+ipdHYO/dE7aevZAoKYF32DAUjJ8gXTW16mSQTenIvMzmfMl2DpPNdfRFitXb6iL5NOcL2bzh0ydR+atfI3DihDow7CXF8IweLad2x7BhiHi98DU2Sv8qKwDW3XSRtDBY2Y4xPo1YnWcp4zo6hnfWnPmsjUsXgNUFYLW532XzUOwCsFoe/mxucs376rsALOM5fJ7HJZvzpQvAyrxOswlI8BPvloHV2uaezYQhm+OS7SCqC8DKPGuyOV9Se28XgHXr2Gc79vpDB7C4l5CFxXEgWyEF+t4xgGWCWEZr1VWEL11C5OoV6dmxdZAtrtaiYqCgEEGHE+57+6Nw8BDYiwy9tru9sjlfugCsz0as3llgRCq+uJsWZWk1VlTI1CR2sxyQfmm+jAicw4ZLYzkQiUhSiOBVF4BlzKFPI1bvArDucDft0sC6feCyvfnzE7sYWLePezYFEL9IVZ0uAKsLwGpru293C2Fbb9Ts59kGJLLWQmgCTJ9lBlYXgNXByWi+vIuB1fpZ2tmMvS4Aq2WA/G4SzLZm/x86gGXgTbe21HZKrG46UUtLhvqMCdr7pnoIcxCJxVBbVweHy4XCoiLpPnbG1QVgtTyKXxS5j88SgKXRNnWT5dystn7DEClloEFDty4A69Z52QVgZV6nHR2XLgZW2jh+njf/LgAr84LoArDaNy5dAFYXgNVWAN0FYN0+QtlkGhmxoSnifocthF0AVluzOvPPuwCsLgCrvTMnm8y0bMakqf2FySWTTLrv0RSls67P67h0CoDVxiB+HovN2R6XbM6XFEDepYF168TM9v7COdMFYN2+GXQUqOnonpzSwOpqIezoyJkVjS4XwlsHLtubfxeA1T6gpjOrF1+kQ7ELwOoCsNra6rsArC4Aq605kvp5NoG9bDP2+B26AKwuAKu9cz2biXe2E8wuBtbtT7krVs8887M9LtlcR1+kWL0zc5hs7y9dAFbmtdQFYHXOuHQxsNLGMZuLOdubfxeA1QVgtTfgTh3mKQHnTnUJMwFsbtCc83S66lQx4WRSFvb+hgZDGLKoCHlFRR121GpprNqlgUXHvFBIjkOyt3e5DKvZNtyrOpR4s90g5QLSTkeVrB+K0SiqblxHTiKBouIS2D2euxad5XPo0Lh0YJLz+SQjYcQCQcTjMVgcTtg8HljvxJGlhc/tFKCGFHzeazSqT5GQL531LJY7YmCRyp+MRAHT/SqH39d8v3SnxlvmejIJS7p1ssNhzOl2zr1bhodCxomE9OR43cn+YoxHBMkorZytEoeVRgxdSJNJaUhkZX8xv0gXgNUFYLV3q8lm4n1LTEoTCrps8ZzpoFNiS98lEY/DV1MDf10d8gsL4c0vkEtem+uejnvRKCjizHvJsdlv+714LIYYXxMJw5pj0b7LvUj3f5dXZ8bqqRZC7b3m/iINLNPhzGo6+HI/1B7EfbGty3Qk5HdPxuL63hbuw+bvdjGwfj/7SxcD69Zx78x1lGlJdAFYnQPUtLXdNP95FwOroyOW9vouDazbB68LwGp5QmUz8e5qIcw87u0Cau5wD8hqghmPI3TyJHyXLyMYj6FwxEjkDRxoJNudcLU5LkzOq6sROHYMMbp85OXCNWIk7KWlyHG7W72DjowLAYhkOGQE/O0EXLK5jvjFooEAKj7+GInqauT36AHv0KGwlZa2L6BvZWQ6Mi4decSxykqEzp9H6NxZxEMhOAcOhnvYUDh69uy0+XLXABYBWb8fsYoKRG9cF2Zp79cXtpJusObl3RGAFW9sRPTaNUQrK4FQCI4BA2Dv3gOWXO8tiW/TXI/FEK+pRqLspu6Dc9nRvz8shYWwOJ0dGXLDRttM/uImAGuxWuWGw+SwXVciAT67CL9DRTlsRcWy5Lb16GnoanQBWBmHsXmM0amFg2YGF10aWJ88gk8LwEI0Cks4rIIJHUXbBJnaWmw8ywIBNJw5g4azZ5FbVIzcAQPg6H9P64UJrvFEApHLVxA+dxZWrxe2nj3h6NsXOWn7RSwcRqS2BpELF2CJxuAo7Q77Pf1gzc1t687a/HlnJd6pvYTP8BYRd+6JkYjhHFh+E4hEYcnLg71nT1gLC9q8PwLw0bIyRC5eRLyqSnuwY+BA7ekE/LoArC4Aq81JZL4gmzlMZ62jlr5LF4DVBWC1d57zdR3NYboYWGmjm83F3AVgdQFYHVnId7KYO/L+bQI1HXmzZq/NZoJJd5+6d95C3d59SHo8KFm0CPlTpnYKE4hfo61x4eczaK99912ELl6E6557ULR0GeyDBimQb+1qz7gwMUj4fIjduIHo9WvIycuDo08fI3lvJvRKgCtWUanXJ8gKI3BAIc0cwEoRzQ5UuglUWAoKYM3Ph8Xjuf1rEDSoq0XZq79F8NQZ5PJ7P7xQ4F0m629W5mO1NUjU1QugaWtc4vGEgAmL0w5HcYmcmqzNAJeOTsnI1asIHDyEhg3rECkrg2fCRBQ8+BA8Y0YboODdXKZIr+YL2UBkGlktxri3BNTw33Nybn0uiYSAptCxI/DvP6A78k6ZAtfw4bDTav0ONLCiN27At307QmfPIBkIIH/BArhHjYa1uOgWp6vUXE8GAwgfO47g/v2InD8P99ixyJs9G/ZevWDpgCaOBIsbfYhcuoQYEz+7HfY+fWAtKYHN6Wz3fOT7hE6fQWD/PgRPHIezf394Jk2C+77RSt7bs45uebRcU34/4g0NSDQ2CmBr6wqHwxKedTqd0gVictvSpbWTn6/klK5LrV13DXi28uZdAFbmwbnbcUkEAwaQQUZjSog77aO4d3EtcXlznli0B7Q1w9J/nmMwdFLAVFoxRjFpNIpYbR3iZdcRL7sBW2ExHPfcA1uPHnd17nEdsAhTt2MH6nfsgLukBPmTp8A7c0bmMyB1yyb7qnHHdtSvXgNbtxJ4x46Hd9pUnSGpKxrw64xsXL8eycZGuIeNQN6sWbD16K5xjJbdQLy2zmCemgLQGUeNotBWmz7H3qOH/ruzYnU+N67zEAscTifcbrf+FnuMhYCr1xDauxvx+jo4+/WHd9IkgVFtXUmyxA8ehP/jjxUvcD/PnTYd7tGjtUcIwGIBLBJBHudM0jj/OnLxfM9xuhV3WLwenS2dNS6Z7iPbOUw2gWB+ny4R99ufajbnCz+tC8DKvKI7CtR0ZF/ga7sYWB0dsbTXdzGwbh+8bG/+/MTPY1Untdi4kTLxY2W3tWSho9Mym9WLL9Kh2CGGRBsPocMJZgceKq2ob/yX/4ia5e/DcU9f9PzB91HwyKN3D0iY99AWgJVoaIB/z26U//PPEDx1GnlTp6DnX/4VHMOGw9KGk1B7xiURiSBy9jR8m7egYetm2Lv3RP68+ch/6CFVgNMzo1h5OXwbNyJ45jQS9Q1IMLEwg2ALgZIOZFG27t3hHjMG7tFj4Lin321PhMBa/GYZrv8//xUNH+2EZ8QI9PjOd+CdOTPj2McqK+DfsweBw0cQOnuurRnTlBfaiguRO2EiPBMmwDlkyF0laNHyCoTPnEbly7+Cf/c+uMfch9KvfhV5DyxoE2hoc0qqTS+CeDRitrMxeTXaZYUgNr/4TxYrLGyHs9qamFBMIiOXL8O3eRPq16wBLEDRY0vhnT4dzoGD7gjACp86hcqXX4Z//34kE1H0+O73kTtzFmyl3TICWIn6OjSuWYOGVasQOHESxcseR/FXnoOjd19Y8trJluDcC4cRPn8ONa++hvCFi7CUFKFw6TK4J0yEvSC/3TbxZC8EDhxAw4b1aNy5E66hQwU8eufMgdXj6TCARTYjgbng8eMInTuHeDDQ+uNNGslOOBzS83S0wYC0d+8Oz4iRcI0YDluvXq2+dxeA1fLwcMxp/c09rLi42Bj3TrjuFsCKXL0iQJVnj9rGm10qHCTpwJWjPcCSY+kQO4pAhLW4GPbeveDo3cdgV5kX5wuZr6HDh+H/aCv8ez4WkJI/dz7yHpgPaxpg1NGhInDEvadu5Qeo/WAl7KXdUPjwIhQ9+aRx1rR0ERAOhVD3zpu4+dOfqcBSsHAhip58CjxHUlfE14DAoYOo/pd/QayyGvkzZ6Lkua/CMWig9s76lR/Av3cfYjW1SJjt05k+Msdug82bi9zZs4xz0OvtNKAmGo3i+vXrqK+vR15eHkoI4uXnCzSM1tQgdPQIan/3GqLXrsMzcRJKnngSnsmT2hzqhL8RDWvXo279GgSPHIW1sAiFDz6AkudfgLWoCJFoFNU3byJ59SqcN24AJrDeEQjL4nLC3qMnXGTY9u+vszKbgES2c5guACvztMpmDpPN+cJv0wVgZX6mXQBW54xLFwMrbRyzuZizvfnza3QBWLcvimxu/vy0L0pV5/MDYAVw7W/+GjVvvAPngP7o9aO/QMFjjyPH0cFWp7SpIkYGGUzhsCqvzbV70kGjyLlzaNyxAzXvLlf1OG/mDJR+61uw97+3TV0SgUBkqZjaYFabDWyvYuApfQyLRdXoyMUL8G3apM/gPblHjkTe/bOQO3EiHEOGGslRTo6YLtX/9hs07ttrVLIV/ZohsCUHOR2IhlnRz5s1G3lz56pafFuS5vfrvsr+4e8ROHwM3smTUPrCH8EzZUpGkInssYZ169CwYzuCR48Z7BSnGzm225M7aoQoOQwG1Z6RP2uO7sMzYXxTS4qYbxfOI3qjDKxuox0smnjAj2hNLeo/XKl7dvTthYJ58+AZNx45LncmmOm27009GGtBIRz39oet5yfgBFvt/Fu3IHT1EuJ+ExAhA0PJ6+37EDVi7D17wzV0GFwjR8CSbzAVBGBdvCiWWN3KVYAVKF72FHLvvx/OwUM6DGBxjgUPHkDZ3/+9AFZ7aQl6//jH8M6432BVpDGJNNfJNKioQP1bb6Bu+QpEb5ah+zdfRLdvfhtWgk7tBRHYChkMInzyJKp+/Wv4jxxRm5Fn3BjkTZ0G75SpsPfrZ9wDmQJsmyyvQOTKZY0D2WZsnWRyKgBr317Ur1sL37btcA8bhoKHFyF33jyxDdoDBKc/Ac6XwIH98H30ERr37kXM52s9ATWBYOmmmYya1ig1rnvvRd7M+5F7/0w4Bw1u9b27AKyWh+ezCmA1btuG2vfeRby+oUmn7pb5RTDb3HdzciwdKhzwfdgW6xw0EN6Jk+CZNBm24uKmt9d8CQYROnMa/s2bBDYhloBnzBjkz5kDz7gJcA4eZLy+AwUL7T3cUy9eQv0HK1Dz7nuwdy9F4SOLUfzMM2IUZrxMbSe2Hta9+TuU/dNPBLoVLnoYxc88DVv3nk2/FmloQODgAVT9/P8gVl6J/FmzUPL883AOHapxrP7VS6jfsAHRyiqwcNPSRXkAgnolTz6Bkq99XSwvjUsohOilS4icP4folctIhloGpm0FhfBMmAwHmdJpoB9j5mvXroHaSASuSktL5cZIACtSXY3QoYOo+c3LiFy5htwpU1Hy7LPwTpvW+v7BsY1GEDpzRgWm2vffR6ymBt4J41Hy5efgHjUKieJiVF27ivCObUju2IGkzu8OHNiAzlT3sOHInT4dnslTxOD7POcwXQBW5mmVzRwmm/NFe0yXC2HGh9oFYGWe6x0dFwFYnZm8piZtujWvJ1NLSptHQMuLWW0ypjgsA8yOMA1a+9jUYjZiAYMN1FnvnQKwUodUZzONeM+sJlVXV6tyyUOYn9EZ1+d5XCTGmaX5wrHle9fU1Ag87NatW6dXjbM1X7I5LhwT/mkCalpZRwKPqDWhNoJ4E/7S0rxNhIK4+Xf/BTXvrYSjfz+xgPIfXtR2ok1GEoWs7RSbdXwS7JvV5HhNjTSI4sFg03zh2hcbMA2QCB47IWZL8PBhCWN7x49D/oMPqr2hzYvMDvM7Gu0mVlhyc2ErKYaNGkVuj4CZWFU1Anv3oPa99xA4ehREopwDBiq5yJ87D5biIgX04bNnUfHT/4WG7TvUGmXv2QM5HjeSwRBi1dUCAmxFRWZ7gUXvmwgEJbZrKy2RqHkiFBaQQG2PgkWL9IctZNIyikSMP/GYkozw6dOo+tdfI3K9DLnTpqHo8cfhGjVS45C6OGYEE2PlN1G3ciV8WzbDv/8gPGPuE0ihFiu2hKRdyXDE0Dy6elVjnT9nPgoWPQzPtGkKyrXO/H40rF0L/949ak1MRm5nQjQffyWVySRCJ04oAbG4XXAMuNdojRMw03afDwEV5z33IH/+fLgnTGiaN+GzZ1D5s39G4549qtRnai1Kvx+Lxw3P2DEoWPAg8h58yGiFoWCwCWD5NqxH3SoDwCpc+iTyMgBYZAewvaXFi3M5EoZ/1y5c/4//CbHaWnjuG4lef/VjuCdOvC3BZbAQD4cRvXQRta++gvoPVoEJeM/v/QmKv/lto+WvvUmxCWCR6VT3/nsaF7KwktGwvnfRY4/DM3kq7NTJcbsRv1mO0Inj8G3ZimROjsDK3BkzpKnGMfELwFoH/3YCWEORv3AR8ufNQ44JYAkINvd1naXGgso4NGSLsB3Rt3Wr5g9bCdu6dF4n4gIk1arDYJxrNxIzGCONfqMV0WKBZ/xYFC5ZorXJ5PyzEGOk9q7OZjNn8yxNB7A41+1tMFrbeoapn6fHXncyLg0rP0DFSy8Z+w5FyzNcCbZAh8NIBAIAjQdcTu3RZMm0dVE3iu2xeXPmiFmlFjvzElATiahVPLhvD+pXrEDo2DHA4VBho2jhQuTOmfuJXl1716sJYLEIwvVau+I9ad8VLl6MwmeehjUvA4DFMyEYRLyuDrGKcu3vVa+8ItZV/v0zxcKylnwCvsV8fgROn0bdG68jVlOH3IkTULRkCVxjx6ooUPnTn6B21SqdVQTL+Ycs1aZtOZ5ArLpG5xZBrNIXv47S7/5QDCaNS2MjAjt3omH9WjRu2YJoeZVeR9MH7Vtsy6OIfDwB18ABKP3jP0Yex7dvn6a4PgVg1VHEPj9fMVwKwBIDqwnAugLvlGkoeaZ9AJbOz2gUgT27NUb+vXsFnOXPmYuChxfCOmYsqq9fR3DDWsTWrBGA1a6L+2yY2lw+zTHv5MkoemSxzpR0Zhrf6/OWw2QzJlUM0RWr3zbFOhKrt2t+NntROoBFhiPb8Tsrp87mfMnmuHwaWADHprKyUgzywsJCszPgTp7grb+TzXHhJ6XMefjfKfyltfmSEwqFkp0Z5PCDU5PW7/frUGBfeWddfO9UUq9kqQMHdlv3kP7efG1nj0sq+EsdLp1576mHz0oSJy3HvbMArNTmnxq/z9O4fBrPlPRzaqZ0ZttD8zH/PM/11uYLAzFq9hA8YnteW0AAAZXaN99QS5itezcULFqoKnQ6iJJpnbNtS20afXrD1qfvJ6yheBzRmzcROvz/s/ce0HGe55XwBab3QSMI9t577xR7bxIpUc2WKMmyY8d27Nibs5vsOn+StTfeFMeWLcexepco9k6xAOy9914AEm16nwH23OebAdGLiKEl//OeI1EUBjPzvd9bvue+t5yAZ8sm8SNKHISyaE0sL5UVleLTEXW5he0U87jkYZm+Qto2bZoG0OLcqARJSt5blQ5t5y4wDB0G04SJYoQr6yelaWWloBSMD+b0cYqWl0LfvYfIFyiB03TrhsjNmyj5za8ROHFKQIGMZUuh7dUT4es3hNFDUI5Ftb5vX7le18ZNCF25AnVWFuzz54ncKXznLpyffYao0wXr7FmwzZ4N3cBBAqSJEfjNmwKEUK4YvnkDnv37UeHyCCvGOGK4ABLVgQMCQyJnUKlEFuctyEfw7AVkvfgNGEeMEoZVbcP9mM+H0NWr8nqCcuwL26zZMI4eXcXAqvB64P74E5FV0reFfVS30UA8XrTEEyKZXkf/GoIY7G8WlZSkSLodgTSy4FgoNwB+CIDVtRsyliyBYfJjVR8ZvXMHzs9XInD+vAKINHF6Tp8kXQ/ev1HCsuC4kcZ+vnEDni+2w7WRAJYKtkWLYR43HtoePWSvc7vdCAYCsGdk1A9gEczhP/Fx49+/D8X/8RukGfUwjxiJjOXLoe3Vu2owS/9rtcppvcMh8iTnqpUIHDkqxWjWU0/BunhJvJBsAOTjxGCxWD19k4cFZL0VFoqflqegAKHz54SZRYaJdep0GMeOh65XT5lzAYJUa1ajEmkwT5wE6+zZULdvL31CAIugnm/vHmGtWWfOhnnyZBnnYhIfiaAiFBTmJIFpFRl1BDvrex4gKFxWiui9ewqw24hcKXGDeRjk9/uh1Wig5/vyucPnQeTefXjydyN04TIIvKZbTLCMGwfbsifFD07VBJD9KPajZO3TyXz2ql5gclxyL23tuPgv2y+hC+fhP3wEFR43KiL1rDs8mAj4RY4XunQZFW6XrIv6Hj2EddhU497EwwfOd13PXkg3PZDtss/lMIhzmyD/ubPw7twhewLBMkPfvjCNHg3TlCnQtO+grEMEdkXS2HhTcwgYwQAAIABJREFUJIS34N68Ea6NG6HOzoFtxgxYFy9WzMblQTVd2du4RlLOeOMGAseOwru3AIFTZxC6dhNpeq2wt7R5uTVM3OnLGHN75DMI7nH/1bVvB9v8eTAvXIzy370O15YtckDD/cg4ZixU1czpuW6Qxev4fLUccmW/+A1kfed7AtZJEej3I0Afrq1b4d9TgApfEKoMO1R2uwJiRWMIF99DrNwJbft2yHrxRZgnPQZ1XtuqdYLzvLCwUCSEVosVmZkZsJLhRWaqw4HQqZMof+8dRG7dlnU7Y+kyGEaOVDC2RBpkYu9g39MPkXsP+1+lEaDPd2A/XOvWyn6ebjQh6/nnoJ81F26mrN6/B21REdLqG1f17XAEM7l2njiB8I3r0A8YBPucOTDPmIm0uLy6OpPr6/qs3trPu4n1hUAlQcvWBMj///Ks3tR60tDPuY96vV4Br/hPa7Wv816abCyAABaJFZz/BLC+LlhAS58x0gKBQNIALA5cs9mM1mRgtfQCWzJZkj0hqr9/a28svE5uxlygeXJJtLu1Bu3XuV+SOV4SGxcffrgpZmRktBoDS4CMRwTWJuthocmCgcbgRUXikxE4flxArKakYQQogmfPInKnUJhFup7dhT3UVKw4T7m1nbrAOHQoDKNHV5lT82GThulkPLlWrUL43r0qGZ5Suiv/5sN0rMwhDBcSe8jmEeNmo6HJz66+BiWkJkptkA5dr97id0R5lKZd+6qXCiBBYPT0KZEs0hOLckKmsdmXLYVhxCgB/Epf/x2CZ88J0yr7L/8SuiFDETx/Dq4P3hNpGH1JDCNGSmFR/tab4sehbZuHrJdehKZrNwGMSn/za4Ru3BQAwTJrFvSDBknBQRDCv38/Qjevyyk4wQ6CE2Q/0U9Jk9dW8UiqBhowYco0bjw0nTohcPAgaPQbPHcR2d9+BcYx4+T0XKLIqzWm5oUvX4J76xZh5RjHEcCapcgT4wwsnvz79+RL0VThddfrRSOmxGXlUkgSmFNl2MQ/iaf9ZECRQVPh9Yt5MPuMYBbZWARXaF5fX2O/kR0nnlQE9uKtwuWS7yom+pQ0EoZp5DBFwM6sbDn9531OMMs43smC8O74Aq5NmwRUsy1cDOP4cSJH44OON24ybLPbFQCrGtjGa2ZhS2Aldv+ezCHef8/W7UjPsMHQp5+YwqvIzpNBlwZNuw7QDRygJIlx/u3aJUVs+NIVMYY2jR0DIxlbjTTeFxVTxdrmSdH4AOlVUggjt24JKMyx6z95AhVujyJ7mjkT5rnzECsphv/gQTg/+RjEhi3TpsG2YKEU/Px9jj16YPn37YG+Z29hGJjGT0BFNCKpXiziIsX3gFBIxpq2S3eo27er32dLkhGjCnAVjUE+sInGAwm3xwO9TgejRi0ec+GL5+E7dhSBI0dEykpGhWHwIJjHT4Bh7FgBAKqnsNX3Eam9tOGOTzAk2Ed86G4tBlbtvbSlz14xpwux0hJZf+vbnziaeKgROHkcvr17Qf8/MqpMo8dAP3BgU0NNYfgZDSIr5piqHopRY7xQ5k7A+fhxePN3y54AtQr6nj1gX/YkNHntESsrQbS0WParpkB1WTvKHYo33OkzwgY29OsrDClhjpGBbDDAMGgwNL37IK2iEpTQ+/bvE2ApdPGSsBHTVGnyuwSOahwkVcRQSYZveTkqAyFZy8n8zVy2FLbnnofj97+He+s2AcCyX3pZ1gUJjYivo2QVOz98DyW/fR2V/gCyX3gemdUALAJ4/r175Lv4Dx+EJqeN9Lu2Yyek6bTyO75jRyS1mOttxtPPQE/5eLU7Eo1EUVJaohTYRhOsdivMJrOsQTyYCF25BPfGDYgW3oOuX38JxND37y/3jD5h6WQ4m81KOqrfr0ga794BD1wM/QchPScb0aJCeQ/aAoQuXUHmc8/CuGgx/FYrNDotTGnptD5sViNoH7l+HZ5tW+Hbf0Dk6GSgc318FABWMmuYZD7vyjNcPBAl2c/qLV1fmrrxyeyXR7EfBQKBKgCLWEBrETeS2S+J8ZK4N1+ne8rvnLC24fcmmeWrchjU2mM96QwsAinJArDYGa05sJI9mZONupJ+lwwG1te5Xx7Fd08xsGouS83ucyYR3b4tD8SUPRF4kKSnxhpPge/cRbTMIQ+pmna5AlA0JXXiA6yuWzeYxoyDeerUBx4fZFVRAnrlihTUPHV9QMFKU6RDBBkK78B/5CgqfH55GNZ17QJt585QZ2YJE6W5TU5H42wdnhLTP0Tbpw/0/foJuFO90Ruq0u9F6Nw5MdgOXr4sp9XWufNFXsdT6dLfvw7KGtV2O7K/911oBw8R1ovzow8FJMhY8gQMI0eJbLD8rbcROB0HsFa88ADAeu03CN26LQws66zZVQCWf+9eOe0PXb2McGEhwoXFAH2BLGYx/BU2k6rmozcf6skQ0/XsLaAgASyCTtY5s6BnEcSH/Vr9RQAoQjnF8WNS/JkmTlYYWNUBLLJuSksVthNlIWQlsKDz++VPAWF1OjmVJmvHe/CQxMGzr3ifePpPAINgDxkEjtWrpL9NQ4eL3xaT8sgeIkDK4k1lsjDKUe4t7zd/v3rCFtkI9FaqiEQVaZmAQw17YCnRkMo4qUo183rkOgg6+Q8flr4i48E8eYoAI7qOHcUcmgdBfOi2mM3QEgTLyhYmEvuRQCOLT3o8BU6fEjCWDLXw3UKRpFLaSkkSX59IQLSMH4+Mb74gLIPQpUtwrfpcmHKRO0WS/EgzaVVOdqNDmuNeP3AQTCNHCaOqxvwjayQSlqKeXlb+A/vFG0tttSlGzEufFEDAf/AAHB9/DHJFyM6yLXwAYInkb9s2+Aryhc1C3xlj/4GIupwI3bghTMLQ9WtIq6yEZfJjME2YBH1j6ZIy5zj3mp6pnKMEsFwOB7SxGPRMI7t6Gb69++QeiTTXngHjgIEwz5iuSKIyMhXgoQlGeBWjhmPY55N0No4leoNxjJEd2Bxpa0NXkcxnjEdRMPDUmNfAw6DWBLAeql/ia42w8OrpeM5hzjn/nj3wbN0iPnKmseMkfEM/alSTA05h8zCdVKWA09XGUI29lN6JXAddbgRPnxQGaPjWbTnIIWuTbFOuoYEzp+XAodFkPzkgAyqjEZGVE3yRkAkCaWYWmenyXdTZmeI7ZaHPZHq6AMcEhALHjglLkmELHLu6Ll2g7927Rnoh14BoSakA2DGHC9q8tiJPp+SeLNuy138H5+YtSCeA9corsBDAMtYCsD54D8W//Z0CYNXDwGKfy8HHiWMwjRgJy6w5wjjmddCzzL12jcjYueZmLH1SWM6UlCf6RlIIvV6EgkFo4ymEBK0rKysEBIzcv4/gqVPy/TXt2kE/oJ/s2WSk8Zp1ffrK/iKy6NJSeHfsgPfAPjmYy3zmORjHjZd1R/rrwD5hTpknToR23AT4yUjLyIDVbBYvzOY02gPQ88u1drUwlnW9+4rs3zJjBtKMij/gnwMDq7VruwQgkWBgpdQSymhL9njh+z8KAKu1x0uy++Wh9qNmLBTVGViURLcWgPVV6xfxwGpNH6nEpOCJRkJC2JoAVkKDmRiwrQ1gJQycE14JrYUW8/smDJz5363pr5UYz2Rg8QGQD36t6YHFQZvol2R892T2S/XxkvAEaMb8b/ZL+P4EDRO05NZKTqo9XhQz4eae0zX99ZPZLy0ZL7GyMqUYvXpFZD4EEBprfOB2b9uGwOlzkMS68WOh79WnSRCJxSVPaCnjIlhUFXcf96ogEMLT7Vg4BMaiyzgnKMJi3OeHd18B7r/2OipDAei6dUXGgoUwMl2NXkaUKzSjJfqFhQPvZDrla/RJ4em12azINGo3fj5p7zdvIHj2jPiwmCdMFjPaaOFd3P/1r+E/dQZqqxVZ33kV2oEDRarg+vQTkSFmLFwC44gRAmCVvf02/GfOQJeXh6wXXhDjefZ76euvI3TnrkgR6D2lHzRYpBDha9dAryfKKj379sK1eavIScSYe9w4qOJG5NW/MsEeKWQMRjlxdufvgu/QEajzchUjd3XdIl+YUX4/YuUuqCxGWB+bBuuc2SKNqbpP/BACVoyrjxeSFQ6nMMiiznIBc/R9+krh4NqyGa4dO6Dv2R1Zz34D6m7doW6To8hw7hXJqX3JG28I28gy6TFhe7FRDsiiRd+pk5zk80RbkYmkKaBbPUVGS+eRMB7I1DhyCP4TJ5QHyEBA8XopLpXiVZ2bIwBJusmgSGVocl9RAY1GDfPoMbBMnS5gLMcNf9e3bx9cX2yXxL5I0T3F9yUU4QAWnzPeewHj2NLSkLVkMdr+r79HlImahw+h7L/+AP+JU6gIBJHO19G/pwn/IRZz5gkTYZ89W/EGq7U2iTyRgCG95S5fRvjSZTGn1vXpJTIpApaUOpZ9/KFICG3TpsO+aHEVA8t/5IiYuNP3jI0+cZwrBDtjHi9ilHO53NBkZ8E+dwEs06fDMHRIkwyoZkxTZSwEAnAwHez6daSfPYvAof0IXbmGqMMJfa+esIwdK/JcLRl+NN1uZgEq44UJZ2VlCJ8/hwClacEADCKTnKmA2M18r7pLRVxuFgfIW/sZo/o+3dr7Ea+FfVM9hbC1AKwq0DCJ/UKgg2C/Z/NmAeHptWSdPk1kZw/Taq8v8qzOuVVSiuD5s7J+c38yTZiAWFm54ht35Ih4ChKEaXwzVQAspnTysISIFtcKYYeKT2GazLvcV1+F/anlwq4iYM5DBALQznVrUPrmO9DktoFl0iTY5swVeXqiRb0+BC6cQ7mwgctgHjFcpNjcX7h2lf6aHlgb5SCqzauvymFDDQaWzwfHe+/g3m9eEwArZ8U3kf3d7wvTi/eUHli+PQWyTpDtaRk3HvaFi6EfMECANLJkHZ9+Ij+nVUHGsmUCJpW9975yvfECXoyDYzHxpFSplRRsgSoJFgaU6+VhUZpBL0xd2bMNetmfuFfRv4+yRoJ7ztWrZe+JFt5Bm+98B5bps6CyWuQ96AtZUVoCdW4eYjk5cEUi0BmNLbL74KEJn5co+XZt3yZ7XsIDK8HA+rrWMMms7RLry6N4Vm/tdbelzxgtWW9a8qzekvdNvJbvzwM4emJTjdWaHlhf535J9l6a8JPkWGxND6xkj5eW9ktSUghF9uD1yj8EUlpT91o7qaI1wTd56K6WEkbUsrUArMSN52ckgJTWBCS4YFRPIWxN1PXr3C+1Ezxae3NJpRDW3dZaMl6kIHW5xBg2IcVqbKPka+j75Nq2A5r2ech+9hnxz2kyLY00fTJS7LZ6ZWzKcTSNmyskmY1N1ha/D8EzZ+Hauhklb70rHk6mkcOR8+zzMAwZIkwuMbtuRqsQMCJaZW4v60vidxthbij+RiEp+mMej3gyUWpCcOn+r/4d3sNH5PTePHWyeAiJLPMIPVu8MA0dCl2XrgKyUc6lSOvsYrqryswWjw73rl2ojFbISa59Lk3ch8gJNT8rVl4mp/nO9WtQ8s77SMvLhXX8BGRMmSpMJYIPfEBn0UMGAFRq6WOypPwnT4rMjumFieTE+rqJrAbxeamshIaeif0HSFKgrmfPeu+rMKlKSxA4fw7e/fskoj3dapEIeBZYrp074d7+BQy9eiL7hReh7tET6XEAq6KoEL78fBT//nXxjKGpLs3B6fHl3L5NWEM6Mn6GD4OhX3+oaPheS7ZX/Rr4vVkAJcZLU+sLi1vfgUNw7/wC7l07FW+lSFTAI0qU0irTBLRLN2gV4KmCpr0h+TkLKvuCucha/oxIk9QZmQL8eXfnw7VlEzwH9ktKn65zF6gz41JN1qGxGEK3byNw7oJIfrKWL0P7X/xSwEye4jtWr5YCT9ehnchvGjKephwoXO4Q0JBMMeu0achYuFAKOQGwCM5QRsNCTaVBOg2dWfS63agsKxXAkyCWBBCQKXdgP8o+/AD0l7NOmixG+QRyCZj6yFg4dBC+EycFpEO6GqiIindYusWq+GA5ncIYI4BFsMAwdKhyrx6yEcQM3C1E2eFDCJ8+hYoLFxA6dx7qTBv0PXrJ2DANHymFsngFtQBw4niJ+P3CmmPx7c3fJX1vHjoMmc8+J4lyKntNJmZzL6f2M0Zzn18S/mnsZ4JpwsTRapVxyP6MX1+jKWGJ0IdQSAFEuDJotQIkCPjbDK/SxEM3Ab4MhltwTYjE55ZBh3SdXkD+5q63cYRCGHMRnw+xcFiYLhqTSbmuZnyn5vQ91/RQUSE8W7fCs2WLeGCRQUoGFveIh2kN7aUE4ynLjZQUy5wjC4jzgeEi4du3FDZpU6l2lFw7nQheuYLApSvCWjJ076YwmOLziHOVCZuG4SOUccDgCQI+wSAcH3+Aol/+CzRtcmGdNgUZi5ZAnfPAgD7icSNw9rRI16PlLlgnTULON18Qn0bZx//93+BYv172pqxnn4FlygyojA987Hhdjs9XouStd4Tt2oYm7t/9QZWJe4QAVoECYIVOHpfvaV+4CIaBg+IAlhPln3wCJ++J143MZU/K+uj64gslgKGRJgzfcEj6hwEglb4AVJl26Dp2UNi4lBYPGCDBFPQhI/OY8nrHypXy/pGiO2j7F9+FZeYcMbbnmCWYT7k4+zCalibehmqNRgr7eu0+JHhGBZXFprBoNRrpt/Dly3Cs+gzObdtEIk7jfWstE3fee9YZzV0DmjNGk13DJLO24/Ul61n9UfYLn0mbesZozr1MvKYlz+oted/qABaJLAkAi2O9tWrqZNZ2ye6XlqbttbTv+f48DOJYIZu5NRlYCaP11l5feI0t7ZekAFic0BywjwLAai2fJ3ZeMgdtshe52gBWaxq3JbNfvsygbclkTmYEbTI3xUfdL625KcrpaG2gppWKBUoB7vzNT1H+8UrounZG3o9/BBvlDdqHL1wT9zNxgslks4qiIjg+/EAeFgkAMNWNaVFMI6JZeUuarAESuU4Dd9VDP1xS/nX/P34F9+4CAZpq1CvVpIrVwaOGboO+Z0/YZisMLEkhjDcBJO7eEeP84rffhWrwIFgnTIJ92DCRP9H7g2wwkRQmjH+l8AyLNCXm9Sl+LI0VCwmGJx+6NWpoTGaorZYqmVx1fyVeJAt+StPINnCsXY+oywVdt87IeeVbkp7lo/xs5646ABZP0cnA8u3eXQVgWSZOgmX0aATOnUXpe+8jfOuWsAOMvXtLnLyY67MAaUAe1mIAy+FA4MwZkTl69uyVXuGYpiQ25nJKcUMAg5JQFpQ0A444nVKoVvpCyJg/C5nLnxGQkWAQ+9a7azdcmzfBd+KYRKrb584XgIvFJxuLP8psSt56C8Hzl5C5dBHa//yf4Vz5mRSQwSuXoevQUYA8y/SZ4qdWXyNDMnDuHMo/+gihmzcUAGvBAwCrggbDRUXw5OcjjRHvo0Yqvj46HVS1DoMo/6N0mAAWZZjm4SNgGDhQpDq+kyfgO3EckRu3lK9B9qlaIz5BBkp4OnURUC907SoqvR4Zs9ZpM2Ac0joMrMj9YkkNK3n/PQEEKt0e+Rq2WTNg5/WOGiVyoi/TBMByueDeslnxsTlwSHyITMOGIOsb34B51Chou3b7Mm+tsPXiqbvNergk6BSXwoq/XUmxMAE5BwnM0dOLjDABoViAxw/4+OW4X6iqmVcT1OAhBIt0MvvIdCHIrm6bp4DbNPwnq4fStAYWIQJBpSUlsmbYuBaQZUdpG33bMjOhysmRuSkJok0lZMavTVibgQBCNPD3+WSf0Oe1Vdig8p0UqdzDNAGw7twB0wrdX2wXXzbOC0pbyfZ9mPZQz17cAxo7GAmHEbp+A651q1G+ao0YsTPpluseD2YabBxjoSDKP/oART//JdJMRpjHjIJtBhmE1VIIefhz5Qo869dJ2q1t0mQ5UND27CH3JAFgkYFrnT4DJjKFCVLGvzPXLc/uXcLS4oHIwwJYWcueFGZtjIcBjW9IctAk4N7lS+JPSHasoXcfWKfE7ynllQyFaZMrB0LcH+oDsKwEsLKz5Oeha9cEbKOxPd8/GAzKPKKvocyNWo2HUirKM7t3l1RaJrA2CGDNnCnyy4caL00M1GTXMI0C5A8zieK/mywAi2/f0sK7JZeTzBommeNFnj0qK0WJ9XUDsJJZwyR7vCTePwVgtWSWVXttCsCq23HJXvz5idUZWCkAS7kHyVz8E+9PWjI9UxjB3GjMfQvn06PcFFMAVq3xwof0khKEjh1D+erP4TtyTIo7MlvI/GIst8j+mtk4/8kA03TqLKfZuv79oeGDa+0CI54iVd/pecKEO1G8CbC0eg0CZ8+ARuiUjLAgJVuHJtrRovvyd4I72vbtFTYTfVbqadq8PPEzMg0fAW3XLlWvoAyRDC/X+nVw7toFzYzpMPYbAKNaheCZ01AZjOJ5RSkDpSQsOCl1JDuK0hYxz44zlBrqKsHahIFFYC8NKo1Wil9thw4wDBokp/rCuKGp7vUb8FN+R6+XS5cQunkbpmGDhEllGjtewC2egNfHwKoPwKIMzDZ9utwHSb7bsweBS5dRGQxA26UzzCNHwjJlqkj2qrzW4mwxAdNo9kuGnNjYKCfejdZGZI8xybK0RBLxxMS98C68hw/L59PHyzpxEgx9+4nBPIFA97mzcB04gMip07BPGNcwgCUshPGwz18ghRqBB3mIDAZFVlnyxz8icOEiMmbPRO5//1uRDpZv3Ih0jVqkgJQA6Xr0rCnbrHYxlPsSfCt9+y0pTKsDWByvBFTpZUfZKFlVlJLSb47pfJq495nc50gEwdOnJM3PsX6DGOEzUZTyI/4sQilvSZkwTBgVT8muafBgmEaOgCY3T+SQ/ouX4KFv160bsM0kgDUdxsGDW0VCSF8fFs7OTRulcNV16QzL+HESAEHPGXW24v/2ZZoAWD4fgqdPi+SMwGKF0wXzmNHIfvllkVdSPvplWrMBLI7bUEjARoZnBE6fRLikBBU+HypCYSmmFRDLKv5jCaZJJVPO4tJS2S84linjPXdWgjgYgBFzOeKsqUpAq4HaYBLPNpr9cz6RVanp0LGO2T4/O1x0D6VMtzt3DhqPGwgGqpgyBJ7UJqMEKtB7jMwmVW5bBcyqvoZyDQyHBUwgiy905bKkqcbIYpTk0XSoDHpos7Oh6dwVpuHDZW6LR1xtJl31Q4BGbkg0FkWIaX6rV4lsmnZ3mU8sg3nCeOh79Gz5reT1JIzM44xgrn9c/2V9qb1nkKlTHdDj/SWbzuFEmtmkSALrYa6xnx4WwCr8p18Ii1STlyvsJM7XRKuIxIRdHb59W8ZSQwAWgSIGgjABVfFUjIM5sjYWyhrP9blRAOtEfO0TBhbXPpMAqpQQOrduVRhYTy6XdFd1Dc9MOU6qcY/IHoxFwsI25R7n+uwThO8WwTRkKDIWL4Zp2HDFT5D7t54Sba30f1MAFg9div7tX8UvjS2KSmF5K4fwtQAsBk2kp8l3tYwZg8znnleYZw0xsFIAVpPzLAVg1e2iFIBV/7BJAVhfj35JMbCq3adkTuYUgNXw/vIogZqmCswmd8FaL/hz2RRTAJZyYwXwjERQ4fUhdOakIgvZvRvhG7elmBKTWxpos5Bozsl9AlTy+sRTyThyBDIefwLmadOg4ftUN+wlEELG0+1bkvhXu/F0mifjmvbtxSuE6Vg07I0UFcmJOMGUqMSW30Tg+FEpTtLVWlgemwhzPImwIbkTASNKz5gCV52BQyCs/PNVcO/ageD169A+8zR0XbpBc+sWfF9sF0+QzKeWw0hQrlNHEORwbdwAJ0+aPQpzpTntAWCXJgbClIoZ+/ZFxpLHoe3WTQohFhNeJhsePIDQ9ZtSRGg7tIdtxnSR67BIDl29CseGDeKTVltCWC+ANWUq7PPnC1jG1EYCMJQl+k6dkoKcwB5lldaJk0VaA61WvNpY/IsXDKU8jK0XolBa3Keu7ml6og8IKpGVQnN1FnUE+Aj8ODdskNN5lcUsEkHTqNGKLCgUgmPfPpSsW4tw/m7Yhg9D5vJnhSVXh4FFAGvSRNgXLIKBPjCGBwCWZ/Mm3CeAdf48LGPHIHvFyyh7+014DhwU4CfzyScFkKJRvRg419MIuHG8lfJ9Ll4U0ChjwQKREBKYYngA5agEy8JM6bPaYJs7G+YJk2Do1UsZswT7L10UIMx78oQEI0SK7osPDlMjOfYoQa0IRRRZcSAg6YW2mbNgmztXvh/73b1/n4CqoQvnBcCyTZ0mYGdTKYDNGYvenTul6PXsKRAPMeuECbAvWSJMQ5EMPkQTxl4ohEjxfYROn0Hg0AHx96EMyTpvnoB4IsX9Eq1ZABbBDX8AkaK74n/m2bETXvFMKpM1jQW5Ek4QkWvXdGgHy6iRsE6fCU3fviKplXQ6AqM06D5xHN49BfDs3S/STwKuXCO5ron01e8XJhdlufo+vWAeNw7GkaPEj1AAdUmIZBLndXj374dzxw5FNup0CrAqYQV8LxqNR8LQ5OTCNHworFOniFE651Ii1VTAe66fN2/Cf/wo3LvzRSYbvnlbPIvSVGrF1ygUgirLDkPP3rBOmiiMOm3P3lDZrA/ei3tAMCjrcVNyM2Fg3b4jTCNeQ5pWjYyFi8RUXNupU4vvpEg3KXPUaGQ/ivq8iNy+gwpHOVTpqpr4lVqDdLNJPkeR1kZl76JUjeslTcu1HTrKup4AtBNfqNUArIoKOdhR5WQhTf1g7Mp38flEgs61qiEAi35wlObT26q6PFQxxy8XwIf/vzEAK3j8qLA4ySIm+M9rjTpdYnbu2rlLvCszlz+t+Ad2jt8Tgulcu2kVUA28lHkUiSBcVobgieMof/tNkRGaR41G1vLlEihRX2sKwPLu3olbP/yx+Fim2W1Ib5cnTGOR+VV/QzLYy8oRun0XakqkZ8xAmx/8lQRrpACsFk+nql/4c3lWb80aJpk1Lzs+xcCqf7wms+blJ6YkhF9+nZBBm5IQ1uzAFIDV8IBK5mROMbDq7/dk6sebdXrBk2WyhhhN3pTZbLVLoE9L4T+66PNLAAAgAElEQVT9IxxrN0DbuQNyX/0WrDNnN+2BlXgPOa1WSYFQwyA8/nM+uEZYMFy9Cu+unZL+R7CEEggWW/oe3YTNRLlconBqdKlkUcWkOEaOezww0cj2iaUwTZ9eB8BisU5jdueqz+E7ceLB20qAWqUwGQx9esM2f74YsFel8IXDQEUMEY9X5GCeXbsEiKGpLAGBrMeXiESDXiN1/QeUdDzKEyj/qALn+OmxmHhY3X/tt/AdP4pKVTp0L78iBZH6zFl4CbhYLXKyTSaDplMnVJSVibmvY906REpLhYVFRhhfJ/4mlILVYhCI/MjrQywYUPwBbTYxxzf17y9sI74vpX3lH38IT0EBYv6AsAoMvXvDMnWqnLgTfGNlR2ZLSwEsgjDaLl2EuUGWV5BAzJ49UowyUUzToT2yFi+BdcYs8dpiYqB7+zYBcWQM87Sc6ZkKDesBG6Ie+Q6BMgI/LG7JRuG1M9XLuWYNXDu2Q5OdieznX1ACAtq3V6Q6e/ehZO1aRAryYRs5XAGwBhHAyqgpIWwmgGXs3w8ZCxbBuX0rIuXlUvTRg0rfuxdUTAFrwNOJxtG+M6dQ9sYbCFy8JJHyCQCLfU9jdfpjuTZthPfoEYRv3ZXvaB45CtaZM6Dt1FnAq9I330T4XpHCRHO5Fe+z3DYw9O8PQ58+ci/E7P7cGfhPnYKhXz/YZ80R0JesRzI2PHv3wrlhLUIXL8I+Z57iNzRwQKtIiRMAlvfwAeg7dZHPNj02GZrs7Bb5XdW3LiQkpxxroDzO52WwaM0UwgYAxKYeyZoDYJHhFr5+A76D++FYtwaBi5dRGSLopIcmWwkPYIEddbvioFFUQgUIQNqXLoNh/AQZ32mhMEJnz6D8/fcEcGKSK0EIytAITpHpKeybojuo8ChJoVwDyDQjGGYeM1a8gQhyEOjmWlv67rsIXr0may1BTC0LfKY7qlWylhAgoIE//24cNBDZL74I4/CRSpgEgTmyU27eEON/AqmhGze5iCFNq1dYc3q9zHEmzVb4vKiMVco9JcvSvmgR9H36KIb83JvcbiV59do1AWEaawIylZTAy7TNCxcFjDWPHg3KsqUvWtg07dsJWMqkTx5KhO/elTQ9+hrWXjvTzRZJw8tcthTanr2U5Ly7d6Q/yz78SEneHTFCPJLIpqsuhW4NAKvoF78UHzrjwIGSGssDjUSL+gMI374Jb36B9GlDAFZFOCTSWX2//oqEMN7oQSWs2IK9shc1CmAdOQRtl67yPvR8pEcV12Z+NuXIZBRmPfucAFjaTh1QSWm716sAtRaL4mXJfZAeX0kGsCorolAz/OGxx2Ds3gNmgpXV0nw5V5hWWL7yM5mb9unTUwBWC+dQfS9PAVh1eyUFYNU/sJpVwzzEmExmzZsCsB7ixvBXUwBW3Q5MAVgpAKul0yqZi9yfGsDiyba3IB/BixfFOFhOQpvRWIC5d+4SPyoyNsyjR8HQs2ezC0uearMoMo0bJxHYtRv9hoK3b8G7ZTO8BZSznEeF50EBk7lkAcxjxon3RUNm19XfUyRmTENauRLek6fEADpj6bL6ASzKaG5cR+l//UF8raoe5Cti8iBLmQWBopwVL0FHNlCND6qA7+wZePbtg3f7dgFFCB4RqDMNHSwMj/qM1PnQTmmcvlcvScyix4w0FnEul3hN3fvVr4Rdoe7aFeqlSxWWzIkT4uGjtliQ8cSTwoogQCFF5NUr8J86ieCFi/CfPoXAuYuwTpkopugaykRqJdzxhN1z8BACFy4gXa0SgEeAjI4doR8wUFgvBOPKPngP3kOH5aSe7Cwyh3T9+gmwxxN3FmR88P9SAFbXrg8KL5rt0rtlD+//Wfn/GXPmilSSsihvfj6c69bBf/q0+JmwuJJUvGBYKYLI0tPpkaauJoeJv7uuSyfY5s6DecIE6Q8BsM6cRvnKlXDv3gVd+zzkvPyqeFhxjLE/y/fsRcna1Yjs3QPbyBHIfPpZMSr+0gwsytVefAmuLVuE3cHindI8tdEgY0yYW/WAWLxPNOYve+sNkVnaptMTaoEwWMhikDRJyjwvX4H34H64CvYgfP26+LhQ/mcZO07Ya5IqRqmaWi3Xx4RIhg3Qg0tPJkyGDcFLl0Ui6N23V7xnCLKZp0wRE2YCEJ69e+Bcvx6hK5fE80sArP79mw9kN7LWJAAsJkUyHdA+bz5M48cLsPqwrYZnGsHaeNHcGobizQGwWLR7tm2Dc+MGeA8fQszjE4mmbdpU6LpSFm1FzOcR8CZ44QJ8x0+I8T/nYParr8Aydx5UZosktgb271N81S5fhcpkRMaiBTDGvdkIcvHe8n57dufDc+iw/J0gqW3qdAFcyAqi/5t4A23aiLJ33kWkzAFDvz6wz54FfffuIEDDsRhzOiQMwrV1u4Cn2k4dkf2N52F5bAp03XvIekWwmWu2c+NG+I4eEyDMPHakAKiqNrnC5pKETke5rE8ERgic67t3g40S2ukzZN6RcRVh6MGJ4xK0ECkubvS2E8DmdVBmFiO7Rq0S+a/iY6ewIFvSmGpnmTwF+l69UZmejuC1ayh/8w24KU9MtDhoLmthv37I/f73oR88RElaLS8Tj7V7//4fkpzHQw/7/IUwjRwJdbt2VWyjVgGw/vlfocnNgfWxx0S6TJ+yRCMbmCC04913xaewIQCLaak0WOc1k6WcAOloRO9cuwal738ABkg0BmD59+2Vgykt/c3IIlWr5F6Hbt0BEyLp0Uj/LaZDEhhlgALZeTxw0A4eAt3AQQKOJ0zPk8nA4kGShgzaxUtgHjQQNqu1hok7v7dvbwHu//a3iDndsE+bmgKwWjKBGnhtCsCq2zEpAKv+wZICsL4e/ZKSEFa7T8mczCkAq+Ed6FECNa1Jv+UV/blsio9aQkh/jtI//F7o/VGnQ/xJGmyKSZIYA0tSoNMtrB6CBekWs8hDhIMvBsGNG/KyANZ36YKcF74J05SpVR8pHkuBAIIXzsNzcD/cW7cifP0m0nVaJf3HHwTNnXP/4lXY5i8UyZmYbDfRKsguKitF8a9+Bef2HY0DWCz47hXBvXED/GcV4IQtQubLsePQZGVKMcZ4bnposXFdYcobiyz37p1wE3Q7dUqS28TYnnI8o7FmIUVZIyUy4YjUzTyZpxdU5vLlwlSQ92Vy15278O4tQPHrr0vf0Hw3bfhwBZxhctXRI9IHNEIniKhtS1DPKN40bP5jx+HcshGenfnIeu5pWCZOFnZNur5mvzE1q3z1apHuqQw65P7F94RZoaY5bjwtrJJGoAUFUsTSC4TmyDS7rp5yJgXLpcvw7tsD75HDIluyzZsPVfuOSMuwk1ctDLHQiWNwrF0NdWYOjMOHwzJhYk1TbvERCwgIGLp+XYpCytj4mQRayfKiUXz41k15HRlhlBxGbt0RUNPYv68yPupJxGP/GoYOg65PP5GyJE7byz75CJ6CPTB074o23/meyBXJBhEAq2APSteuQZgA1qiRyHr6WejpDUZPlGom7t7jR2EaMgTWqdMEkEwwDMlyJFhc/umnCF65hoz5c9D2b/8XvHv3IFJaJkwwmm9X+rxSzLNfNXnt6njtkGVCAKv0rTcRvHwFtpkzRH5J77QqOW3c44pgpHvvHvlcyp84NuixRcCTTDN+J8rCWJyrc3MF1LAvXCggKOe6/9hROLdthZd90rt3LQCrHO78Arg2rEf4+lVkzF8oTDx97z5VAFZlNCJSMhqTp7HYF3pc85qf4OyRIwLgaDt0EsmlYUB/Ac+abpxQGkm4JIhRG5hqqel/05/34BVNAViSqlZUhPL330fZmjUCTFGCa5kwHplLn1Tmpk6HikgYkXv3hPHjWLUKvuPHUekPIuvlF2GZt0AYmBXF9+EryIdjzWph0VHC1uaVV2AcNVphcVJezbXa74dr5Uo41q6Ve00WFlNMs7/zbQGeCJL7Dh2Ca/NGONeuF4aVbeZU5H7v+9D17qMcEpAVwwRMsjA/+gC+o0eRRu+9xx6DdeJEmU+cJ/TeY+ocwU2ypnSdOsM+fx4sU6YDTEalZxH9+Px++A8egGPV5/CfPiOAlXHwIGQ/8ywsM2dJh/KzJChi2xaE799r9DZUhimV8yJyrxiVgRDSLSYBgvm9mQRLhhn7Q9Yzs0lJF22gpSFNYUxNmyEANyXLobt34dmyCYFTJ0Xem4ZK8YkLnD4nexPHZt5PfgLDsOHKQVAkgsDhg8LA8p07K2Ax7zGTEcnsFJkwAedW8MAq+uf/C3VOtvj2McU2sX/w8ghg+S+cg/PjjxBzexsEsMhYa/PKt2CdNx/pJuMD/y+vF+Xvv4t7r/1OZLaNAlh7C+Q6BTTkPFWphN1HCSKl9tq8XGS/uCIOYLVF2ZtvwrFps/hGanmYMHWqMLf0Fov4mCYTwErTqaEZMkwOgyyDB8Nus9UBsLz5u+XgiHM0BWC1ZBVs+LV/Ls/qrVnDJLPmTTyfpkzc647JZNa8svamUgi//KKRYmDV7bsUgNXweErmZE5JCOvv9z81A4sSodLf/QaOzdsQYYJeJNzwAGFRHAqL5ENpFYAUpYpkC+LIAikM6D/SWFPbbHKy3WbFCpEkJRoLHpr9OtauQtlHHyPm9snJMotnPpRHigrh3rEbOd9aAduceVLENed0nZHyZCGUvPYbOHfsbBTAkuKDQJrXo0gW481/6ADu/uz/E8YKJRICYA0YoMSkC4PnjACBnj27ETxzTpgwTEkjM0nkPkT3qsnZKuhN4nSI7IcFJsEW+6xZyF6xQkyS5cGDUqPLV4SBUPrOO8LISDPokEaJGbucAITXr8gxrWaoCPSZTNB16oTMRYthGDIMgbNn4dy4Dq6tX8C+aIGAb/ys2j5F7FumPBLwUtstaPuDv4JpxCiRJCWYQGL+HfCD/Sl+JTqdeMTU8CEja8zpFLZWpLREChlJijTEzaeZbMb+LS9D+OpVKdbVOTninSVFT/UWN7pmkZfG32OSGgEpAoa89gA9eSKoiMYQLitG2e9/D/eOXSJ9ynlpBSyTpyqARy0ZIZkB4nHD99Jo5D0CR4+i7P334DlwQNgnbX7wQ4WJZLFUA7BWI7x3L2yjRyLrmeegH0AAy14DwPIc2g9NVnbcUD9P3l9aNILglYvwHaLXUSmynlyKdj//PyKxCZJpcviwAjQV34ehezdkzF8Ey8yZdRh70ZJi+I+fiJu4X4Vt5sw4gDWyjh9cNBAQmaB700aEzl0QrxfbjBnCHKTHUrToHvynTqB8zRrxJrJNnwn7ksXCuiOgoKRMblFAvdoAVlk5XLt2wblxvZi4Zy5+XNhbYkBPXyWuEC4XSv/4X3BsWCd9XDOis/FnGwKSHNtkhvKeUyKlgDINe5tVvWO6CuqsDAFDbIser8M2/FMCWOJhduqkgEDOjVuEnZOxcD4yFi6WVEuRf3G8coyL1PCaGP+7tm1H5N592JYshHXWbGH/EQj27dsrbEQysgxDBkuCnbZnz5o+RpEIvPv2iS8afekIRFnGjUHuj34khvj8TjQ+d27ZIn8S1LTNmY623/8rYciKAXn8O5HFQ+ApcPoMol6PAFQEbA3DhiFaWiJeXMX/+XsEzp6HoU9PAeVo2k1pXSwOYYpEOS0NkZs35HuVf/oJ/MdOiAl5229/G/ZlT8m9ZpJi+OYtBC+Sgdu4l1/E6ULoFmWZBxErKxdGm3XyFBBEJQs1cOUK0rUaScnUdWUYhLXRKHmCgbpevaFp2xaVBFPoSeb1AKGwAnRQKn3yOAr/zy+FjWjo2wd5P/2pAFjK4l2JWGkZQjevo+QPf4Brx06R6GYuWgjbnPnQ8SBCp2sVAKvwf/9C5KL6nj1g7D+gxjoao5zx/j3ZB2i23xADi75rbV59FbZ5C5TfTxjYe70oe+9t3Pv1a00CWIGD+8XwnCC27M1aHWKhAAInTiF45ZKsxUz5FA+sTh1lbShftRqhkmLEOneGmmm0U6bA3rkzrFZrcgEsjQraIUOhWrYU1kGDYbPbawFYYZGAFv37vysMrBkpCWHjK3bzfpoCsOr2UwrAqn/spBhYX49+STGwqt2nZE7mFIDV8CaTArDq75tH2S+PnIEVDEjhLgyXUFA8nGo3YReFI+J9QsZFpNwhhrUEv2hUSzBAQA6NFpV+n5wym4YOUYCsBphYkmZlz4Jh8EBounQV6QkLIxppe3Z+Iaf3/pPnoOvRGeYRo0WmRnCLiVY02jYOGyzeJmp6ZlQzrG1wdFNWFQjAc/AgwkX3GwWwGnoPX8Fu3PyrH0vRIwDWt78NTfceiNwrRPDUKWGreE6cFAN1kYz06wd9t+6KzJHmxbX6gkba3gMHRALHa7dMHC9G2BZ6DMVlUiKjuVcE/1GmMK6WpDyyWKLhiCL/YmKZ2y2JcGRESZFvtkLfoT3sc+dC33+gGHUTwHJu2CQGzgKq0QSbZsrV112vB8Fr18WMXte5I9r+1Y/rAFiJl4uHTWmp3C96vfCUvarFC2+y8+g7xvEhBVG6ChX0PotDnSzO6UdGcI8MDxbJ1f3MNLltpRDnn3WArVo3iUBN8OYNlP7q3+Dbfwj6Xj2R89LLMI0dK5/HfuN3pjxL5FC1/b/CEfgoxXrjjzLGzCOGoe1P/0bYAJQ8KQysfJSsWo3Igb2wjRmD7Geeh37AAJFSVmdguclCiMbEd0q57jgbsaJSzNPJqqnwBZH93FNo/4tfIkaz4PIyBE6ehHv9OvgPH5EUMAJN9jnzoe3RQyLiEy16v1hMu0vfeQuha9dhmzVLQAvjiBF1ACwJFAgEJAWuorQUap0eWkpQ29AfKV28inyHDqLsow+AirQWAViUs7q2bYVz8ybE7hUh68mnYJ40WcCBhDy1wulE8e9+g7JPPkeFeMQ1T6Is9X84DLKV2JcEA9Lo22bSIy29cXCcv8txpG3bBjkrXoR96ZNfKQBLvJH27EH5qs/h2VUggFXOyy9KCIOmXfs635WyPYIyIvN2uaDp0R2aXoq0Ny0SRvRuIaJ378ocUrXNg65zZ6RRghwKCehS6fOL9M+7dx/cBfmyHnANsYwZjby//gm0ffoi5nLCd+AgXJs3wbF2vay1BHE5BunzxiADTU6OgLnsW8rBOP8JLlLurM5uA03bXISuXIF7xxcofftthK7dgHnsKLT9yx9A368v0m12RBmQwTEgSaEqVLo8CFw8j9L//E+4vtgJdaZdWLn2J56Epl2erLUxr0cAcQFAG2mBS1fgO3oYnl07UBmMVHlqkdHo3r8fvsOHZY0h4GscMlTApMYko+kmszCJKKejhFBSTjkO4ymn/NN/6CBu/+3fSoInJYI1AKz4GKahvXP1KgGCyX7TdewohuC2hYugojdXLPbwKYT/+HPpH64TcmCifsAuI4AXC/gkZZOHQMkEsIJHD4tM3jLxMTmgIghZ4XHDvW2rHAzw+SLz6WeqTNxlTHIN2b4NoWAA6hEjYXxiKTIHDoS9bdukAlgxvw/q9nlQ9esPXds20JPRXD0QpiKG4PUbIpfnYU3KxL15AFVTr0oBWCkAq6kxUvWcyWejaLTOutvc32/qdcms7fjZKQZWU3egkZ+nGFh1OycFYKUArJZOqWQucn9qBlZz+kLMvcvK5GG9+I0/inkzC3sWQuHbd0VuwNNkevaEb91A9vPPyak7U6/qM2iv7zNFRnH5Mtw7d6D07XcUr6ecTFjGT4SVRVTfvgicOiNx94516wUUkZQwmq7WY9Jd5zPIkqJHSrzgaswDq7kAVs63voX0jAxJEaP5d+D8BZGpaLt2ESNi48BBIk+j2by2Yyd5mBcwQwDBMMLXrqL8ww/h3rtP/p719HIxVtZ27vSAHRVPK2OiIb2IaKLMNcxPdpjTibSie4hcvyZMKDJkEowvTXYWTEOHQZ3TBpRiEcByrFkv6XoKUKSpC+Kw0PH5hJlj6NcbbX/01w0CWGQNEbxiAp13/wEBcOS64p0nLBkpBh6wZR4kHCY+uhqTRu5PhcJmizeCoPYFCxWfqTYPPF3quz/h0lIZj6X/+TrC167DMm48sp5aDm23rgiTZXT8qICt1hnToe3cRWEIVU+eDAbh2bVT/E4CFy7C/tgktP0f/wOadorhsgBYu3ejZPUqRPbvh338WGQ9+zz0/Qhg2WoCWAX5whySBDMy4uJFEa+NwAClXgRzsp9bLgBWRdysOEYD6i2b4dqwAYGz56Dry3S2xwSI1PXoUWX8HL1/H77jx1D2zjtS+NI3yD5vrsiSaidyVpmVR6PCemNQPFkYZIXxe4WuX4PvwP7mA1gzZooPFfuEjD3H5s0SVkDgOvv552GmPJXsPqaDkoHl9cD56Wdw79wpRs3N9diThz+mTJaUiZE3zZ+ZDEiGTppG1+SyxeQ8mqEzMdE8dWqdoIc/JQOLCZ3uLZvg3LwZviPHwbma+73vSFACE+zqgKtkK/r9ShBDMABodagk4GswQKXVIp3jOJ7qR8kyPYtknLk94glHdhBBTzKdGErB9+I6UB3A4v8T4/+tm1H24cdK4pxaLRI8ynaZpilgfNu2IqmVNSTOYJS5FF/XKHd0b9+K8s9XI3z7DsyjRwhTlSl8EjAgAFalLAtqSSOMiiSc7FLPrnzxXct64gnYFy4SXz36ITW3efILJHWVDDC12SxeWhlPPCHgsGvrVtlbyNalz5N5/ARZl5u1d4gVYcWXArAS353+eu7du0XqSYmjdexY5P7g+9DSNywt7eEBrH/6hYwBARPJ4IvPP34+D0HIuCMQSJlhbQCr+F//r7KnajXIeuYZkT6L/16CgeX3icyz5O13mvTACjHAYvwEuX9ct9nfFS6nSErJ7qvwuiVsJJFCSPYxAXQCmL6Tp6Dq3hW6ZU8ic8IkZPTtk1QAi+m2EpzCg7aEB16twcZnH+5I2pzsFIDV3InYxOtSAFYKwGruUEoxsOrvqa9av6QYWNXuU4qBVf+gTWa/JNBifobQ++lrVP00qrkrTgOvS0kI6++YrzyARR8it1sYAM5NG+HZvx+G/n1hmz0P5R9+AO/+g5J4ZZ83R07nKUUi88g2dZoY+xJQaShNrXqPsICiaTOlRiy0VPYMkcOIVIayGpUKvgMHJNmKD9v6nt2VSHKzuXkphAlvrfPnEHV5WoWBlf3iC4ox/Nq1AigQUCO7xThyhDwQ+48qoImR0qsFC4XFQLYFwYvIrZtyPY41qxApLReDbEaDG0cr3jU1gAiak9PjiRJPmgNHY3CUlYnBsersWfj35Es/0PuE8hEl5UorLC4WtL7DRxQJ4eatME8YJ/IOmuk2ZOIeunwV2va5aPvDHzUOYF25IgAWk+jYD1Jk+4NSnBLUpKRJfGYS64h4qCUQLsop4/9doUilmLomnmr8gUYFKz2BnnwahsGDRGLYWAteugT3ngJhOiASFUYSmRYExcgSolcWWYSZjz8O4+gxCrsjwVIggORwSOFd/Pvfi19LxszpyP3xT6DKzVU8dIIBlO/ahZJVqxA5eAD28eOR9dw3xI+L/VzDA0uSuLrANHwE9GR8xT24eO84TmiAzUSzrKeWKgAWPfxYKAWDiNHzZ99elH36MaIOJ7R57ZD97LMwjRsvXk4EC8QX6ehRlL73LsI3bsE2dw7sc+fAOHRYvQBWhFLLkhIQ+ILXK4U7TaQp5wnduN4iAItSMIJplIrRm8qzfx+CV69Cm5uLNq9+G6ax46HOznpgUB2Nit+TjF25/y3wwDp6VBiTgfNnoevQCebx42EcMljGVZONTD+tVgBc8QOqBXJXB7AoTaWcTUyr+WdcHtbkZzTwgqY8sOjpRkCAgEro6g3ou3dFzosvwLZoSf1MQwLDBCFiMRnPAnhKims6VJJEGBIZMoGxAP3iLl8ShhTl4FKA83fJoC0rE9asMHWslhoAFhmU9InyHziAstWrJPQheq9EJHeSDmc2Q0XAzGoRwE3brTt03btB3zW+DpOZlZ4Oz86dcsjg3LoVkcJ7IuPU9+iuSBATXoFVS0BcJhkKIXTrtshqKevLmD9f1kvDoEE10vQavR+VlXB88jHKPv9cPPGMffrANne++HNFCu/+yQGsCrdLkjyZbMuER6ZJUkrHfiRQSCDatW41yletUfbTufOQ+dRTksrXYBPQMihSVPHAysqCZcwYWKdOkYCURIv4fQhevgznqlWKNHTSZGS98IJIfWl6X/SP/4DytWvF8457la5DR2FTJ5oEXDAQ5Px5SepszAOrpQAW/R95kEOTeNfOHYi4XVD1G4CcxYuRNWeuMBiY0Bo8cRzlb7+J8K07MI8aLXulacyYeruGTHGGtbi++AKRojto+xffhXXmHKi4Lmk08O7eiVs//DEiZaVIs9uQ3rEDNDY7NBp1DUkpgVZKa3l4pDKZUxLCL7sg1vq9FICVArCaO5S+akBNc7934nUpBlZLe6za61MMrLqdl2JgNTygHiXTqDUNEHlFfy6b4qOWEDa1vMjJ/LmzSgGQny8sANvsWch46inc/8XP4Vi/CdpO7ZHz8ksi9Sp9/z1JC6QHU8aSx0WqwVPfpkAsFu88vffk58N36oQAQTwlZ6ITT/3hdovsJgFg2efMhGnUGAE2ans51XtNjIl3OuVB2XfmXKsAWDkrVojRMtMYQ9evyvUbh4+Aplt3RMpK4Fy5UmRhlOtZJk2CeeJE8VQic8V/4piYodMImfHrGQsWifcHr7upJpticTEiV69BdfQIvJs3SaFHCRI/X9els8Jm4rwoKYHv4CE4N62He/sOZDy1DJZxExSZUS1z8/Dt2wLGMRVNbTXX64GV+G6UBtJMnNJJytOibhcCNFU/flI8ZxhBb+hLg/TOCouCBtBVDCsW33HAgOwG+jTRjJryzlt3pMjQdmwP27RpyFi8BBpJZWsctPDu3y+SLN/BAwLQZC1/RlL5Kr1eSRV0bt4okiZ6jAnQN2KEwjKIMxRoNC7sk48+FIka09eyX3lVZJls/I4KgLUSkYOHYB9reS8AACAASURBVJ80AVnPfVMxeScoWc3E3XfimCSNMbHPQD+a+Oew2PRu24aSd99B8NIVZC5d/ADAIjhBeRLBzYsXhKnBayLD0T5rBqwzZwuAQ+NnkRAePozS998Vlot93jzY5syWuVYfAyvi9SJw5DCCJ08h5iyHccBAGIcNEyYajftbwsBiv1ESSwmj9+ABhG7eEnaUadgw5Ly4oop10VxmS2Nj/VGkEIpM0ekUgI9zhmw6evfUZug1NSer/7xJAOv0KZR98CE8+/Ygcr8ExgH9kfXsM7DOnlM1Vhr7vKpDDwJTlKTeuI7AmdMgiEtwhAU3GZISGkHgibJik1nkW/SUity+K8BydQaWAIuVlQKKe2ncf+yoAJNpTpf4bMUcTkkKpE+aym4Rs3htxw4CxDA8gAEEXP/cmxRmGdlGHKfpRr0wtvh7Al1WBzAFw67pZ0bgmz5q1ukzFMN+MtKaagT1IhGUvv4aSt7/ULzmbNOnI2PJEzAMHIjQ1St/cgBL+pZS8COHEb1XLCAvjfYT4GqLAaw4qElg3fHxhyj6l3+Drn172OfMQeaTT0IdD/Bg14XdbtlvSl57DdH7JbBOmoTsbxLA6i7jpPBnf4fy1euU8W+zQmUwAZLcGm9kn7m9IvdmOm1rAlj8BDIE/UcZVLAS7gMHAb0eOU8/LSEZlXq9fG4yACyux6ouXaAaOxrGTp1h5HyplvoqwN2FCzJ2KGO2T5+WSiFsai424+d/Ls/qrVnDJJucwD0pZeJed3Ams+aVtS1l4t6MFaGBl6QArBSA1ZLRk8zJnGJg1X8nvsoMLBZ39GtxbdwkIAAT9liw8CHZPH067v73v0H5p6ug69oJbX/4Q+j79oN76zZ49u8VTxDr1KmwTH5MTHPF06naw2Ht3iBLgOyA8PXr8J8+CQ0NdIcPR5pekcnA7ZIktASAlbPiG7DOmivpXc0ycacMsrQMxa+/BtfO/NYBsF59VZgsTHcL370jJ+AsmOgiFioshL8gX0y56QtD+SL7jcAGk+Hol0XJYcLriL4gOkrbmpGwxnlaQoN0AbAOw7d1i3hsEQQjYEIvGjIq0o1mMTr3nzgJ5+YNcG/bgcxlT8A8Zgy0nTrWSecL3y2EY+Mm+I4chspiahTAErkgC+hQCJXBgDCnGBlPgJBpXUy0s0yYIP9oO3cVyRKZY2SPsAlQy/+mlJJsNLIT1jEh7bqwwyxjxwqDzzR2nAKANcQG5fcgy2rDBpT81x/AazCPHonsFS8LuMQkMN6b8nfehmPLVkm+zFi8GLa586DKUphCYuB+jMyoTXDt2AFtu/awz5oN++IlVQwIAbB27kDJys8ROXII9smTkP2NFyShTUzeqwNYlNFMmKDIH/sPEA8dqd3pwbZlM4rfeEPufeYTi9D+53EGFgEs9gtTyZhsdvYsXOvXisk3fYHIJstYvlwMs5mIJb5VH3wgTC77gnnyfclUrN1PZHYx4dDJdEWac/t8AgyKLHfgIOmblgBYphEjoc5rqxiHHzwg6ZoEM0yjRsM2Y6bIBxu8Vy3ZjABhZJLJ4ztyCIZevWGfN1/kiwl/uBa+XY2XCwOLaYDFpQhfOI/gyRMij2JRz3GnJuhST3plcz6zSQDr5CmUfvAePPv2ikSSQE0Ok/dmz65/LYtLjllQU3IXQxoqOE4iYYTPnBGjacpfo6UOQKOWuUsjbU1OGxnj6swsCRqgPDh07Ro8e/YIk7MGgBW/MM4FAp6l584heOMadPeKUXH7NiJFd4UJw3lOX7IKX0CKek37trBOfkxkZ+YJE+IAFveLfAGwNO3zYBoyVIA0AbGZvBr/LJE+1gawdHoYBw8UNiEZq81Z2yu8XkSLi1Hy+m9R+tlKaNq0QdaypchYSh+tdggmDmD+hBJCmf/hMPhdKfVjqiElxon1p0UAFhl4Xi8qHA7xLnOuX4eSt94WANE6aSLsc2aLD1aihb0+BM+fRfkHHyBa5oB5xAhkLloEXe+eqEQ6iv73P8C5aauwZoWdSb+96uttLAbK7bi20sexVQEsjgmOuaJClH/2CcpWr0H0bhEyn1iMzOXPQt2hgxxOJgPA4lzRkN27eAksAwfCZrVCpabIWmmVkSh8ewtw/3evCxvWPnVKCsBqzgLYxGtSAFbdDkoBWPUPmhQD6+vRLykJYbX7lMzJnGJgNby7pACs+vvmUfbLV4mBFblbCP/xY5IQRWkKT9wzly2Decw4qHPb4M7f/BTlH6+Ermtn5P34RxKNzahz58cfixcJ2QzmsYwNnwV9v/6Ny0ESJ8qUodGwl5ITgl5paYqUtRaAlfnk47BMViSKlLY01Vj88SG07J234Tl4qHUALKYQ9u5dlYbHooTpihwvUZ8XscJCBI8ehXffXikaaQhMxhjjxGnazkLTOnmyFMzGYSMUOWQzZLtRsg0KCxG+dBHphw/Dt+ML8WgyDBgIjT1D2E0VoQCMQ4dLihaZVZTHOddvlHtFiYoUT7U+i/KS0J274rOl79q5URP3Gv0tIFJMEgXJDCpfuRLBW7fkPSwTJor8jcywGJkScRNvnl5WMnHy9i14tm8TE9/wnbtQWW0wjxopgIxu0CApvkXS1UATEM3ng+PTT3DvN6+JN5qwp156CZqOnQUk40m74/33UbZqNSoCPulz+6LFIqVkPxCEc2+lGflmBM6dkUQ126w5sEycWAUoCoD1xXaUfLYSkaNHkDH1MWR9cwX0PXsh3WKuC2CxkCSgOOABA4ssQ8/mTbj/xz/KfMp8vB4Ai9LtihhiHi/cG9ej/LPPxMOLIEfW0mUwjhgpKWieQwdFwsuf2ZlqRmPqgYPqAlh+P4K3b6Hst6/BtX0HNJkZYpJNto+6bZ4CHrbAA4uSLMOgIYgS0Ci8izSrDaqsTKiyc6FrmyuAQ3PGcFPzlT9PNoAlzDRJfiyA//BBSbkzDhwoTEZ9776yxn2Z1hSAFTp/DuUrP4d7904EL18RtmrOSy8h4/EnqoCe6p8rBwk0TS8pFQZVms2CNLsd6Wnp8GzdDOfnKxG6dEVYPRyPHN/6Xr0Uw3WdAWk6jchlgxcvyeGCa9MmkfvWB2Dxcwl6lhTeFT8/m1oDdSgofSMhG4V3Ebp8Bd5DB0W+qsimOyNryWJkv/odeHbvFrNy15YtiNwtgmnkULR56RVF1qzV1vCREvlj7fUuLV3WgPQMuzKWGpn7iT4ST7EvvhAGpf/sWRgHD0HW44/DOnOmvFfg9Kk/PQNLEBEFbE9IVRMsRfF/bIGEkHtZ4PhxYSQHL51HgMy7S1dFeq7JawNtu3Y1Did4PynxDl+9IaEaIgHt1EHSaPVDh6P0j3+A/+hxCb6gFYCJQHh1JlIgANe2LShbuUZAuNYGsGTMuV1w7SmAY+NG+HflwzxyuLJGDxkqCZDJALDSdFpohg2FeukyWAYPhr1OCmEE3vxduP+rXyFSVg77lBSA9WXWw9q/kwKwUgBWc8dRCsBKAVjwer2w2WwwNeN0v7kDqzpzhEW3xAq3UksBWPV3ZDL7hZ/4KIGa1qTfygNQLAaHw4FQKITs7GzovuTpeX09/yj75U8OYIlpuB+R4vuSfOfdvxfeQ4egMijSDrJS6H1C4KA2gGWdv1Aezr3bt8O5cT28J06IfMQ6brwYuxJMaY6cMHE/eU/Z6gOwDMMHwdCzN9T2DMWUuolGgIXsE6b+hVhYDR+GjKXLYJo+HRqDodE49cRb10khJIA1YECdT5bxEokoRcPpM/Du3AHH2jXirUR5HPtA362LJDVaJj0mMfVkfNTLUCNTpKxM/IuY5hTzByRRykMJ4d27qLxyBcGzZ8VriwwwFoRkRqTptciYO088ieiZ5P5iq6SL8XSdnjYqpiLWBrBCYWH38HTf0KcX2v6o4RTC+rqbIBpBT9fa1QLYcQyp89rBPGwYzKPHQNWpI9KYkEUpYXk5IteuwX/2tLDUfMdOQtejG0wjRsA6YRIMo0aKVK2pxntK1p5j1Wcoff9D6Pv2RsacebAvWSIhAjzdp8zGvW6dFEfBa1fFjJrG6JbpMyRZLebzovzttwTAolyFTDn77LnibyVSsoSEcNtWlHz6CSLHjyNj5gxkf3OF+EERBKvDwHoIACuxlwZOHBeZKSVQ7AsLgYl+/eVeew7sg+PjjxApLpFrpWG1oX//OgBWuLBQMXx/+00EzpyHafBA5HzzBZgnThJmWEs9sKyzZgkoyWKcxXCF0SDgCKWa4fPnxEeHvl2a9h1knD1MSzqA5fHAX1Agxbl35y5hY5nHjBLTcYJ0NDD/Mq1JAEtM3LdIeqPvyFGoszLR5uUVyHhyuaRDUm5X1SjfKi8TEJygZ4QBGn36Qtezt5iou9evgePDjxBzuGAaPwb26TOE9art3l1ZF+PeX5wHnt274Iqb7nOu1jZxD1+5gmjxfRAg9+p0UOXmIatbV2gNBsVLKxCQdUgAo1074Dl8GOGbt4DKNOQ8+xTa/t3PEDhxAu4d21H+Gb2obsMybjRy//L70A8cJGwwrukJn015BuD89HhkjJNFBa1GkkK1HTsLS6kxMFR88yRc5ADKPvkUwUsXhBFoo6R25mwBsshMDZw80TwAKw4wCcPM5RFprIxhgu3xZ4yWphA2Z/wQQCe46Fy/Bs4NG4VB1pgHlnjpFRTAsWED/CdPSKhKY02iNapZzylDIg2mEcNlLpd//pncK67R2c88A+OYsTV8JckaK3vvbdz79Wuo9AcaBbCCx4+KlNk2bbqAwCqjAVGmEG5YLxYEZA1mPvV0lYl7lVE8++DmTfEqDOzdI6xO87gJUHfvLh6ByQCw+Eyg7tsH6rlzYO7dFxbui7UkhGQjl773nqy59mlTUwys5gzoJl7z5/Ks3po1TLJru5SEsP5BmczaLlFTl5aWyrqSkZGB1hozXzVgL8XAqja+kjmZUwyshneXZE7mlISw/n7/ykgIhQFVgcpQEOGbjI4+JLIUFlgs0G3Tp8G+cCH0felLYhFQoDaAxVhwnshH790Xj5zSd99B4Nw5ifa2jB8vYI1p+HCRZUlKWSPpgbX7pTYDS0zCLaaqZLbmPFclWFj8ji0GsCoq4C3YjVs//ol8lGXkSLT57ncfAFgEZcgGIvsqGESUKWD37oHpUzRr9+zaLSbd9FQiy8P62GRJbGORXGXaXk9/VIbCIjeksX3wymUBo2h2TiCLzCKR8PkDIu1IMyqpd5Tc0VfLNmsm9P0HIHzjhhTpzg2bYRjYH/ouXcXcuraJe8zpgJ/JkrduQdshD7l/+QNhcZFJx2K5STZEHNQI0xg8P19MdEM3b4ivD1kBllmzoBswUDxqQqdPC5gYOHMKMR9T0WywzZgGy6TJUgDR66nJz0OlyJQ8O3fAtWUzvEeOwsJ4+qnTYBo6VPpVUtjor3XgoAQQUL6ZptXBNnEislaskEKJ/Xn/l/8M59bt0OTmCMBjnTUHGjJw4gUNzY7LtmxGyUcfI3L6FLLmzBaZorZrNyUqvj4J4fwF0v9yf0nAIAOLEsI332xYQljtMEikUSUlcj/IztP37Ik0sxnRO3fFsN7x2SciCcpculTkuvp+faWAr2r0vTh+DI4N68Vcm8Chddp0ZCxQvhfvf1MphGR60Gyc90rfswes06bBPH6ijIeqvZQyxcuXUPraf4hJtGXiZFhnzoKuW7fmTMsGX5N0AMvnQ/D0Kfh274Z7+zZE7ysAVs53/gL6Hj2+tFSxKQCLJtOczwRd3TvyobKakfnkUmQ+vlQkqVWyOc6nQEA85sgcdecXKKyoJYtl7aAxuofz+vNViDndyFy6CFnPfAO6Xr0EzK4CrwgaeT1wrV4Dx/r1CBBo5Bo2ZjTy/von0Pbpi0hRkUjMvPv3IeJ2I52g88RJyB43Dtq4D5wkSFLq7XLJeHBt3iTjiqEYbZ5bjrY/+wdEbtyQtFSmCgavXpfAD7J2CZTo+vRRACx6vTEohmC70ylzofzTj8QDkesj00Nt8+Y/2CfqGyEE9rheHT0K1xfbJdiDa6W+Ty9kvbgC5rFjoW2TK/tMSwCsKm8/GpYzXbdbN2gys1Cp0dRNIQTEc+/O3/6dAMnGvr2R99OfwjB8RMPjPh4mIuu2oEppsi4Ezp6RsAnPnr2Kl9XcechYtlRJpazVhIFFD7q9+8VcnQAReGgSCglQRWZRukajrDm8X6EgEK0QMI9zPgEKavPyoOnQXuTXZHzSN8zOtWHAwBprb0sArMDhg9C0ay8sLvofMsCCvpnegwdlb+H+lPXcc3UALM4Z9gnXOwKkmuxsaHr0EPAq4nAkBcCi91Z6u1yoR46Evl17GAwGYTUmGgEukdzu24e0dFXKxP2hVvMHv5wCsOp2ZDJrXlkHUh5Y9Y7eZNa8KQDrIReMlAdW3Q5MAVgpAKul0yqZi9xXBcDiaTaT2ESacOggfMeOIXTjhnQVTdvpcUJggQUGiwIW9PUCWIx4D4flpN67twCu7dvgO3pc5IPGwYNhGTsOpjGjJUFQmAYNgFhNAVjGgf0kwYneSlVpco3d2FgFYn4v/MdPiCdQiwAsSt+Ykrh7F+783f8UoM88YqgAPPpBg8T8NhYIysN35O5tBG/eQujmTZHHsTCk9CdSUgJD757i7WIZNVrYPfTPos9OYywDFrCebVuVwvPsOUkbqwiHBMgQgCdEXxUfNHm5MA0ZDGP/fmLOraIHDs2oVSoETp4SDyzXti+Q+fhimEePVfxl4slgiW6jn5Jz40Y5BU9TpyNr6ZMC0NBzSN+7t1IUNyFxFKN2MvgK74qpO5lYgQvnEblTJFIjMS0mq6y0RO4DPXXMI4eB6XY0F9d26QoVZYPVvEgavK2xqPiLlbzxhiQhRl1O8bYy9OkLliHRkuIqwI9m2ZGSYuk/YR8MG4KcFS8JQ4ygYNlbb8J/9rz47+Q8/zyMEyYqEqaqKHk/yjduRMlHHyJ85iyyFs5HzsuvQNups4A5NVIIjx+FefhwWKfPhL5PnyoAi6wX+hWVffQRgpev1jVxj3uDVbEAWOySoeL1ChuEwDHSVQJIUqpV/vlKSQhlWhnlu/revR7MJxaE0SjcWzbh/u//U1hqhr59kLn8GSnuNUxXVKkaBbDIsqKsM3TlkoBo9NXR9eoJXdduwkyTU0B+v0BAgNrif/mlmH1bJ04WI2l9PezElqy9yQawokz0LC9H9NZNRK5dlaQ+egAZhg6TMV8b4G3ud28KwOL9JOOo9K03UP7ZaqRp1SKbtc1UAgbUZB4S3AmFxJDds3cPnKtXi5ddRSiMNj/8Hiyz58k66163Bo5PV4os2TZrOjIWPy7hBZr27au+LtelAD3mmPS2Ox8VLpf4HdUBsD78UNhTgWs3kN6juwAabR5/XDzhqq9RBLCEzcVU2oI9qAiGkfPscrT9nz9DhdMF38H9KPnjH+E/dVr60Th0CDIXL4Z56jTEeF1MUKysRHoshtCZM8JEIxDG9YfAOwNB7AsXN8zAogcUWVsXL8C5bp0we0JXrkLfr48wTm2LF4tXI6Xl/N7NBbC4dhEUC547B8fqVbJ20vONa5MqL68mgEXvvGBQvODu/v3fC4Cl79sH7f/bf4Nh5Kj6kyxjMUTJpsvfJcmwwpRVq2Q/4RrEPYNziT6J9tmzYZk2vf5USq6fHLfFxQJMkjUbLrwrACCvgVJiXdcuslZwzfOfOomo0w3z+HHQMbmXe05auvhOkdVHMDxdo5XADAaJkAFXfZ1vCYDl37tHrot7BVNO6fHIv3P/o8clDwWyX3yxDoCloG1xVqfXi3S9DmkmM2L0MCwrSwqAFbl/D6Bxe042VEaT+F8l1vtE0c/1lUAXrQHsM2akGFjNXQQbeV0KwEoBWM0dRl81plFzv3fidSkT95b2WLXXpwCsFIDVkuHzKIGa1qJSJq7vz2VTfOQSQoIz9CIqKpKTeW9+PrxHjyJ09Tq07fNgHDYUGYsWK+AVJWpkTomkqmEASx7+6NtSVAhv/m6RRfjPnkO60SCJW0zk4/tpKTMiG6seCWBTAFbG4gX/r73vjJKzvNK8lbu6qquzArJEEEgghAhCQoACoECQyGDCgMFjjw1mxvb82DPe3R/7Y3/s2XA858xZ2+MwO2bBOJCEwSAhwqIEysGAEkigbkndrQ7VlXPtee5Xb/fXFbqqWu9bUNJb5/QIT1d/9dX97nvfe5/3uc8l7w1LWM8JAELZF2tgDdLQiy9SaO++igEsBvag/fL5Z1y09f/2ORZIR4tdx2OPs3g1QCic1MYOHaLYsc9ZiBytdOlQkEEiR2srt1I2AmC6ej7rInHL4DgMNPF9UCSFNm8xRPS7jnORTU47JRs93B5nAUPn6DFyTZ9GLWvuNJgOs2cTWS0sHI/CCOwj6MMEP9hI7Y88zLpk0DMDgIGWDm7jwTjzE100/O57FNm7l4tngHy2llYGncDaQQuoeP7j2jsH+HHx/d57FNj4/yi4aWvBn0A7ChMmW9es5ol9zgsuMPyhArswCDbQz1O9+v71lxTZ/zGRw0ae6xfxCHlMX0x0d1M6ECCy2MjqbSSby8XFIgoSTNvC9D4Afcmek8waySbTxvQyMA0vnzumpRMA5uCfX6O+55+n5KHD1PHAfdT5/aeYbQD/NQNYwR3bmEXROO9KFjUXQAimM0Y//pgCmzZT8lQPtT/0wNgphPkAVgkjo9ULwDCK90wszhPswHqCALlZVyc1MEj+V1+i3p/9ggtbMNw6vv23hvYXWGEWyxgAK5shal6+klrvvZeZabzOIxEGCxAjLK4GsvmaRkT1ObkEWO33U2zvXjoNBtZwkNuF2x95hBquuKLsshzvDcoBLIii4xVPkCUSYbADLBVmQFWgRVfq3ssBWGDFZBCL/vh7Gnj5VUKbJ4AeQ3vtVsNnoBcF5smRIxTasYOBd7T2Im50PvM0eZavogx0g159hWNa6lQvNcyZzbpGzD7C84NAdjxBiS60Zu1iVm3s4BH2BZunkcHaSfCHq6/hrwItMDA1Ax9somxjI3kXXEvtq1czoGH4i5VBG4Ai0E0LYmroF19yq27b/fdR5w+e4ZgUP3iABv/4RwaWMPjD0dpGzbeuJM9Ny8jibSYCOyiVpCwml+7eQ8PvvMMTQsGohe+AseVZvLhY8sYMMIBAiLfMAlu/jv/W2ugh36oV5L3pZnJffTW3Bo+04lbYQojngj0r/OGHdPo3vyKy2bkVDlpMjosuGgWw0mmyoHX5i2Pc/nz62ecoNTRMrgun06QnnyQPWt+mTi3Q8ML1Uz0naeD552no1dd4TTHDMwdWZm1WPthpWbWSmpcsJRfYm+NJIeRaHhOHD3OLKSY/gqnZsmYNea6ZzwAzmF3Q98NgDTCovQuvYzYsPhet7f3PP8c+Bn8x9rOF/DwnDGBt3sSAJgAfQ8PMyiwwbk0PBMg5dUppACvvifM6UgBgRfftob6f/4K1HrEWkskkM6/sODQpsvdw239rK4vfYzCAtaWZNScTR44wi9K/YQO5L53D+wl01+CLKhk1qg/hVcrD4BGfLbm6zBpGpb9wPq4ZWEW3a5U1Lz7wnAOwzijjK7IBQP9KaGBhTKysl9AywPWgUSNTA0sEaLPegKz7FgFU6DDIBAzEPWJDHBgYIKfTydpjsmyTbxfZ927Wp5B9bRGgVfgLF1qZzBgNLNhe1stsF/g6azJJeqm0S0X+Eo9T/NAhZrCgFSN+9Bi3BwIAaYM49K23G5PWwIpxjGqzQA+l+5/+Aw2++EpOxP0fyXfnPaNgVK4lAAUB2jyGXn6ZoocOMvsF7Wve+dewbo/r8stZ9yU/ccy3C6FtZfNmFgf2v/4GTfred6h59Z3MNKhkUhUKJuil9P3Lv5D/3fdyANYD5FmxkuxojyvFBMPpL9o71r9FwS0fsmg2dH7AhgHjCRO4wNqA7cJ79zFIxj6OiU7fmMGn8o2XXcZaSQBWoKlibXCzrkpFLxRVfX3M4qJMmk+ms04nDfr9lOrqJhtaFN9/n7WtWh/8JmtIgRWUgYh8IMgC7hhRjtaU8PYd5Ln+OtaAQpshknCAc/yDVruhQUqe7ue/gzkgzg0ADqf5k5/+e3IvWFAIYGGSIFqLcj/cRokWytN9FPvsM4ru2UshtEB+tJ0sTgdZHDbWzEEhavU1kWv6+eS9YRF5Fi4i10UXGjpeTgezB5hhhrWGm8l7PiiUY/v3c9sNgByekAWWEsStXdD+gavZmDHomj6DXDOms4A+syZ27zaKNkzMY6bWaQbDwDJrf+RRalywsMAncRI/+PKL1Pfss5TqPkmdjz1MnU89w77MQCBaCCFg/dY6CmzZyK10YB3CfhDV5yQyY0wPAxMB7T4djz5E0/77/6Q0mxDNMsZ0xnHjSzZL8U8/oaHXXmPharAP2598glkiArTgeDg8TJE9e2j4zTe4vQpsv9bbbqO2Rx5h0E0UqGgXZhH3F35H2USKWxFb77+fHJiICdvnWmP5+YI5g2eSa6tE8Yd2WTBnoju20+Bzz5LFYuNrtGDK2azZFbl4qTcBwIIgOHRoALrxFEKwYZoL26qq/SBzfMHTYQVPfD985zOM75XEXUzuxPMJAOB9ZwMlT/UaYPeUKTxFFEAhGLDJnl5j8l8yyewkz/XXk++2W8k170oGFkPr1tHw2rXcqo0JhWg5a5h1MTPswHDFNNjE6T5+L5YQa/P5h/mAgePw9YsM/bSrrqZMwM/30v+731FqcJjvoeHCC4w2OujJ2e2U7u1h3at4dxel/MNk72jjYQe4hvfmW5hFk4Yu1a6drPuH9qtMKEKO9naeSGiffr4xOCEaoSSYbyd7WMAbNvNceSW1P/o3PPABky7HvOCH0Fwb9rPdsF+FPvqQEidPMcCOARa+O+4g93XXMYhjd7lG1lFs/75RDSy3m1rvf4C8i5cY698UV2BjDKIIbvyABv/we45/LbevJt+KlWTLTcPjVrfhYUoeOkjBt9dTYPMWvge08OGAxn3ppUXFmwAAIABJREFUbPItXUrepTeR8/wZ3NbNayb3OWB4Bd58i9ur00MDfMjAv7PaKA1weObF1HHLzeTF0BMMMRnPFyHOHgpQcP166n/+d8aU4Hlzqf2bD/PzzEbCFNyylfeu6KcHyLPgWm5NhNYVwMjh116hk//rpxwrm5bcSJ3f/R5r7OH5mF9gYA0+/395SAba1Tu/8wR1PvMjjrWwRzIYpPDmTWzj6PaPWK/PPW8e70PcQhiJsj/gHrB/cQvhzct5Em65Q5xUMkFJ7MF79tDAs7+lZFcXg3DtDz1CjYuuK7rsU6dOcb4BGydPddOUHzxDTStvI1sHchgHZfxD3KaINvxkPEbBQJDsDjtrBKOtteCFvcjpNHz4ggv4GthH4kcO09Ar+Jx3DADrDgPAgrZgPdcwKnNSkasPDg5SIpFgvVpVuXo91TCV7BnV7nHm9+P6kUiEAoEAa715MRVW0kulv6i2i8raDubF9YUGFoZEyAI9v252scTj8SwS14pOnyt0PDhWOBzmH5/Pxz3esq6PBwMjGnmfMSlM1rVx3yKhF0m9rGvjnnFtce/ivmVdH/cLAAsB2uFwsN1lOa24b3HvMgO0aruYn6lsfxGbohBxb29vlybiXs92KecvKKLTp/so8Npa1rmJffY50/1x4u5ZuIC8Ny6mhiuvMqZZ5QGCYGac+o//RIMvvcoA1uR//DGxiLvpxJjbyXBi39ND0V07KbRlM4V37ab0cIAcHW0G4+Cuu8m98DrjpNkkoJrvL9lhP4U3b2HAIgAA6wdPke/ue8j5jenF2yzyYiQL/p7uo76f/pSG397AAFbL/QCwVjAzJ3/9870D3PvkrzT8+usUQotaIMgn5DxNKhLlcfLOb0wjx5SpzEqAjgiAP0wAQyscJiTiJB7FJNqvzPojJUM4ro24imIaoEeOzcZsKyTXSJ4tFuoH6HL0GNl27aDQ+nVcbLY++DA1XjOfC3wUbRgfj0QdIFa8q4ungqEwtDcbGmQ81j0JFooBEGXQUjWAtr4o6165511hgD8zL+IWNcf55/Mzgq24kMMegKmRORCMx7r3g/l0nKemAQxDUZXsxU8vOS+5mAt0fHa673SunY/IMWWSIfzd2cm2dEydysU1WGvQwgLoN9JqaRKlRltU8L13KbBuHaVjMXJOnky2zk6yT+ogR3sHF1hgkDGLDMAWTsYBHOzaSeEdOygTDButjF1dZG32UdOypdT+6GMsgE0mUBPrJHn8OPlfeYmnAmZjCWp/7FFq/+73jJZaq9VoMYXu1/p13FbEbTRggaAIFWBlJk2p/n5Kdp3g97c//CBN/W//g3VeKtmP4JO4l+iHW7mYQ4sm2kQ7n3qKdXdYABz2QVGJdtBXXmZ9sNjnR8m7ZDG3qHmWLCN7W+uI+4EJFtm5nQb+7Tf8nLDuWx54kAEj2zgHXvBL+AueL1quoAUEtqVz2nnUfPtqarplOTnRinQGLxTmEDuP/nUfNVx6GfkwlOCGGyasTTWmKDflGLL3o2J7Rj4oabBSBigO9szGjcz6wURCBnbR1tTYQKn+IfZXrGfXzJnkuW4hM4zQOm1tbzf0Cg8dNoToMcXz86MMkEJzkNu3rFYDuHI3kHPGBdQ47wpmUkHnCi13WOdoPUa7HuIwfBVgvf8vb1Dko208kRQ+AJF5m9fDYArAbTDDmGUzZRKztKA713CFwTbkuABWHoaAALjevJnCWz9k0BY+g2tBownvSQ8MMehsP28quS+7jBoXgj12I9knTx7T3sxxCeD6oUMU3bePogc/peihI+x7AK/Qcsf+dullZJs6hb+3+ZlC5yzwzrvcHomY2owBDstXknPmxcwQwovXFkT9d+5gn4Mvu2bPopa77zV8btJkyuTA+QTAq7+8zuAcWmYxsABgITQJAbA5OjvIc9XV3IrqQAt2R6ehP9Xg4ucLZmryeBdlYhEDwMLnW60Ut1go6W2i1lmzyD15EllzLfYcG3IA9wjICqBwcJAi27dRAHviBxsZmPYtW0K+O9Ywm5VBli+/JP+f/kCBtzcYA1Vuvom8199AmVSGQu+/Q/3PvUCO86dT88oV1P7Y4+SYcT7HK7Efsi8PD9PQC89T3y9+yUB9x7e/RR0/+AeOfVy8osbYvJkCG9ZTdPcuapw7j5puvoWcs2ez/mE2FOQ4BCYw9kwA5IhDPJlSgPtgc0LHK5PhWkL8ZFJJfs7RnTtp6IXnjMmWC6+jtm8+RI2LFhWNLtCYG37lVRp+zwCwJj/9A/ICwMKBDFqfebBHzHgWsRgNDw+T3eEwRNyLAVgMMFq5zRJrieN9OETRv35Mw6+vZYZ0w2VzqOX2O8i7wmj7rOcaRmVtJ4p6v98/MnBJFoB1NufqZ7CNGvElB2AFg0EGrwDWyqp5VdZ25WqYM7GLan8Rvg4yC+KZbADLjGN81ViAJRqNMoAl8yVog0Be4bQyGVicqJgALFmLQSw2cW38bxV2MRcMMm0uACwEaABY+ZNNzuSzzDavN7uo9BcBYCERwakOpj3I2hTz/RF+rsrXZV9b2EX4XEERhalS3V008KtfUGDTFgaRwGjyLlhA3lW3MViDlq5iLxQ/vf/pJzT08loGsDp/9ENqWnMnC2Tnv6DFAwZLdOcOCr39No86B+vHPqmT2h9/nLwrbzVAKPMEoLz4glPTyJatRrL+xl+o4+nvk+/Ou417zC+08bfJJCfwuE8k/2iRS/f10OC//zuFP9xGjdfOp5b77iP38uVkK8LWw98nIWb//nvkf+klSvUPcIsWT2+zWCl1upfC+/dTCowsm50nCwIksXg81HjNNVxwMtvKkSsGisV2rl1Gx0ONFCoYJd/WTlaAI8zgGbsvIMEc7O/PAVg7Kfz2Ov4stDegHcjW4KLQe+9RcDO0YY4QJdNEaI9wgNVkZwDJiiIFYBSYCh4vWb0+LsDAxkMBYO9op+b7HmBgBCflrH8FO+FZDgxQetjPbaRgc/CURKE31dVN0cNHuOhhMWGvhwtwgGauOVcYzB4IIp88QfGjn1PiRDfr5qDdMpNI8ec0zJxJzunTyQ42SkcHF15gM8EWVl8zWXxNzDxKgfmzbx9PIcMLYI592nT2YYjjo8BinS8zyyJqCCZHMNVt335uRQLACg2iplWrqGnlKqMlMBwyADr8BIMUO3iQwTLozNinnEdtDz5AzQ88QBavMWkPfsZAAgCXndvI0TGJGubMJccMaM4YbFCsg9jhQxTZsZMZdS33rKHJ/+W/cvFabC/F1EmAgij2GVDNraPItg9p8MUXKR0IcfHe/v2nyTXnMqO1D69EglBkn/75zym8bTuz3lof/xZ5ly9ncNoCBmDuhaI9tn8v9f/sZxT5+BMWXm5atYIaZl5iaG6N8wJoCF+JfvIJRff/lZJdX5Jn0SIGht3XAlAbf4oki4KnkpTuHyQwklgbiVdEljWSwMACGwats41XzSff6tXUsGAB+8KZvr4ue2k2GKDY4SME7SAwi5iNxM87RRarndcQwFgIa4OZ5Jo/32CAGMHdOCBAm+E7b1PswEFKnu7lFucsWVjI2+p0MLDhmnslPxsAUmAOARRM9PTw2vDdvJxjN4Bj+BuAUT+ud/BTsqTSvOYpDQYeUwSZIYmptK6LL2HmpBttZ9BUM8Up9tXBIQbEQm+vp3jXcWZ5cgt0Js0+j9jo6JzMLc+NCxaRc44xjXVEeyw3EZcnHx4+SJGtWym0aQuzJXEvECBHK7p38VLyLFvGoLOIpua9NHHkMAMs/tf/TOmBQW6T8y5ebGg9MTvKWJtglEV27ODJn9CZ82GS6Dcf4kEd1uYWBmyhl4ZptP4XjT0BIK33xhuNgRHYo/bs5rZK7IPQ/gJ7mQ9Zmjyss2SwSwvzfNx3LBbjH+TpY6Yo4znD9L5msrYZ2lLwkfjhQ+T/05+YoYh17Fu5inXG3Ndcw/u2EN0PvPhH8r+6lmOt88ILqOHSObwfxg8foOjOveRdupiZQ160v0GwHgNI+k8T4dln05T2+ynw5l9o6OXXCOKC7Y//DbV953tkzTGwAAbFduKAahPFD3zKOo/eW1aQ85JLjAEXkQhFPvqIWVSZSJhZlK558ww9RKExCEYt2r4HB5kNCUYUDn4BGjJIvncP6/llIzFu0Wy59x5quGZ+0TAABtbwq6+yrhoArM6nnibvilsZwMrXtcNhc9lcXUynRD4BIDaTYntj7wl+8D7Fjxwh97ULjQOCxTeSBaCdKX/RufrYx4TCuxa5usq6sda5uoz9LgqWeCjE4BVijKw6pha1XakaRoZdVOEYuDfRLgtflElmKVfb1douygEsAClgYMl6nS1OKzvIwb44SQIbSDaAVUunlW2XWviL3hQLV7eZyVjwTAHsDPkp8MrLFPnkY2asMPhy+VxDwyOPFWW+Ok5ie/7zT2jopRyA9eMfUtPqu4rqWYniPeP3MyiECXVojbFPm8asF55MZwKv+P0FAJafIlu2jAWw7rqbQYsCAItHzw9S4uhRpvmLE1dmm2zfxoWH54brqfnuuw2x7nwAC4VTMGgw0zZsoMSxz/mUHeBV06238edlBvopuHETM0/4M1KpkZY3ADbMogCYZ80Bnlak5ebCBaPNcbIOJqvRPoZroCgFCIZpcY1LMaXQEHo3v0oCWA9+k9yYGtgKJsWn3GoGVg0AGdYuYqDKwy02/N+NbuN5Adyy2RmMwESqyI5tDPyAYYTEHK0XbCNMtBoa5El6KEjQeofiBffNP6yllTCmLfpajGJp1ixyXYKfS8gCQC+npUPJOLE/oDg9dIhBTRQC0PXBlEiry05Z/JsD2sCeQoHdOH8Bua+dT3ac3lusLHAOEIALV6eTdZoYlAOrDsynvGIRmkB4XuGNH/B3hVYZRr23f/tJ8tx0C68BFGGxTw8wQwzACrRbEl8e4/ZR2AxsDzwfFFDi2WA9hNk/N1Bs/x5yX3WVIVQ8a7bRMppj0kX37Kbgu+8wA6Np6RJq+9GPGbgplkTFdu9i1iF0c9KhMOuVpfxDzF5DWw0YDE1LllLLw48Y9sAaymZY/wsss4Ff/Ypihw4zmNf5ox9R4023kD0PKGYWwmef0cAv/5XC27bx87O1wH/dxpCFcV6CEYYhAvwc4klqufcuavvWkwZQWUabjvXl+vuZQRg/dmy0fS9jsPuiBz5hVhHAAN9tq8iHqY5zLucWnTN9fV0KTHxPikZ5LfB0Ub/fAIcjEY4hAC2YSYj2Y7ARvd6x/gIQEAMkhgYo1dPDoFQ2BCaoleytzWRvbWdGlqXJZ4C/YFEBcO7rzbGisryu8LywNhnICQRp+IvPeW02RCKUDeDZxtnkiB/QN2KRbjAM2zuK6xjmhgjgXjKDAzywAcAT4jJ8DGwWa3MTg5z4fGtLq6GZZJ5Om0pxS1/kow8pgPb2Y8co4w8yCOG6+EJj8MOiReTExEgw0jDRr8iharq3l2LQ5fo//0aRXXtYwwhAGU+xzcVlBiWg94bnAN28TIZa77+PWh/7FtnRcgvWaCBAoTf+zK1y2FvQ0uldsoS8iBs+H+8Z2A/CWzdT9ONPDBZto9uIRWCFge0lptyNnlsYBFhcH6yqVJpsIPzkvofwc7C3Gq+7njyLl/LhCJ41GM3Da1/hNlEA/u3feoIawGBDi61gfaLl+MCn3OIHEf9U72myNTVSNpVhth7FU9Tx/e+Sd8Wqkfa4xMGDNPzaWtboYr02sGXQztrbx7Gk9b77qPmRR/nQhHNSMDG7u1mLMXXqBDPxWHYAjFAwfXOHABCcZ/01AHGIQ7lJiVzoBYM0hBbsD7eSNRTi3BnMaG5JHRyk+PHjlDp1koeP+G6FwP1ycpZoUTYArLXM+jIDWGD/mT8Tn1spgMUs3M8/o9C77zHjDIc3sUMHKHG8iwHF5jV3MjvSNWfOSA40bu51hgHMHL90rj5qzHq3i/gmKp6pBrAKF51Kf+G4lk4zFqACwFJ579XW60paCHETQFxFC6FMBpaZNii7Dc9M7fsq6P1nuLeMaSGUrYElaIOy7SIWm5mZJjOIqqSZCmBP0JLRQiiTgWWmVKvQwBKJjuxnWsk64klXBw8yGIFkmyfY5RLP8fQpkMCd+kleC+GdALAKGVhiPYkJdTgRzwSCXJCBQYXiI/9V2EI4zAABNHG4hfCZp8h31z3knD6jAMDi9hy0sGzdSv7167llEQLa+BcFMwpC35rV5L3lFmY22DBa3MzSAbDn99PQ88+zwDBAjKZlN5FvFVpl5nFhDg0XAC5g5gAQYcFwtNAFQyysjc+D5hG3fuRaAsd8RwFegdkA+IV7stKc4NtbmqntkUfJd+edLKib377JffXQxUIL4e6dFFr31mgL4fz53IaH9iQUqmjxI4edrC43tyUZ4I6b21n4uiZ9lsSxL2jgD7/naYtWh40m//0PqQEAFgpgsIRQzAwO0tALL5D/zbco0d1lsPYmdTLI5UBR2NrGBRT0vridb8pUo21x8hSjVS5nBN4zWMMlROlTpyh5optSJ09ScuA0MyHAZkgN+Pl7YMIX2qWYsXf/A9wiY582lcEqYdtK4wu3hR4+QsH336Whl1/i1h5oqjA4MvcKfq5o6QILA6L8KFaYgYJ793jIOesS6li9hgXabawzxOpJXOCDuYJWWWh/uedcznpFYGiMgFzwS7RzHj7ETBfHjBnkXnQ9pfNa2kXchf+iJTG6dy/r7GCsOwAnMK3Quuq+8iryLlxI7msX8Fri+8h9BtrEBn77LLNe3FfMpfYn/5Zc115LNlN7kPDH9EA/hT/4gKL79xmFIqabxeOG/4734tYaC695tJy6pp1HTTcsZuCVxfjzQOn8S4EplO7pYaZYaPsOvneOOVmwzdI5sCNOjpkXUds991LLrbeTY9p5BUXoRPbrSv1lIteuJO4WXFcAPgCz0J4cjxlgLETlIf1gAmML9iMAoHj2AGDA4GKwycIgwUj7t5kdhc8S7FR0Kze4DK223PNigBxT4yJh8kHfNJE0mFN43Hif2002b5PRTmUGnIoZK3cQgc8DSJEKBhnoBjCNwp9Zqrl2xwL/SKUoCaH0jR9Q/2+fZdAAEzDdl17KEzUBkjguvJAHMQCwy89JxTpiYKqvl/wvvchtf6mePkojLsK/uYUw53NoX4Ngd3sbNVxyMflWQtdrOd8jrg3Rb//vnqPA2++QJZthrTcwl1yXzWGb8F56/EtmPwIwS3SdMOJwIMjsVgC8GR6akTLYUTi4wIMDs81qY/Atk5vOyL8zvfAcIc7uW72GGbHxz49S4N0NzKxygC276lZmUKG9lBm7pv0sNeTntksI/qN9EUM7WFORssyC6vy771Hj4sXcYo2/i+3YQX0/+98s/M4HFLlDCkd7GzVeu8CwC5jIYFdhr8TBBsCuYJAoEuH4hD0Wvx9vwq75+wGY73vtNRp4/Q2ikyfIlskyQ49jGtYDWml9PvIuWkjNq+/iARHM+ivyAoDlf/kVGn7/XUqd7KZJuRZCsIqLMbAg94F8EQyJYnq1nBMnEhTdtYv6fvkLBvLwrHEQhvWAwTRoiwRbGXseg3YmqRKVeR2+vsqcVHZtJ3J1FPXoltC5uuHAKv1FXB+dWPXWQqjaLiprO9gd11fdQig7voj7rgYLsCQSiawsrSQR0wWApULE3SzcVlZ4tsosEPctHAsPR7ZdVIqV46uaNbBkA1j1aheVQn/mTTEOcWQtDDmyKVbkL2i3A/OHlbtHRZrHW7YosPr++ac0tH4D2adOps4nniDfLSvKj55HMphjGjE7Rgh1531Yvr9QKETRXbspuHUzhT7YSG0PP8RjxllTKZ/pkRszHt68kYbWruUWNz7QRoFitxttH7fdxoAF61MVYWAhGQ+se4sngOHvfCtWsBYKWAxGkZ3lQgBFGZgKiWNHeZIjJr+h8Euz8HKCLCjKUSihIGFAIFexoEgXuiacYYz8H9abab79DoMdhu9WpIWQAazubnIcPEDRTZt4qhi0h9xzLzcYA7g2PhsFpGh7zYmhs6Q4it48YXScog+98QaFt28ji91KnY8/QQ0AatCyJbSnwiFu4Qxs3sxtgyhUIB4OIXtu3YOGVUeHccKO4haASe45mwd/jOwZQvwdPgGtG9gT7ZE9p1jgOXHqBGt4McDqwqj3e8i36jZmouRrpuH6IqEvNTiDhZq/gHD5RyxY7bpghjGoYNYsZpMwi2LHdhaIjn38MYMJAKCgL5XunETWiy6kyUuXUQMmeZkYBLA1xrInAAD19nFxhRYlbr00C/aDjZBMGv6Adk5MmwMwWETEnZkTH22j8O6dLJSOl63RS/bzpnCLHzSNXDMv5hbLUZ2tDAOBkb17uJ0RevnueVeSZ9lNfD8AsApeKGgHBvjembXY1cVtRIIZOG4cgMCx2832aZw9m1kpABrx3Sp5AWTt/82vKbRzB0/ME5pAvCDAxAKDZeZMal25kloWXW88dwkv1fsRWNjIYxBTq9KnQFwRP2J4Qd46LeUvI38n2Ds57Z6S5hLxJy++AJDohxZeOk3tra3kyBXkIm6UGqww7mPJtWGlczpHIq8zC5wX/D2YtGhp3L+PRdXxudCW8iy4jhwXns+AC4PwQiC9xDriGIjhDTu2c9tX4tgxnpzJoBwfLhjxED4L5qFzyhRqvOoqnkTKgxEg/A0wDazbN9+k8M6dZGtooOZVK8l7w2KywCfFM8L3A2DW38+MMWjRgS2J/x9YmqyTlUgYsZlBrNECNgn2WypFTpu1QIsJ7LSmZcvIc+MSbsnG8AVMYUSbnHvWJazVBY3CYusDNgczD0y2zMAgEQNtx3l9Q6ev9c67mDkkvkP8r/tp4LnnKH78S0qHI2wfm9vNh0Vol0Q8ARMKMYdzdaFdhfiEgwkxCKGSabK5h54KDFMvxOg3bCAbmFZpY6/mhmLs2y4Xt2JiSEnT0mUcX0sxPMFARexDDEerPwZzeG9cygcx+cNTKh64lMlQbN9e6vv1r3mfB/gOBjAY0p4rr6Km5Tfz4R+32ecYtRXlXhOMZSprGNWxEdfXIu5jH7zqmhefBiJLvYu4q8QCZAPBAgiqhYj7V22XEQBLVl8ql0PZLCOuAsBC76usl8pRqyKAigQQD0eWXUSgwGeI5FIm0wj2xcmCEHGHcJusKYQq7YL7VjlS1OwvsLeKBSdE3AFgjdGQOEOnr6Vdqip2ynwv+Lq5kJK6jtDis28fhb44RnGLlZrnzqWmiy4qy7qo9FHk+4sVzJLePkqcOsmtBGhLQ3FhjOo2WDAjr5yQMBJNaByxYCsqBWhLNXkN4W2Iqnu9nBgXtQsKlr4+1gLJxBPM/EC7CzMOzC8UTRBDR4EC1gpAmCR+Ulwc2cBQ4R4RDsi5v8zJs+e1iYjL4vuAeYX7LDaBT4zmzYZD1BSJUrq7i20ATRoWDi+jXVTqGaB1Jnr4MLNwLJYsea8Gm2uK0UoqACwUWXgGmLaYzhiMLnejoU8FdoargXV3zMwu8XliHeF/w+YFcVcIw8cTlE3EDCYbCr4o/jvKekkoGMDqyi98ERtxfbxw3ZLrCIyBWJQZCGiLYYFsiGKDLQBtIbDCIErv9xO3vKTThmi900XhdIriNht1zDifGsxFq7HZGu2TzLRIcGEtrllu0lapvRQtPNxShhbJOHwYgxWhi+Ti4p3ZK4KdI4rF3PRPMHEA+qG4JLSigQ3nbSpuF8H+ASsHovwscAz/HX+1QqsqDZAJQ1zAxMPE3fz7KRejwIg7epRb4FhnybQmsNbiZKGI1UKe86ZR83nn5YraSqNI6fdV7C8T+Kj8HENm3MXtqMy9xPWRdON7tLW1SWMzV22XnF+ipRLMJo6L7Z08lAFs4WLagALExvofk3cBDAsEGCAHyzKL+Gw+QBAgFgBZl8uYIIo2awivY8AF9h/ojZ06xRqAaPFDqxzYpfmttnwwgXbqKJhDo4AVMwxzzCtxuj0KYGHgUoSi0Qg1eb3UkHcog++O/YC/O7ShoF85OEip3h6O945vzDDutQjrETbBvbMuIYYEsGB9wADSbXbeR3EQIV6wU7K7ixlvYEJy3EEbOhh9aGXFvpnTFpSVkyaiUTpx4AD5vzhGHpuNWsC2wqTcDMD9rCH27/GSHQM5sH8DKCqhGYy4ydqGYEVHw+SeM5fBNyHAbl7SFefqAOrgh18c44EhiFNWu8No821uMQaOcHu8MXFWll2KhR/VNUwt4svZkKvLrGFU+ouRnmQZwBIMLKwtWTV1fq5eLzUM7KKythPXFwAWtJll+YzK2m4idtEAlilSq1zMqoM/vkbFm2KVybFKu0zEaau5fQ1gFbdW3QZ/JHRgq/iHKRSNkLejg5ogwFvFqet4/lNgF7SwYYw62hnicSOJFi0KxT5TAAooIrhNz2jV4CQTIuK51pYRJkCxa+SEs3FSD/Fdbj+o4PvValO0ZDLU4m4kK8AdfDcAFACbzMygKhYpAJgE2ixDQbJmiZydnTktJBNAyCCTAc6h7SW/XWW8jysLYI3zx9w+BzAGn1mERVQtIMEi02gPzLUylfzoXJGL1p5hAHzRKBf1+QVmFWYueKuSgiHHeAFzhEEsu42nmn3tkksxcCHHFhxjHKuVYskkDQeD5G5s5BYfWYdN1fpLNc+3aqCmmoufSwBWzi7ceo7Wu9wkuFLmUrKOch/GuRdiBrQOAQLhcALaViYGWJWPcczbcX0Ulygywdqv6LCZ7ZJku+S3xpkvXmAX7GEQ+k8ZLet8QGGOqbnYgRiPYQr8EmzpvC8pKydFztzd1UVDg4O8zjs7OtgOKTBWcdiMQwkcepRpS8btcWyH9hoGuKRShnacaFPN27+rytXBms3ZjNMJwR4vAqTJsksxn1Jdw6hcR/g+uL4GsMY+WZX+wmtCA1hFw3OtcnXkXRrAqnKH1AysQoOpDv74xKo2xSqeqeogp3IxawCr+IOuWwArN3pcnOp4vF6euKkMwML0K2FCoSlVDkwqwXAVgRHMAAAP/UlEQVRCSl4VM62YhtU461blOsLH4vroq4etsSk6RFIvWo6qiCnmt6JQYLvk2KkYLV6phkklH3kmAJZxfSEYU/hpEwIkzK1WZb4Aro8hEXUDYInCG+yLvNZKWWtU6ilgkbUqJrNB2xADaDSAZTzUWhSYXwsG1pjgBAbtyA5QdLWqtEtB7oX9SOLU8AkBWEZlOnG7VBH/SoVHWTkpcuaTJ0/yRECsc2gj4d/8VrmKAWzRhstIExjQxX1nwrl6GbvLsosGsCrJLEbfozL3UlnDqPQXDWCV9iGV/iJydc3Aqm4Nj7xbA1gawKrGdVQuZpXBXyT1Z8OpzteOITGOAyG+QBgSffU4MVYOYJUDrCp0dqmFd5HPVLmOigJYE2Rc5d96reyCzy3aQljh8yv2tgkBWFV8Xt0CWJW2VlZhC/FW1f6CzwFgqAGssQ9HJVAj9tKvHYBVgX+qtIvqAnPCANZZYhc8O+QRsViM2a0ArCEDMWEAqwK74C0TBrDKXF+lv6g+hFe5js6mXF1WOxhsotJfNIClAawKw+HI26qtYXQLocnCKhez6uBfr5uiKIxVaYNpAKt4CKlrBpYGsIo+1GqD/0Q2lzEMLA1gcQJYkQZWtcbOvV8DWIWG0wBWcWfSLYRnn11U5qSigK26hbDCWKYSkJBlF6wZCKrjekIjFUxRDWAVj7sq7aLSXzSAVXzRylpHpUKCbiEsbpla5OqagVXhRpX/Ns3Aqn3w1wBWZUCNzNOLs2lT1Awsw3/qGdirxaaoAayxcUYDWKUTY1XAngawzj6gRsRezcAqjC/Yk1QMFtIAlmFr2FbYV1hfJVBTr7m66kN4DWDVvobRAFbpvbQquY8qsZJa5OoawKryoYi3awBLA1jVuI7KxawZWJVtihrA0gBWuTVboIGlGViagVXCaVQCexrA0gBWuVhl/n09M9NUF5jnegthMT9SDdRoAKt8TlowzbOaBV/ivVrEvdAwquOLZmAVd0aVNS8+UUwM1yLuEwgcGsDSAFY1bqNyMWsAq3yyAOq8BrA0gFVuzWoAq3gCqIpphE/TLYTF91KVp6P4RK2BVWj3WjAkNANrrN1VF5gawNK5erl930xMUMlMq0V8ORv0amV2kaiOLxrA0gBWpfFFAG/VyAlpDSyTdVUuZn2qU9qNNYBV+yBXz61yWsS99v4iNhfdQlhYYGoAq7bAnmZgFV//9cw0wjfCnqQBLA1gVVLw6Fy9uJXq2S4awKrssFkDWPqwuVyM1AyschYa5/eagaVPdapxHw1g1R6Q0ABWZclCPTHTVK4jDWCVLhg0gKUBrEr3O9WtlWaGBAodCFLLetWiwNQAlgawKvFXWUCNAMOFiLvY71UyjfD99BTCwqdci/iiGVi1jS+agVX72k7k6loDq5KdpMh7NIClAaxqXEdl4a1bCM8+oEYzsL66TVEzsAoTQA1gaQCr0v1OA1ilLaUZWMXXkRZxV2cXrMdwOEzxeJwcDgc1NDSQ0+nUUwhL1HUqgT0NYFWWq2sGlmGnej6EV1nzagCr0mysxPs0gKUBrGpcSOVi1gBWZZtiPTGNNIClAayJxBf8DZI/aL7JeqkEJHCPWgOr+F6qNbDK5xiagWXYqJ5bK2UxjUrFu3NdAyuZTFJPTw8Fg0Hyer3U2trK/6oEavAsNAOr0CM1gFVZrq4BLA1glctfdQthOQuN83sNYJVPLgEYyCyk6nVTFGhxNcJt1bimBrAq2xQ1gKU3xXLrSou4F1pIA1jFvUalXbQGVnGb1zNQg2+kGVjF44tmYKmzC4Ck7u5uQmuZz+ejzs5Oam5u1gBWkRCjWsdXA1iV5eoawNK5eiW5um4hLGelEr/XAJYGsKpxHc3AKm6tWtpFA1h6Uyy3ZjWApQGscj4ifq8BrK8G2NMaWOVzr3pipmkGVul1JAPY0wBWpRG9kMko+xBeA1gawKrcG3UL4Xi20gysajwp770awCqfRMkO/vjEeqQl475rCdTIPL0Qp8ZngzCkBrA0gFUu5GsASwNY5XxEA1jjW0g1sKcBrPK5lwawRm10rrcQagCr0oiuAaxygEE9dpGoBsi1iHvtyQmiptYMrMpj25h3agCrfBKlAaxRG2kAq/ZBrp4FELUGVu39RWyKWsR9rO1VAhL4JK2BVXwv1RpY5XOMegJqxGGQnkJYGF9kMI1KpfIawNIthJWWebqFsLSl6rWG0QBW8WeqWqZApb9oAKvSiFbifRrAKp9cagBLA1jllpnKIKcBrOLWr2e7qPQXDWAV9xcNYNXeLqqTS3yjaDRKfr+f3G43a+PI0qtU6S9aA6t0MVKvzDTVBaYGsBJ04sSJEQ2sjo4OrYE1Tl2nUtxetxBWlpPK7CJRHV80A+urO2zWDKxyFXaJ32NRhEIh/oEgosfjmeCVCv8sP8ghsbRYLFKur3Ixqz69gAHMLYSwu6xAV892UQlIiFNjFS2Eqv1FpV1U+gtsbt4UEVuampqkxYB6tkstACxsioi5mNaEseMyXqoBCWEX3CsODvAj66XSX3CPKhlYKu2iGqhRycCCP8ZisboEsFTaRWXuJfbSWjCwZB8eqrSL6r20lgDW1zFXx7MbHh5mwLqhoYFrFZfLpUXci2yQtcxJxRqVVdvpXL30QZNKhme9Aliq426tcnWsI+Tq9YAFiEPyalpxLfF4PCtT/0YUmGYAq7GxUVa9wBsLFgVeCG6yN0UYT7xk2gX3jGuLe8d9yzrVFfeLkcCDg4NcWALAklWo4b7r1S4q/UUUmGYAy+l0KvF12f5ifqay15FIdFSsIxFfIpEIj75Gwomx17ISnXq2i9nXZfuLucAUAJasTVG1v6i0i0p/EfElEAhwgdXW1sbFlaxXvdpFtb/AvmYACwC5rL1apb+ototKfxHxBS3K+B7wdZkAuTn3kpnXiftWldep9Bexl2IfDYfDnDOea7k6nhvyZvg21jj2NPyrOlfHYTPyRp2rj+5mtcjVUR/B9mDaycrVVdd2Ku2ies8Qch+IMcjTka/rXN0QoFe1Z5hzdex1LS0t0gAs1f5SrV0ssVgsKys5E6FIoK7YFJH8ydwURbAwA1iyEnpcW/yIol7WtUUxYnZaWQvZDGCh7QGbMNoeZAFYZrvgs2RdV9x3frIg0y4q/UU8U5zgxeNxTrplbYqq/UWlXVT7C66Pgh4gOWKLzE2xlnaRCb6r9hexKSIBxH3LZHjm+0s92aUWewaSPwAqSERkAliq466qvVS1vwgAC8AhWBlIvGXlSCr9RbVdVPqLiC8o6vE5MhmeqmOj2S6y80aV/iIALOyjOBBCzoiWWVmverGLsLGoKfAMVfs6QDMBYKnK1WX7oup1pDL3EveO+ggAls7VjVVeq1xdHDbXa65eTzXvuZSrW6LRqDIAC5sikj/ZAJYAgRCgZYMd4tpwAllJqxnYMwNYshKFfAALpzoADmUtOvMGX292KZacyLS7aPHBpoikWyaApfLeVV5bJAvCzirWkUoAS1V8qYVdVN47TkeQdCPmygSw6tkuqmOjaPFRAWCpjAG1sIuq+ILr4kACABYAQxUAlqp7N9tdRdxVGV/g6wDI8RkAa2UxsMyFmur8pR5zUhw0I1dHzigTwKrn+KJyHcEHAWABTNG5+mg2rtJfRI6Bw2bVuXo9xV3V+7T5sBngFbAAWTV7LfylFvu07D3DfBgEXwRALqtb4uuWq48wsGQ5lflUBxsjjCcTwMo/1ZH58M0nACLRkWWXfKRbxemIONWBs8psIaxnu6j0F/OpDgqe9vZ2aQCWan9RaReV/iLiCwAsnOogtshuIcwHsWXGAHMrrkqmkYr4AgALLT64b9m05Hq1i3kdyd4zRHwBkAIACwC5KgaW2Edl+bpKu9QiviCeo9gBA0t2C+HZEl9k5l7mU2P4jooWQnMxIsvPxRrNB/ZkXV+1r8PWyNN1rj4WSFG5H+GTAKIIAEs2A0vVvddzTirWKQ7gYHudqxv+rjq+4PoAx8HyBIAlk4FVzzWMSnaq2EvPhVzdkkgk6k4DSwRoFFKyWEYiwAnHQgIiUysBC9kslqdCowYAFpwWLCCZAJbQYcB3kG0X2N0sPCvbLmJqiiguZfqLeVNEwSOzr77WdpEJpuT7usx1JDZdbIoo7AFeyQSw8v2lnuxinhAkex2JTdEs4i7rVEe1v5ifqWwBZ8RGXF/EF5n+Yj41BmCLpFsmgFWvdlHtL7C7Sg0sVf6i2i4q/cUcX/DfsgEsc+4lez9SmWOY44uK3As+o1IDS2WuLtaRbLvUIlcXA5fqKVdXbReV60jspSo0sGqdq8usYVTXdgLAQq6OgyCZAJbO1UdB9/z/gm3EFELZh8212ksrydUZwEIhIuvESBSY2BRrMYVQ9mJWNZFBBH8EDLHhyqaamqcQwmll2UYkUQLAku0vKicy4HmaCwZZRbcIGKKtSgBYMgvMWtpFZlIPP1E5Dcu8KdbTFELVdlHpLyJJA0CO+CVTo6ZWdsF3ECK9pbf+6n6D2Ai7mwFymXupaFEWIu5gBMl6mWOj7OmMKu2i2l9gX9gbDAm0VIEhIWuvVm0XM4gte59W6S9mAAvPV6ZGTX7uVU92UZ17iRZlIeKucmK4rHxUgBEycnURS2AHcSCO+G1eR5UUUtXG5HrM1VXXMLWILyomhovcSFVtp7KGUR1f4DOILULEXfZhs7m2q6capha5ugCwZE4hVJ17VWsXDWCZdh6Vi1l18MfXqMdNsZ6Dv0i6z4ZNsZ6CvwawiqfL1Qb/apNuXF8DWGOtphKQyGdgoajXAJbR9qASINcAVvHIUIsCE0m3BrBG7a8yJxXxxczAOtcALNFCidwZelSIr/hXA1iFMUB1DVOL+HI25OoyD+FVxxcNYH11uboGsKqtcHLvF7RkzcAaNaDq4K8BrPJJtxiTPEG3LvpnmoFVPNFRWWBqAOur2xQ1gKUBrErip0pgTwNYxZ9APTONNAOr+DNVXWCe6wwsyG709vaOyBGgcwGtThrA0gBWJfuceI/Kw0PNwKqstqunQ3iV/iJIIRrAqmYFm96rAazaB38NYFUW5GSeXoik+2w41amn4K8BLA1gVbM1iWQBf6NbCEctp/LEWwNYpQEJVS2nGsA6+4A9DWCpBfbAvOru7ubpumgV7uzsZP1YDWDVvoZRuR+dTbm6zBpGdXzRDKyvLlfXAFY1VYIGsMa1lmZglTaPSjRa5enF2bQpagDL8M98f6knu6hcR+JURzOwxsYxlUANPklrYBUvpFQyPPGJWgOr0O61KDB1C2FhfJGh9VQq+zrXGVgawKq8yFNdw9QivpwNh80awNK5erlVi/xIA1jlrFTi95qBVfvTC3yi1sAaP+nWLYTF2Rdm8dIJLvkxf6a6xUczsL66Ux0NYGkAq5IYoRLYUx1fNIBV/AnXosDUAJYGsCqNLzKAPQ1gVWJt4z0awCptK5WHhyoP4TUDq/gzVZ1jqPQXcdh8LgBY/x/tuJMd8h325wAAAABJRU5ErkJggg==;sketch=1;curveFitting=1;jiggle=2;" parent="WIyWlLk6GJQsqaUBKTNV-1" vertex="1">
          <mxGeometry x="670" y="57.71" width="510.16" height="52.29" as="geometry" />
        </mxCell>
        <mxCell id="GbRqIvFZk893x_S-Il0t-55" style="edgeStyle=orthogonalEdgeStyle;rounded=0;orthogonalLoop=1;jettySize=auto;html=1;sketch=1;curveFitting=1;jiggle=2;" parent="WIyWlLk6GJQsqaUBKTNV-1" source="GbRqIvFZk893x_S-Il0t-38" target="GbRqIvFZk893x_S-Il0t-47" edge="1">
          <mxGeometry relative="1" as="geometry" />
        </mxCell>
        <mxCell id="GbRqIvFZk893x_S-Il0t-38" value="回放代码路径" style="rounded=1;whiteSpace=wrap;html=1;fontSize=12;glass=0;strokeWidth=1;shadow=0;sketch=1;curveFitting=1;jiggle=2;" parent="WIyWlLk6GJQsqaUBKTNV-1" vertex="1">
          <mxGeometry x="719.69" y="700" width="120" height="40" as="geometry" />
        </mxCell>
        <mxCell id="GbRqIvFZk893x_S-Il0t-44" value="" style="edgeStyle=orthogonalEdgeStyle;rounded=0;orthogonalLoop=1;jettySize=auto;html=1;entryX=0.5;entryY=0;entryDx=0;entryDy=0;sketch=1;curveFitting=1;jiggle=2;" parent="WIyWlLk6GJQsqaUBKTNV-1" source="GbRqIvFZk893x_S-Il0t-47" target="GbRqIvFZk893x_S-Il0t-49" edge="1">
          <mxGeometry relative="1" as="geometry">
            <mxPoint x="812.69" y="936.29" as="targetPoint" />
          </mxGeometry>
        </mxCell>
        <mxCell id="GbRqIvFZk893x_S-Il0t-45" value="yes" style="edgeLabel;html=1;align=center;verticalAlign=middle;resizable=0;points=[];sketch=1;curveFitting=1;jiggle=2;" parent="GbRqIvFZk893x_S-Il0t-44" vertex="1" connectable="0">
          <mxGeometry x="-0.0889" relative="1" as="geometry">
            <mxPoint as="offset" />
          </mxGeometry>
        </mxCell>
        <mxCell id="GbRqIvFZk893x_S-Il0t-46" style="edgeStyle=orthogonalEdgeStyle;rounded=0;orthogonalLoop=1;jettySize=auto;html=1;exitX=1;exitY=0.5;exitDx=0;exitDy=0;entryX=1;entryY=0.5;entryDx=0;entryDy=0;sketch=1;curveFitting=1;jiggle=2;" parent="WIyWlLk6GJQsqaUBKTNV-1" source="GbRqIvFZk893x_S-Il0t-47" target="GbRqIvFZk893x_S-Il0t-51" edge="1">
          <mxGeometry relative="1" as="geometry" />
        </mxCell>
        <mxCell id="GbRqIvFZk893x_S-Il0t-47" value="判断是否有相同路径" style="rhombus;whiteSpace=wrap;html=1;shadow=0;fontFamily=Helvetica;fontSize=12;align=center;strokeWidth=1;spacing=6;spacingTop=-4;sketch=1;curveFitting=1;jiggle=2;" parent="WIyWlLk6GJQsqaUBKTNV-1" vertex="1">
          <mxGeometry x="676.25" y="780" width="207.5" height="87.71" as="geometry" />
        </mxCell>
        <mxCell id="GbRqIvFZk893x_S-Il0t-48" value="" style="edgeStyle=orthogonalEdgeStyle;rounded=0;orthogonalLoop=1;jettySize=auto;html=1;sketch=1;curveFitting=1;jiggle=2;" parent="WIyWlLk6GJQsqaUBKTNV-1" source="GbRqIvFZk893x_S-Il0t-49" target="GbRqIvFZk893x_S-Il0t-51" edge="1">
          <mxGeometry relative="1" as="geometry" />
        </mxCell>
        <mxCell id="GbRqIvFZk893x_S-Il0t-49" value="清除同路径原本绑定的case" style="rounded=1;whiteSpace=wrap;html=1;fontSize=12;glass=0;strokeWidth=1;shadow=0;sketch=1;curveFitting=1;jiggle=2;" parent="WIyWlLk6GJQsqaUBKTNV-1" vertex="1">
          <mxGeometry x="703.12" y="904.5799999999999" width="154.38" height="40" as="geometry" />
        </mxCell>
        <mxCell id="GbRqIvFZk893x_S-Il0t-50" value="" style="edgeStyle=orthogonalEdgeStyle;rounded=0;orthogonalLoop=1;jettySize=auto;html=1;sketch=1;curveFitting=1;jiggle=2;" parent="WIyWlLk6GJQsqaUBKTNV-1" source="GbRqIvFZk893x_S-Il0t-51" target="GbRqIvFZk893x_S-Il0t-53" edge="1">
          <mxGeometry relative="1" as="geometry" />
        </mxCell>
        <mxCell id="GbRqIvFZk893x_S-Il0t-51" value="将路径绑定到新case" style="rounded=1;whiteSpace=wrap;html=1;fontSize=12;glass=0;strokeWidth=1;shadow=0;sketch=1;curveFitting=1;jiggle=2;" parent="WIyWlLk6GJQsqaUBKTNV-1" vertex="1">
          <mxGeometry x="703.1200000000001" y="970" width="153.76" height="40" as="geometry" />
        </mxCell>
        <mxCell id="GbRqIvFZk893x_S-Il0t-52" value="回 放 代 码 路 径&#xa;⽼ c a s e 回 放 是 不 是&#xa;新 场 景 / 错 误 场 景&#xa;y e s&#xa;未 有 逻 辑 变 动 的 池 ⼦ ⾥&#xa;判 断 是 否 有 相 同 路 径&#xa;清 除 同 路 径 原 本 绑 定 的&#xa;c a s e&#xa;将 路 径 绑 定 到 新 c a s e&#xa;将 本 c a s e 所 有 m o c k e r 从&#xa;R o l l i n g 移 动 到 A P&#xa;⽼ c a s e 新 场 景 ： 路 径 采 集 有 变 动 ， 即 每 次 回 放 的 c o v e r a g e s c e n e k e y 不 ⼀ 致&#xa;未 有 逻 辑 变 动 的 池 ⼦ ： c a s e ⽆ 过 期 时 间&#xa;更 新 新 场 景 ，&#xa;更 新 过 期 时 间" style="text;whiteSpace=wrap;sketch=1;curveFitting=1;jiggle=2;" parent="WIyWlLk6GJQsqaUBKTNV-1" vertex="1">
          <mxGeometry x="540" y="1922.29" width="1030" height="470" as="geometry" />
        </mxCell>
        <mxCell id="GbRqIvFZk893x_S-Il0t-53" value="将本case所有mocker从Rolling移到AP" style="rounded=1;whiteSpace=wrap;html=1;fontSize=12;glass=0;strokeWidth=1;shadow=0;sketch=1;curveFitting=1;jiggle=2;" parent="WIyWlLk6GJQsqaUBKTNV-1" vertex="1">
          <mxGeometry x="660.31" y="1034.58" width="240" height="50" as="geometry" />
        </mxCell>
        <mxCell id="GbRqIvFZk893x_S-Il0t-58" value="" style="edgeStyle=orthogonalEdgeStyle;rounded=0;orthogonalLoop=1;jettySize=auto;html=1;entryX=0.5;entryY=0;entryDx=0;entryDy=0;sketch=1;curveFitting=1;jiggle=2;" parent="WIyWlLk6GJQsqaUBKTNV-1" source="GbRqIvFZk893x_S-Il0t-61" target="GbRqIvFZk893x_S-Il0t-63" edge="1">
          <mxGeometry relative="1" as="geometry">
            <mxPoint x="1482.6899999999998" y="904.5799999999999" as="targetPoint" />
          </mxGeometry>
        </mxCell>
        <mxCell id="GbRqIvFZk893x_S-Il0t-59" value="yes" style="edgeLabel;html=1;align=center;verticalAlign=middle;resizable=0;points=[];sketch=1;curveFitting=1;jiggle=2;" parent="GbRqIvFZk893x_S-Il0t-58" vertex="1" connectable="0">
          <mxGeometry x="-0.0889" relative="1" as="geometry">
            <mxPoint as="offset" />
          </mxGeometry>
        </mxCell>
        <mxCell id="GbRqIvFZk893x_S-Il0t-60" style="edgeStyle=orthogonalEdgeStyle;rounded=0;orthogonalLoop=1;jettySize=auto;html=1;exitX=1;exitY=0.5;exitDx=0;exitDy=0;entryX=1;entryY=0.5;entryDx=0;entryDy=0;sketch=1;curveFitting=1;jiggle=2;" parent="WIyWlLk6GJQsqaUBKTNV-1" source="GbRqIvFZk893x_S-Il0t-61" target="GbRqIvFZk893x_S-Il0t-65" edge="1">
          <mxGeometry relative="1" as="geometry" />
        </mxCell>
        <mxCell id="GbRqIvFZk893x_S-Il0t-61" value="判断是否有相同路径" style="rhombus;whiteSpace=wrap;html=1;shadow=0;fontFamily=Helvetica;fontSize=12;align=center;strokeWidth=1;spacing=6;spacingTop=-4;sketch=1;curveFitting=1;jiggle=2;" parent="WIyWlLk6GJQsqaUBKTNV-1" vertex="1">
          <mxGeometry x="1345.9399999999998" y="769.9999999999999" width="207.5" height="87.71" as="geometry" />
        </mxCell>
        <mxCell id="GbRqIvFZk893x_S-Il0t-62" value="" style="edgeStyle=orthogonalEdgeStyle;rounded=0;orthogonalLoop=1;jettySize=auto;html=1;sketch=1;curveFitting=1;jiggle=2;" parent="WIyWlLk6GJQsqaUBKTNV-1" source="GbRqIvFZk893x_S-Il0t-63" target="GbRqIvFZk893x_S-Il0t-65" edge="1">
          <mxGeometry relative="1" as="geometry" />
        </mxCell>
        <mxCell id="GbRqIvFZk893x_S-Il0t-63" value="清除同路径原本绑定的case" style="rounded=1;whiteSpace=wrap;html=1;fontSize=12;glass=0;strokeWidth=1;shadow=0;sketch=1;curveFitting=1;jiggle=2;" parent="WIyWlLk6GJQsqaUBKTNV-1" vertex="1">
          <mxGeometry x="1372.4999999999998" y="904.5799999999999" width="154.38" height="40" as="geometry" />
        </mxCell>
        <mxCell id="GbRqIvFZk893x_S-Il0t-64" value="" style="edgeStyle=orthogonalEdgeStyle;rounded=0;orthogonalLoop=1;jettySize=auto;html=1;sketch=1;curveFitting=1;jiggle=2;" parent="WIyWlLk6GJQsqaUBKTNV-1" source="GbRqIvFZk893x_S-Il0t-65" target="GbRqIvFZk893x_S-Il0t-66" edge="1">
          <mxGeometry relative="1" as="geometry" />
        </mxCell>
        <mxCell id="GbRqIvFZk893x_S-Il0t-65" value="将路径绑定到新case" style="rounded=1;whiteSpace=wrap;html=1;fontSize=12;glass=0;strokeWidth=1;shadow=0;sketch=1;curveFitting=1;jiggle=2;" parent="WIyWlLk6GJQsqaUBKTNV-1" vertex="1">
          <mxGeometry x="1373.1200000000001" y="969.9999999999999" width="153.76" height="40" as="geometry" />
        </mxCell>
        <mxCell id="GbRqIvFZk893x_S-Il0t-66" value="将本case所有mocker从Rolling移到AP" style="rounded=1;whiteSpace=wrap;html=1;fontSize=12;glass=0;strokeWidth=1;shadow=0;sketch=1;curveFitting=1;jiggle=2;" parent="WIyWlLk6GJQsqaUBKTNV-1" vertex="1">
          <mxGeometry x="1329.9999999999998" y="1034.58" width="240" height="50" as="geometry" />
        </mxCell>
        <mxCell id="GbRqIvFZk893x_S-Il0t-67" value="&lt;b&gt;AS IS&lt;/b&gt;" style="rounded=1;whiteSpace=wrap;html=1;fillColor=#fff2cc;strokeColor=#d6b656;sketch=1;curveFitting=1;jiggle=2;" parent="WIyWlLk6GJQsqaUBKTNV-1" vertex="1">
          <mxGeometry x="719.69" y="584" width="120" height="60" as="geometry" />
        </mxCell>
        <mxCell id="GbRqIvFZk893x_S-Il0t-68" value="&lt;b&gt;TO BE&lt;/b&gt;" style="rounded=1;whiteSpace=wrap;html=1;fillColor=#fff2cc;strokeColor=#d6b656;sketch=1;curveFitting=1;jiggle=2;" parent="WIyWlLk6GJQsqaUBKTNV-1" vertex="1">
          <mxGeometry x="1380" y="320" width="120" height="60" as="geometry" />
        </mxCell>
        <mxCell id="GbRqIvFZk893x_S-Il0t-69" value="&lt;b&gt;&lt;font style=&quot;font-size: 14px;&quot;&gt;动态类变更&lt;/font&gt;&lt;/b&gt;" style="rounded=1;whiteSpace=wrap;html=1;fillColor=#f8cecc;strokeColor=#b85450;fontColor=#fc0303;sketch=1;curveFitting=1;jiggle=2;" parent="WIyWlLk6GJQsqaUBKTNV-1" vertex="1">
          <mxGeometry x="980" y="600" width="120" height="112.29" as="geometry" />
        </mxCell>
        <mxCell id="GbRqIvFZk893x_S-Il0t-74" style="edgeStyle=orthogonalEdgeStyle;rounded=0;orthogonalLoop=1;jettySize=auto;html=1;exitX=0;exitY=0.5;exitDx=0;exitDy=0;strokeColor=#fc0303;sketch=1;curveFitting=1;jiggle=2;entryX=-0.01;entryY=0.348;entryDx=0;entryDy=0;entryPerimeter=0;" parent="WIyWlLk6GJQsqaUBKTNV-1" source="GbRqIvFZk893x_S-Il0t-72" target="GbRqIvFZk893x_S-Il0t-78" edge="1">
          <mxGeometry relative="1" as="geometry">
            <mxPoint x="1160" y="1020" as="targetPoint" />
            <mxPoint x="1302.1099999999997" y="624.06" as="sourcePoint" />
            <Array as="points">
              <mxPoint x="1330" y="678" />
              <mxPoint x="1170" y="678" />
              <mxPoint x="1170" y="1265" />
            </Array>
          </mxGeometry>
        </mxCell>
        <mxCell id="GbRqIvFZk893x_S-Il0t-75" value="&lt;span style=&quot;color: rgb(251, 4, 4);&quot;&gt;&lt;b&gt;update 状态【&lt;font style=&quot;font-size: 12px;&quot;&gt;变更&lt;/font&gt;】&lt;/b&gt;&lt;/span&gt;" style="edgeLabel;html=1;align=center;verticalAlign=middle;resizable=0;points=[];sketch=1;curveFitting=1;jiggle=2;" parent="GbRqIvFZk893x_S-Il0t-74" vertex="1" connectable="0">
          <mxGeometry x="0.0555" y="1" relative="1" as="geometry">
            <mxPoint as="offset" />
          </mxGeometry>
        </mxCell>
        <mxCell id="GbRqIvFZk893x_S-Il0t-86" value="" style="edgeStyle=orthogonalEdgeStyle;rounded=0;orthogonalLoop=1;jettySize=auto;html=1;sketch=1;curveFitting=1;jiggle=2;" parent="WIyWlLk6GJQsqaUBKTNV-1" source="GbRqIvFZk893x_S-Il0t-72" target="GbRqIvFZk893x_S-Il0t-61" edge="1">
          <mxGeometry relative="1" as="geometry" />
        </mxCell>
        <mxCell id="GbRqIvFZk893x_S-Il0t-87" value="no" style="edgeLabel;html=1;align=center;verticalAlign=middle;resizable=0;points=[];sketch=1;curveFitting=1;jiggle=2;" parent="GbRqIvFZk893x_S-Il0t-86" vertex="1" connectable="0">
          <mxGeometry x="-0.156" y="1" relative="1" as="geometry">
            <mxPoint as="offset" />
          </mxGeometry>
        </mxCell>
        <mxCell id="GbRqIvFZk893x_S-Il0t-72" value="&lt;font style=&quot;font-size: 14px;&quot; color=&quot;#e01010&quot;&gt;&lt;b&gt;当是AP数据，&lt;br&gt;且发生业务逻辑变更&lt;/b&gt;&lt;/font&gt;" style="rhombus;whiteSpace=wrap;html=1;shadow=0;fontFamily=Helvetica;fontSize=12;align=center;strokeWidth=1;spacing=6;spacingTop=-4;fillColor=#f8cecc;strokeColor=#b85450;sketch=1;curveFitting=1;jiggle=2;" parent="WIyWlLk6GJQsqaUBKTNV-1" vertex="1">
          <mxGeometry x="1337.11" y="630" width="225.16" height="95" as="geometry" />
        </mxCell>
        <mxCell id="GbRqIvFZk893x_S-Il0t-107" value="" style="edgeStyle=orthogonalEdgeStyle;rounded=0;sketch=1;hachureGap=4;jiggle=2;curveFitting=1;orthogonalLoop=1;jettySize=auto;html=1;fontFamily=Architects Daughter;fontSource=https%3A%2F%2Ffonts.googleapis.com%2Fcss%3Ffamily%3DArchitects%2BDaughter;" parent="WIyWlLk6GJQsqaUBKTNV-1" source="GbRqIvFZk893x_S-Il0t-78" target="GbRqIvFZk893x_S-Il0t-105" edge="1">
          <mxGeometry relative="1" as="geometry" />
        </mxCell>
        <mxCell id="GbRqIvFZk893x_S-Il0t-78" value="&lt;b&gt;更新AP表case，打上状态标识&lt;/b&gt;" style="rounded=1;whiteSpace=wrap;html=1;fillColor=#f8cecc;strokeColor=#b85450;fontColor=#f60404;sketch=1;curveFitting=1;jiggle=2;" parent="WIyWlLk6GJQsqaUBKTNV-1" vertex="1">
          <mxGeometry x="1330" y="1169" width="260" height="72.29" as="geometry" />
        </mxCell>
        <mxCell id="GbRqIvFZk893x_S-Il0t-79" value="&lt;b&gt;yes&lt;/b&gt;" style="text;html=1;align=center;verticalAlign=middle;resizable=0;points=[];autosize=1;strokeColor=none;fillColor=none;fontColor=#ff0000;sketch=1;curveFitting=1;jiggle=2;" parent="WIyWlLk6GJQsqaUBKTNV-1" vertex="1">
          <mxGeometry x="1260" y="657.7099999999999" width="40" height="30" as="geometry" />
        </mxCell>
        <mxCell id="GbRqIvFZk893x_S-Il0t-80" value="&lt;font style=&quot;font-size: 16px;&quot;&gt;&lt;font style=&quot;font-size: 16px;&quot;&gt;&lt;b style=&quot;&quot;&gt;1. 回放路径表&lt;/b&gt;：&lt;i style=&quot;&quot;&gt;ReplayScenePool=pool&lt;/i&gt;，含有caseId、路径code&lt;br&gt;&lt;br&gt;&lt;b style=&quot;&quot;&gt;2. 全量回放case表&lt;/b&gt;：AP&lt;br&gt;&lt;br&gt;3. 在AP里新增状态字段，&lt;/font&gt;&lt;span style=&quot;background-color: initial;&quot;&gt;status:【&lt;b&gt;正常、失效、变更&lt;/b&gt;&lt;/span&gt;&lt;span style=&quot;background-color: initial;&quot;&gt;】&lt;/span&gt;&lt;/font&gt;" style="rounded=1;whiteSpace=wrap;html=1;fillColor=#fff2cc;strokeColor=#d6b656;sketch=1;curveFitting=1;jiggle=2;align=left;" parent="WIyWlLk6GJQsqaUBKTNV-1" vertex="1">
          <mxGeometry x="1654" y="410" width="410" height="115" as="geometry" />
        </mxCell>
        <mxCell id="GbRqIvFZk893x_S-Il0t-82" style="edgeStyle=orthogonalEdgeStyle;rounded=0;orthogonalLoop=1;jettySize=auto;html=1;entryX=0.5;entryY=0;entryDx=0;entryDy=0;sketch=1;curveFitting=1;jiggle=2;" parent="WIyWlLk6GJQsqaUBKTNV-1" source="GbRqIvFZk893x_S-Il0t-81" target="GbRqIvFZk893x_S-Il0t-72" edge="1">
          <mxGeometry relative="1" as="geometry">
            <mxPoint x="1449.6899999999996" y="564.0000000000002" as="targetPoint" />
          </mxGeometry>
        </mxCell>
        <mxCell id="GbRqIvFZk893x_S-Il0t-81" value="&lt;b style=&quot;&quot;&gt;拉取回放case时，&lt;br&gt;过滤状态为【无效】的case&lt;/b&gt;" style="rounded=1;whiteSpace=wrap;html=1;fillColor=#f8cecc;strokeColor=#b85450;fontColor=#f60404;sketch=1;curveFitting=1;jiggle=2;" parent="WIyWlLk6GJQsqaUBKTNV-1" vertex="1">
          <mxGeometry x="1358.13" y="530" width="183.75" height="60" as="geometry" />
        </mxCell>
        <mxCell id="GbRqIvFZk893x_S-Il0t-83" value="&lt;b&gt;&lt;font style=&quot;font-size: 12px;&quot;&gt;后续：页面呈现状态字段给用户？&lt;/font&gt;&lt;/b&gt;" style="rounded=1;whiteSpace=wrap;html=1;fillColor=#f8cecc;strokeColor=#b85450;fontColor=#fc0303;sketch=1;curveFitting=1;jiggle=2;" parent="WIyWlLk6GJQsqaUBKTNV-1" vertex="1">
          <mxGeometry x="1700" y="1179.65" width="490" height="51" as="geometry" />
        </mxCell>
        <mxCell id="GbRqIvFZk893x_S-Il0t-94" style="edgeStyle=orthogonalEdgeStyle;rounded=0;orthogonalLoop=1;jettySize=auto;html=1;strokeColor=#fc0303;entryX=0;entryY=0.75;entryDx=0;entryDy=0;exitX=0.5;exitY=1;exitDx=0;exitDy=0;sketch=1;curveFitting=1;jiggle=2;" parent="WIyWlLk6GJQsqaUBKTNV-1" source="GbRqIvFZk893x_S-Il0t-69" target="GbRqIvFZk893x_S-Il0t-78" edge="1">
          <mxGeometry relative="1" as="geometry">
            <mxPoint x="1281.8400000000001" y="1288.855" as="targetPoint" />
            <mxPoint x="1039.96" y="724.9999999999998" as="sourcePoint" />
            <Array as="points">
              <mxPoint x="1040" y="1230" />
              <mxPoint x="1330" y="1230" />
            </Array>
          </mxGeometry>
        </mxCell>
        <mxCell id="GbRqIvFZk893x_S-Il0t-95" value="&lt;span style=&quot;color: rgb(251, 4, 4);&quot;&gt;&lt;b&gt;update 状态【&lt;span style=&quot;font-size: 12px;&quot;&gt;无效&lt;/span&gt;】&lt;/b&gt;&lt;/span&gt;" style="edgeLabel;html=1;align=center;verticalAlign=middle;resizable=0;points=[];sketch=1;curveFitting=1;jiggle=2;" parent="GbRqIvFZk893x_S-Il0t-94" vertex="1" connectable="0">
          <mxGeometry x="0.0555" y="1" relative="1" as="geometry">
            <mxPoint as="offset" />
          </mxGeometry>
        </mxCell>
        <mxCell id="GbRqIvFZk893x_S-Il0t-96" value="&lt;font style=&quot;font-size: 15px;&quot;&gt;&lt;b&gt;业务逻辑变更判断：&lt;br&gt;&lt;/b&gt;同个case，和上一次回放的路径code不一样&lt;/font&gt;" style="rounded=1;whiteSpace=wrap;html=1;fillColor=#fff2cc;strokeColor=#d6b656;sketch=1;curveFitting=1;jiggle=2;align=left;" parent="WIyWlLk6GJQsqaUBKTNV-1" vertex="1">
          <mxGeometry x="1654" y="642.2900000000001" width="310" height="70" as="geometry" />
        </mxCell>
        <mxCell id="GbRqIvFZk893x_S-Il0t-97" value="&lt;span style=&quot;font-size: 14px;&quot;&gt;&lt;b&gt;相同路径判断：&lt;br&gt;&lt;/b&gt;路径code一样，但是caseId不一样&lt;/span&gt;" style="rounded=1;whiteSpace=wrap;html=1;fillColor=#fff2cc;strokeColor=#d6b656;sketch=1;curveFitting=1;jiggle=2;align=left;" parent="WIyWlLk6GJQsqaUBKTNV-1" vertex="1">
          <mxGeometry x="1654" y="780" width="310" height="70" as="geometry" />
        </mxCell>
        <mxCell id="GbRqIvFZk893x_S-Il0t-101" style="edgeStyle=orthogonalEdgeStyle;rounded=0;orthogonalLoop=1;jettySize=auto;html=1;strokeColor=#fc0303;entryX=0.5;entryY=0;entryDx=0;entryDy=0;exitX=0.5;exitY=1;exitDx=0;exitDy=0;sketch=1;curveFitting=1;jiggle=2;" parent="WIyWlLk6GJQsqaUBKTNV-1" source="GbRqIvFZk893x_S-Il0t-66" target="GbRqIvFZk893x_S-Il0t-78" edge="1">
          <mxGeometry relative="1" as="geometry">
            <mxPoint x="1045" y="1033" as="targetPoint" />
            <mxPoint x="1050" y="722" as="sourcePoint" />
            <Array as="points">
              <mxPoint x="1450" y="1169" />
            </Array>
          </mxGeometry>
        </mxCell>
        <mxCell id="GbRqIvFZk893x_S-Il0t-106" value="&lt;b style=&quot;color: rgb(251, 4, 4); font-family: Helvetica;&quot;&gt;update 状态【&lt;span style=&quot;font-size: 12px;&quot;&gt;正常&lt;/span&gt;】&lt;/b&gt;" style="edgeLabel;html=1;align=center;verticalAlign=middle;resizable=0;points=[];sketch=1;hachureGap=4;jiggle=2;curveFitting=1;fontFamily=Architects Daughter;fontSource=https%3A%2F%2Ffonts.googleapis.com%2Fcss%3Ffamily%3DArchitects%2BDaughter;" parent="GbRqIvFZk893x_S-Il0t-101" vertex="1" connectable="0">
          <mxGeometry x="-0.1683" relative="1" as="geometry">
            <mxPoint as="offset" />
          </mxGeometry>
        </mxCell>
        <mxCell id="GbRqIvFZk893x_S-Il0t-104" value="" style="edgeStyle=orthogonalEdgeStyle;rounded=0;sketch=1;hachureGap=4;jiggle=2;curveFitting=1;orthogonalLoop=1;jettySize=auto;html=1;fontFamily=Architects Daughter;fontSource=https%3A%2F%2Ffonts.googleapis.com%2Fcss%3Ffamily%3DArchitects%2BDaughter;" parent="WIyWlLk6GJQsqaUBKTNV-1" source="GbRqIvFZk893x_S-Il0t-103" target="GbRqIvFZk893x_S-Il0t-81" edge="1">
          <mxGeometry relative="1" as="geometry" />
        </mxCell>
        <mxCell id="GbRqIvFZk893x_S-Il0t-103" value="start" style="rounded=1;whiteSpace=wrap;html=1;fontSize=12;glass=0;strokeWidth=1;shadow=0;sketch=1;curveFitting=1;jiggle=2;" parent="WIyWlLk6GJQsqaUBKTNV-1" vertex="1">
          <mxGeometry x="1389.69" y="450" width="120" height="40" as="geometry" />
        </mxCell>
        <mxCell id="GbRqIvFZk893x_S-Il0t-105" value="end" style="rounded=1;whiteSpace=wrap;html=1;fontSize=12;glass=0;strokeWidth=1;shadow=0;sketch=1;curveFitting=1;jiggle=2;" parent="WIyWlLk6GJQsqaUBKTNV-1" vertex="1">
          <mxGeometry x="1400" y="1260" width="120" height="40" as="geometry" />
        </mxCell>
      </root>
    </mxGraphModel>
  </diagram>
</mxfile>
